<svg id="mainGraph" xmlns="http://www.w3.org/2000/svg" width="1200" height="700" viewBox="0 0 1500 750" transform="translate(75, 0)"><g transform="translate(80, 25)"><g fill="none" font-size="10" font-family="sans-serif" text-anchor="middle" class="x-axis"><g class="tick" opacity="1" transform="translate(0,0)"><line stroke="#868682" y2="650"></line><text fill="currentColor" y="653" dy="0.71em" font-size="18px" transform="translate(0, 8)">400</text></g><g class="tick" opacity="1" transform="translate(210,0)"><line stroke="#868682" y2="650"></line><text fill="currentColor" y="653" dy="0.71em" font-size="18px" transform="translate(0, 8)">800</text></g><g class="tick" opacity="1" transform="translate(420,0)"><line stroke="#868682" y2="650"></line><text fill="currentColor" y="653" dy="0.71em" font-size="18px" transform="translate(0, 8)">1,200</text></g><g class="tick" opacity="1" transform="translate(630,0)"><line stroke="#868682" y2="650"></line><text fill="currentColor" y="653" dy="0.71em" font-size="18px" transform="translate(0, 8)">1,600</text></g><g class="tick" opacity="1" transform="translate(840,0)"><line stroke="#868682" y2="650"></line><text fill="currentColor" y="653" dy="0.71em" font-size="18px" transform="translate(0, 8)">2,000</text></g><g class="tick" opacity="1" transform="translate(1050,0)"><line stroke="#868682" y2="650"></line><text fill="currentColor" y="653" dy="0.71em" font-size="18px" transform="translate(0, 8)">2,400</text></g></g><g fill="none" font-size="10" font-family="sans-serif" text-anchor="end" class="y-axis"><g class="tick" opacity="1" transform="translate(0,650)"><line stroke="#868682" x2="1050"></line><text fill="currentColor" x="-3" dy="0.32em" font-size="18px" transform="translate(-5, 0)">3.5</text></g><g class="tick" opacity="1" transform="translate(0,433.33333333333337)"><line stroke="#868682" x2="1050"></line><text fill="currentColor" x="-3" dy="0.32em" font-size="18px" transform="translate(-5, 0)">4.0</text></g><g class="tick" opacity="1" transform="translate(0,216.66666666666669)"><line stroke="#868682" x2="1050"></line><text fill="currentColor" x="-3" dy="0.32em" font-size="18px" transform="translate(-5, 0)">4.5</text></g><g class="tick" opacity="1" transform="translate(0,0)"><line stroke="#868682" x2="1050"></line><text fill="currentColor" x="-3" dy="0.32em" font-size="18px" transform="translate(-5, 0)">5.0</text></g></g><g fill="none" width="135" height="192.77790697674416" transform="translate(83.36250000000001,380.2777131782946),scale(0.3388674146075581,0.37651934956395344)"><g><polygon points="161.133,502.147 348.867,502.147 348.867,143.747 161.133,143.747 " fill="#FD9808"></polygon><polygon points="161.133,502.147 323.267,502.147 323.267,143.747 161.133,143.747 " fill="#FFDD09"></polygon><polygon points="348.867,502.147 468.333,502.147 468.333,297.347 348.867,297.347 " fill="#FD9808"></polygon><polygon points="348.867,502.147 442.733,502.147 442.733,297.347 348.867,297.347 " fill="#FFDD09"></polygon><polygon points="41.667,502.147 161.133,502.147 161.133,297.347 41.667,297.347 " fill="#FFFFFF"></polygon><polygon points="67.267,502.147 161.133,502.147 161.133,297.347 67.267,297.347 " fill="#FFDD09"></polygon><polygon points="229.4,502.147 280.6,502.147 280.6,416.813 229.4,416.813 " fill="#1CD759"></polygon><path d="M348.867,510.68H161.133c-5.12,0-8.533-3.413-8.533-8.533v-358.4c0-5.12,3.413-8.533,8.533-8.533h187.733 c5.12,0,8.533,3.413,8.533,8.533v358.4C357.4,507.267,353.987,510.68,348.867,510.68z M169.667,493.613h170.667V152.28H169.667 V493.613z" fill="black"></path><path d="M161.133,510.68H41.667c-5.12,0-8.533-3.413-8.533-8.533v-204.8c0-5.12,3.413-8.533,8.533-8.533h119.467 c5.12,0,8.533,3.413,8.533,8.533v204.8C169.667,507.267,166.253,510.68,161.133,510.68z M50.2,493.613h102.4V305.88H50.2V493.613z" fill="black"></path><path d="M468.333,510.68H348.867c-5.12,0-8.533-3.413-8.533-8.533v-204.8c0-5.12,3.413-8.533,8.533-8.533h119.467 c5.12,0,8.533,3.413,8.533,8.533v204.8C476.867,507.267,473.453,510.68,468.333,510.68z M357.4,493.613h102.4V305.88H357.4V493.613z" fill="black"></path><path d="M280.6,510.68h-51.2c-5.12,0-8.533-3.413-8.533-8.533v-85.333c0-5.12,3.413-8.533,8.533-8.533h51.2 c5.12,0,8.533,3.413,8.533,8.533v85.333C289.133,507.267,285.72,510.68,280.6,510.68z M237.933,493.613h34.133v-68.267h-34.133 V493.613z" fill="black"></path><path d="M41.667,510.68H7.533c-5.12,0-8.533-3.413-8.533-8.533s3.413-8.533,8.533-8.533h34.133c5.12,0,8.533,3.413,8.533,8.533   S46.787,510.68,41.667,510.68z" fill="black"></path><path d="M502.467,510.68h-34.133c-5.12,0-8.533-3.413-8.533-8.533s3.413-8.533,8.533-8.533h34.133c5.12,0,8.533,3.413,8.533,8.533   S507.587,510.68,502.467,510.68z" fill="black"></path><g><polygon points="195.267,246.147 229.4,246.147 229.4,177.88 195.267,177.88 " fill="#1CD759"></polygon><path d="M229.4,254.68h-34.133c-5.12,0-8.533-3.413-8.533-8.533V177.88c0-5.12,3.413-8.533,8.533-8.533H229.4 c5.12,0,8.533,3.413,8.533,8.533v68.267C237.933,251.267,234.52,254.68,229.4,254.68z M203.8,237.613h17.067v-51.2H203.8V237.613z" fill="black"></path></g><g><polygon points="280.6,246.147 314.733,246.147 314.733,177.88 280.6,177.88 " fill="#1CD759"></polygon><path d="M314.733,254.68H280.6c-5.12,0-8.533-3.413-8.533-8.533V177.88c0-5.12,3.413-8.533,8.533-8.533h34.133 c5.12,0,8.533,3.413,8.533,8.533v68.267C323.267,251.267,319.853,254.68,314.733,254.68z M289.133,237.613H306.2v-51.2h-17.067 V237.613z" fill="black"></path></g><g><polygon points="195.267,348.547 229.4,348.547 229.4,280.28 195.267,280.28 " fill="#1CD759"></polygon><path d="M229.4,357.08h-34.133c-5.12,0-8.533-3.413-8.533-8.533V280.28c0-5.12,3.413-8.533,8.533-8.533H229.4 c5.12,0,8.533,3.413,8.533,8.533v68.267C237.933,353.667,234.52,357.08,229.4,357.08z M203.8,340.013h17.067v-51.2H203.8V340.013z" fill="black"></path></g><g><polygon points="280.6,348.547 314.733,348.547 314.733,280.28 280.6,280.28 " fill="#1CD759"></polygon><path d="M314.733,357.08H280.6c-5.12,0-8.533-3.413-8.533-8.533V280.28c0-5.12,3.413-8.533,8.533-8.533h34.133 c5.12,0,8.533,3.413,8.533,8.533v68.267C323.267,353.667,319.853,357.08,314.733,357.08z M289.133,340.013H306.2v-51.2h-17.067 V340.013z" fill="black"></path></g></g><g transform="translate(-170, 0)"><polygon points="255,7.213 272.067,41.347 314.733,41.347 280.6,66.947 289.133,109.613 255,84.013 220.867,109.613 229.4,66.947 195.267,41.347 237.933,41.347 " fill="#1CD759"></polygon><path d="M289.133,118.147c-1.707,0-3.413-0.853-5.12-1.707L255,95.107l-29.013,21.333c-2.56,1.707-6.827,2.56-9.387,0 c-3.413-1.707-4.267-5.12-3.413-8.533l7.68-37.547L191,48.173c-2.56-2.56-4.267-5.973-2.56-9.387c0-3.413,3.413-5.973,6.827-5.973 h37.547L247.32,3.8c2.56-5.973,11.947-5.973,15.36,0l14.507,29.013h37.547c3.413,0,6.827,2.56,7.68,5.973 c0.853,3.413,0,7.68-2.56,9.387L289.987,70.36l7.68,37.547c0.853,3.413-0.853,6.827-3.413,8.533 C292.547,117.293,290.84,118.147,289.133,118.147z M255,75.48c1.707,0,3.413,0.853,5.12,1.707l16.213,11.947l-4.267-20.48 c-0.853-3.413,0.853-6.827,3.413-8.533l13.653-10.24h-17.067c-3.413,0-5.973-1.707-7.68-5.12L255,25.987l-9.387,18.773 c-1.707,3.413-4.267,5.12-7.68,5.12h-17.067l13.653,10.24c2.56,1.707,4.267,5.12,3.413,8.533l-4.267,20.48l16.213-11.947 C251.587,76.333,253.293,75.48,255,75.48z" fill="black"></path></g><g transform="translate(0, 0)"><polygon points="255,7.213 272.067,41.347 314.733,41.347 280.6,66.947 289.133,109.613 255,84.013 220.867,109.613 229.4,66.947 195.267,41.347 237.933,41.347 " fill="#1CD759"></polygon><path d="M289.133,118.147c-1.707,0-3.413-0.853-5.12-1.707L255,95.107l-29.013,21.333c-2.56,1.707-6.827,2.56-9.387,0 c-3.413-1.707-4.267-5.12-3.413-8.533l7.68-37.547L191,48.173c-2.56-2.56-4.267-5.973-2.56-9.387c0-3.413,3.413-5.973,6.827-5.973 h37.547L247.32,3.8c2.56-5.973,11.947-5.973,15.36,0l14.507,29.013h37.547c3.413,0,6.827,2.56,7.68,5.973 c0.853,3.413,0,7.68-2.56,9.387L289.987,70.36l7.68,37.547c0.853,3.413-0.853,6.827-3.413,8.533 C292.547,117.293,290.84,118.147,289.133,118.147z M255,75.48c1.707,0,3.413,0.853,5.12,1.707l16.213,11.947l-4.267-20.48 c-0.853-3.413,0.853-6.827,3.413-8.533l13.653-10.24h-17.067c-3.413,0-5.973-1.707-7.68-5.12L255,25.987l-9.387,18.773 c-1.707,3.413-4.267,5.12-7.68,5.12h-17.067l13.653,10.24c2.56,1.707,4.267,5.12,3.413,8.533l-4.267,20.48l16.213-11.947 C251.587,76.333,253.293,75.48,255,75.48z" fill="black"></path></g><g transform="translate(170, 0)"><polygon points="255,7.213 272.067,41.347 314.733,41.347 280.6,66.947 289.133,109.613 255,84.013 220.867,109.613 229.4,66.947 195.267,41.347 237.933,41.347 " fill="#1CD759"></polygon><path d="M289.133,118.147c-1.707,0-3.413-0.853-5.12-1.707L255,95.107l-29.013,21.333c-2.56,1.707-6.827,2.56-9.387,0 c-3.413-1.707-4.267-5.12-3.413-8.533l7.68-37.547L191,48.173c-2.56-2.56-4.267-5.973-2.56-9.387c0-3.413,3.413-5.973,6.827-5.973 h37.547L247.32,3.8c2.56-5.973,11.947-5.973,15.36,0l14.507,29.013h37.547c3.413,0,6.827,2.56,7.68,5.973 c0.853,3.413,0,7.68-2.56,9.387L289.987,70.36l7.68,37.547c0.853,3.413-0.853,6.827-3.413,8.533 C292.547,117.293,290.84,118.147,289.133,118.147z M255,75.48c1.707,0,3.413,0.853,5.12,1.707l16.213,11.947l-4.267-20.48 c-0.853-3.413,0.853-6.827,3.413-8.533l13.653-10.24h-17.067c-3.413,0-5.973-1.707-7.68-5.12L255,25.987l-9.387,18.773 c-1.707,3.413-4.267,5.12-7.68,5.12h-17.067l13.653,10.24c2.56,1.707,4.267,5.12,3.413,8.533l-4.267,20.48l16.213-11.947 C251.587,76.333,253.293,75.48,255,75.48z" fill="black"></path></g></g><g fill="none" width="135" height="185.02325581395348" transform="translate(653.5125,297.4883720930235),scale(0.3252361918604651,0.3613735465116279)"><g><polygon points="161.133,502.147 348.867,502.147 348.867,143.747 161.133,143.747 " fill="#FD9808"></polygon><polygon points="161.133,502.147 323.267,502.147 323.267,143.747 161.133,143.747 " fill="#FFDD09"></polygon><polygon points="348.867,502.147 468.333,502.147 468.333,297.347 348.867,297.347 " fill="#FD9808"></polygon><polygon points="348.867,502.147 442.733,502.147 442.733,297.347 348.867,297.347 " fill="#FFDD09"></polygon><polygon points="41.667,502.147 161.133,502.147 161.133,297.347 41.667,297.347 " fill="#FFFFFF"></polygon><polygon points="67.267,502.147 161.133,502.147 161.133,297.347 67.267,297.347 " fill="#FFDD09"></polygon><polygon points="229.4,502.147 280.6,502.147 280.6,416.813 229.4,416.813 " fill="#1CD759"></polygon><path d="M348.867,510.68H161.133c-5.12,0-8.533-3.413-8.533-8.533v-358.4c0-5.12,3.413-8.533,8.533-8.533h187.733 c5.12,0,8.533,3.413,8.533,8.533v358.4C357.4,507.267,353.987,510.68,348.867,510.68z M169.667,493.613h170.667V152.28H169.667 V493.613z" fill="black"></path><path d="M161.133,510.68H41.667c-5.12,0-8.533-3.413-8.533-8.533v-204.8c0-5.12,3.413-8.533,8.533-8.533h119.467 c5.12,0,8.533,3.413,8.533,8.533v204.8C169.667,507.267,166.253,510.68,161.133,510.68z M50.2,493.613h102.4V305.88H50.2V493.613z" fill="black"></path><path d="M468.333,510.68H348.867c-5.12,0-8.533-3.413-8.533-8.533v-204.8c0-5.12,3.413-8.533,8.533-8.533h119.467 c5.12,0,8.533,3.413,8.533,8.533v204.8C476.867,507.267,473.453,510.68,468.333,510.68z M357.4,493.613h102.4V305.88H357.4V493.613z" fill="black"></path><path d="M280.6,510.68h-51.2c-5.12,0-8.533-3.413-8.533-8.533v-85.333c0-5.12,3.413-8.533,8.533-8.533h51.2 c5.12,0,8.533,3.413,8.533,8.533v85.333C289.133,507.267,285.72,510.68,280.6,510.68z M237.933,493.613h34.133v-68.267h-34.133 V493.613z" fill="black"></path><path d="M41.667,510.68H7.533c-5.12,0-8.533-3.413-8.533-8.533s3.413-8.533,8.533-8.533h34.133c5.12,0,8.533,3.413,8.533,8.533   S46.787,510.68,41.667,510.68z" fill="black"></path><path d="M502.467,510.68h-34.133c-5.12,0-8.533-3.413-8.533-8.533s3.413-8.533,8.533-8.533h34.133c5.12,0,8.533,3.413,8.533,8.533   S507.587,510.68,502.467,510.68z" fill="black"></path><g><polygon points="195.267,246.147 229.4,246.147 229.4,177.88 195.267,177.88 " fill="#1CD759"></polygon><path d="M229.4,254.68h-34.133c-5.12,0-8.533-3.413-8.533-8.533V177.88c0-5.12,3.413-8.533,8.533-8.533H229.4 c5.12,0,8.533,3.413,8.533,8.533v68.267C237.933,251.267,234.52,254.68,229.4,254.68z M203.8,237.613h17.067v-51.2H203.8V237.613z" fill="black"></path></g><g><polygon points="280.6,246.147 314.733,246.147 314.733,177.88 280.6,177.88 " fill="#1CD759"></polygon><path d="M314.733,254.68H280.6c-5.12,0-8.533-3.413-8.533-8.533V177.88c0-5.12,3.413-8.533,8.533-8.533h34.133 c5.12,0,8.533,3.413,8.533,8.533v68.267C323.267,251.267,319.853,254.68,314.733,254.68z M289.133,237.613H306.2v-51.2h-17.067 V237.613z" fill="black"></path></g><g><polygon points="195.267,348.547 229.4,348.547 229.4,280.28 195.267,280.28 " fill="#1CD759"></polygon><path d="M229.4,357.08h-34.133c-5.12,0-8.533-3.413-8.533-8.533V280.28c0-5.12,3.413-8.533,8.533-8.533H229.4 c5.12,0,8.533,3.413,8.533,8.533v68.267C237.933,353.667,234.52,357.08,229.4,357.08z M203.8,340.013h17.067v-51.2H203.8V340.013z" fill="black"></path></g><g><polygon points="280.6,348.547 314.733,348.547 314.733,280.28 280.6,280.28 " fill="#1CD759"></polygon><path d="M314.733,357.08H280.6c-5.12,0-8.533-3.413-8.533-8.533V280.28c0-5.12,3.413-8.533,8.533-8.533h34.133 c5.12,0,8.533,3.413,8.533,8.533v68.267C323.267,353.667,319.853,357.08,314.733,357.08z M289.133,340.013H306.2v-51.2h-17.067 V340.013z" fill="black"></path></g></g><g transform="translate(-255, 0)"><polygon points="255,7.213 272.067,41.347 314.733,41.347 280.6,66.947 289.133,109.613 255,84.013 220.867,109.613 229.4,66.947 195.267,41.347 237.933,41.347 " fill="#1CD759"></polygon><path d="M289.133,118.147c-1.707,0-3.413-0.853-5.12-1.707L255,95.107l-29.013,21.333c-2.56,1.707-6.827,2.56-9.387,0 c-3.413-1.707-4.267-5.12-3.413-8.533l7.68-37.547L191,48.173c-2.56-2.56-4.267-5.973-2.56-9.387c0-3.413,3.413-5.973,6.827-5.973 h37.547L247.32,3.8c2.56-5.973,11.947-5.973,15.36,0l14.507,29.013h37.547c3.413,0,6.827,2.56,7.68,5.973 c0.853,3.413,0,7.68-2.56,9.387L289.987,70.36l7.68,37.547c0.853,3.413-0.853,6.827-3.413,8.533 C292.547,117.293,290.84,118.147,289.133,118.147z M255,75.48c1.707,0,3.413,0.853,5.12,1.707l16.213,11.947l-4.267-20.48 c-0.853-3.413,0.853-6.827,3.413-8.533l13.653-10.24h-17.067c-3.413,0-5.973-1.707-7.68-5.12L255,25.987l-9.387,18.773 c-1.707,3.413-4.267,5.12-7.68,5.12h-17.067l13.653,10.24c2.56,1.707,4.267,5.12,3.413,8.533l-4.267,20.48l16.213-11.947 C251.587,76.333,253.293,75.48,255,75.48z" fill="black"></path></g><g transform="translate(-85, 0)"><polygon points="255,7.213 272.067,41.347 314.733,41.347 280.6,66.947 289.133,109.613 255,84.013 220.867,109.613 229.4,66.947 195.267,41.347 237.933,41.347 " fill="#1CD759"></polygon><path d="M289.133,118.147c-1.707,0-3.413-0.853-5.12-1.707L255,95.107l-29.013,21.333c-2.56,1.707-6.827,2.56-9.387,0 c-3.413-1.707-4.267-5.12-3.413-8.533l7.68-37.547L191,48.173c-2.56-2.56-4.267-5.973-2.56-9.387c0-3.413,3.413-5.973,6.827-5.973 h37.547L247.32,3.8c2.56-5.973,11.947-5.973,15.36,0l14.507,29.013h37.547c3.413,0,6.827,2.56,7.68,5.973 c0.853,3.413,0,7.68-2.56,9.387L289.987,70.36l7.68,37.547c0.853,3.413-0.853,6.827-3.413,8.533 C292.547,117.293,290.84,118.147,289.133,118.147z M255,75.48c1.707,0,3.413,0.853,5.12,1.707l16.213,11.947l-4.267-20.48 c-0.853-3.413,0.853-6.827,3.413-8.533l13.653-10.24h-17.067c-3.413,0-5.973-1.707-7.68-5.12L255,25.987l-9.387,18.773 c-1.707,3.413-4.267,5.12-7.68,5.12h-17.067l13.653,10.24c2.56,1.707,4.267,5.12,3.413,8.533l-4.267,20.48l16.213-11.947 C251.587,76.333,253.293,75.48,255,75.48z" fill="black"></path></g><g transform="translate(85, 0)"><polygon points="255,7.213 272.067,41.347 314.733,41.347 280.6,66.947 289.133,109.613 255,84.013 220.867,109.613 229.4,66.947 195.267,41.347 237.933,41.347 " fill="#1CD759"></polygon><path d="M289.133,118.147c-1.707,0-3.413-0.853-5.12-1.707L255,95.107l-29.013,21.333c-2.56,1.707-6.827,2.56-9.387,0 c-3.413-1.707-4.267-5.12-3.413-8.533l7.68-37.547L191,48.173c-2.56-2.56-4.267-5.973-2.56-9.387c0-3.413,3.413-5.973,6.827-5.973 h37.547L247.32,3.8c2.56-5.973,11.947-5.973,15.36,0l14.507,29.013h37.547c3.413,0,6.827,2.56,7.68,5.973 c0.853,3.413,0,7.68-2.56,9.387L289.987,70.36l7.68,37.547c0.853,3.413-0.853,6.827-3.413,8.533 C292.547,117.293,290.84,118.147,289.133,118.147z M255,75.48c1.707,0,3.413,0.853,5.12,1.707l16.213,11.947l-4.267-20.48 c-0.853-3.413,0.853-6.827,3.413-8.533l13.653-10.24h-17.067c-3.413,0-5.973-1.707-7.68-5.12L255,25.987l-9.387,18.773 c-1.707,3.413-4.267,5.12-7.68,5.12h-17.067l13.653,10.24c2.56,1.707,4.267,5.12,3.413,8.533l-4.267,20.48l16.213-11.947 C251.587,76.333,253.293,75.48,255,75.48z" fill="black"></path></g><g transform="translate(255, 0)"><polygon points="255,7.213 272.067,41.347 314.733,41.347 280.6,66.947 289.133,109.613 255,84.013 220.867,109.613 229.4,66.947 195.267,41.347 237.933,41.347 " fill="#1CD759"></polygon><path d="M289.133,118.147c-1.707,0-3.413-0.853-5.12-1.707L255,95.107l-29.013,21.333c-2.56,1.707-6.827,2.56-9.387,0 c-3.413-1.707-4.267-5.12-3.413-8.533l7.68-37.547L191,48.173c-2.56-2.56-4.267-5.973-2.56-9.387c0-3.413,3.413-5.973,6.827-5.973 h37.547L247.32,3.8c2.56-5.973,11.947-5.973,15.36,0l14.507,29.013h37.547c3.413,0,6.827,2.56,7.68,5.973 c0.853,3.413,0,7.68-2.56,9.387L289.987,70.36l7.68,37.547c0.853,3.413-0.853,6.827-3.413,8.533 C292.547,117.293,290.84,118.147,289.133,118.147z M255,75.48c1.707,0,3.413,0.853,5.12,1.707l16.213,11.947l-4.267-20.48 c-0.853-3.413,0.853-6.827,3.413-8.533l13.653-10.24h-17.067c-3.413,0-5.973-1.707-7.68-5.12L255,25.987l-9.387,18.773 c-1.707,3.413-4.267,5.12-7.68,5.12h-17.067l13.653,10.24c2.56,1.707,4.267,5.12,3.413,8.533l-4.267,20.48l16.213-11.947 C251.587,76.333,253.293,75.48,255,75.48z" fill="black"></path></g></g><g fill="none" width="135" height="202.5" transform="translate(114.96750000000003,-14.583333333333286),scale(0.35595703125,0.3955078125)"><g><polygon points="161.133,502.147 348.867,502.147 348.867,143.747 161.133,143.747 " fill="#FD9808"></polygon><polygon points="161.133,502.147 323.267,502.147 323.267,143.747 161.133,143.747 " fill="#FFDD09"></polygon><polygon points="348.867,502.147 468.333,502.147 468.333,297.347 348.867,297.347 " fill="#FD9808"></polygon><polygon points="348.867,502.147 442.733,502.147 442.733,297.347 348.867,297.347 " fill="#FFDD09"></polygon><polygon points="41.667,502.147 161.133,502.147 161.133,297.347 41.667,297.347 " fill="#FFFFFF"></polygon><polygon points="67.267,502.147 161.133,502.147 161.133,297.347 67.267,297.347 " fill="#FFDD09"></polygon><polygon points="229.4,502.147 280.6,502.147 280.6,416.813 229.4,416.813 " fill="#1CD759"></polygon><path d="M348.867,510.68H161.133c-5.12,0-8.533-3.413-8.533-8.533v-358.4c0-5.12,3.413-8.533,8.533-8.533h187.733 c5.12,0,8.533,3.413,8.533,8.533v358.4C357.4,507.267,353.987,510.68,348.867,510.68z M169.667,493.613h170.667V152.28H169.667 V493.613z" fill="black"></path><path d="M161.133,510.68H41.667c-5.12,0-8.533-3.413-8.533-8.533v-204.8c0-5.12,3.413-8.533,8.533-8.533h119.467 c5.12,0,8.533,3.413,8.533,8.533v204.8C169.667,507.267,166.253,510.68,161.133,510.68z M50.2,493.613h102.4V305.88H50.2V493.613z" fill="black"></path><path d="M468.333,510.68H348.867c-5.12,0-8.533-3.413-8.533-8.533v-204.8c0-5.12,3.413-8.533,8.533-8.533h119.467 c5.12,0,8.533,3.413,8.533,8.533v204.8C476.867,507.267,473.453,510.68,468.333,510.68z M357.4,493.613h102.4V305.88H357.4V493.613z" fill="black"></path><path d="M280.6,510.68h-51.2c-5.12,0-8.533-3.413-8.533-8.533v-85.333c0-5.12,3.413-8.533,8.533-8.533h51.2 c5.12,0,8.533,3.413,8.533,8.533v85.333C289.133,507.267,285.72,510.68,280.6,510.68z M237.933,493.613h34.133v-68.267h-34.133 V493.613z" fill="black"></path><path d="M41.667,510.68H7.533c-5.12,0-8.533-3.413-8.533-8.533s3.413-8.533,8.533-8.533h34.133c5.12,0,8.533,3.413,8.533,8.533   S46.787,510.68,41.667,510.68z" fill="black"></path><path d="M502.467,510.68h-34.133c-5.12,0-8.533-3.413-8.533-8.533s3.413-8.533,8.533-8.533h34.133c5.12,0,8.533,3.413,8.533,8.533   S507.587,510.68,502.467,510.68z" fill="black"></path><g><polygon points="195.267,246.147 229.4,246.147 229.4,177.88 195.267,177.88 " fill="#1CD759"></polygon><path d="M229.4,254.68h-34.133c-5.12,0-8.533-3.413-8.533-8.533V177.88c0-5.12,3.413-8.533,8.533-8.533H229.4 c5.12,0,8.533,3.413,8.533,8.533v68.267C237.933,251.267,234.52,254.68,229.4,254.68z M203.8,237.613h17.067v-51.2H203.8V237.613z" fill="black"></path></g><g><polygon points="280.6,246.147 314.733,246.147 314.733,177.88 280.6,177.88 " fill="#1CD759"></polygon><path d="M314.733,254.68H280.6c-5.12,0-8.533-3.413-8.533-8.533V177.88c0-5.12,3.413-8.533,8.533-8.533h34.133 c5.12,0,8.533,3.413,8.533,8.533v68.267C323.267,251.267,319.853,254.68,314.733,254.68z M289.133,237.613H306.2v-51.2h-17.067 V237.613z" fill="black"></path></g><g><polygon points="195.267,348.547 229.4,348.547 229.4,280.28 195.267,280.28 " fill="#1CD759"></polygon><path d="M229.4,357.08h-34.133c-5.12,0-8.533-3.413-8.533-8.533V280.28c0-5.12,3.413-8.533,8.533-8.533H229.4 c5.12,0,8.533,3.413,8.533,8.533v68.267C237.933,353.667,234.52,357.08,229.4,357.08z M203.8,340.013h17.067v-51.2H203.8V340.013z" fill="black"></path></g><g><polygon points="280.6,348.547 314.733,348.547 314.733,280.28 280.6,280.28 " fill="#1CD759"></polygon><path d="M314.733,357.08H280.6c-5.12,0-8.533-3.413-8.533-8.533V280.28c0-5.12,3.413-8.533,8.533-8.533h34.133 c5.12,0,8.533,3.413,8.533,8.533v68.267C323.267,353.667,319.853,357.08,314.733,357.08z M289.133,340.013H306.2v-51.2h-17.067 V340.013z" fill="black"></path></g></g><g transform="translate(-170, 0)"><polygon points="255,7.213 272.067,41.347 314.733,41.347 280.6,66.947 289.133,109.613 255,84.013 220.867,109.613 229.4,66.947 195.267,41.347 237.933,41.347 " fill="#1CD759"></polygon><path d="M289.133,118.147c-1.707,0-3.413-0.853-5.12-1.707L255,95.107l-29.013,21.333c-2.56,1.707-6.827,2.56-9.387,0 c-3.413-1.707-4.267-5.12-3.413-8.533l7.68-37.547L191,48.173c-2.56-2.56-4.267-5.973-2.56-9.387c0-3.413,3.413-5.973,6.827-5.973 h37.547L247.32,3.8c2.56-5.973,11.947-5.973,15.36,0l14.507,29.013h37.547c3.413,0,6.827,2.56,7.68,5.973 c0.853,3.413,0,7.68-2.56,9.387L289.987,70.36l7.68,37.547c0.853,3.413-0.853,6.827-3.413,8.533 C292.547,117.293,290.84,118.147,289.133,118.147z M255,75.48c1.707,0,3.413,0.853,5.12,1.707l16.213,11.947l-4.267-20.48 c-0.853-3.413,0.853-6.827,3.413-8.533l13.653-10.24h-17.067c-3.413,0-5.973-1.707-7.68-5.12L255,25.987l-9.387,18.773 c-1.707,3.413-4.267,5.12-7.68,5.12h-17.067l13.653,10.24c2.56,1.707,4.267,5.12,3.413,8.533l-4.267,20.48l16.213-11.947 C251.587,76.333,253.293,75.48,255,75.48z" fill="black"></path></g><g transform="translate(0, 0)"><polygon points="255,7.213 272.067,41.347 314.733,41.347 280.6,66.947 289.133,109.613 255,84.013 220.867,109.613 229.4,66.947 195.267,41.347 237.933,41.347 " fill="#1CD759"></polygon><path d="M289.133,118.147c-1.707,0-3.413-0.853-5.12-1.707L255,95.107l-29.013,21.333c-2.56,1.707-6.827,2.56-9.387,0 c-3.413-1.707-4.267-5.12-3.413-8.533l7.68-37.547L191,48.173c-2.56-2.56-4.267-5.973-2.56-9.387c0-3.413,3.413-5.973,6.827-5.973 h37.547L247.32,3.8c2.56-5.973,11.947-5.973,15.36,0l14.507,29.013h37.547c3.413,0,6.827,2.56,7.68,5.973 c0.853,3.413,0,7.68-2.56,9.387L289.987,70.36l7.68,37.547c0.853,3.413-0.853,6.827-3.413,8.533 C292.547,117.293,290.84,118.147,289.133,118.147z M255,75.48c1.707,0,3.413,0.853,5.12,1.707l16.213,11.947l-4.267-20.48 c-0.853-3.413,0.853-6.827,3.413-8.533l13.653-10.24h-17.067c-3.413,0-5.973-1.707-7.68-5.12L255,25.987l-9.387,18.773 c-1.707,3.413-4.267,5.12-7.68,5.12h-17.067l13.653,10.24c2.56,1.707,4.267,5.12,3.413,8.533l-4.267,20.48l16.213-11.947 C251.587,76.333,253.293,75.48,255,75.48z" fill="black"></path></g><g transform="translate(170, 0)"><polygon points="255,7.213 272.067,41.347 314.733,41.347 280.6,66.947 289.133,109.613 255,84.013 220.867,109.613 229.4,66.947 195.267,41.347 237.933,41.347 " fill="#1CD759"></polygon><path d="M289.133,118.147c-1.707,0-3.413-0.853-5.12-1.707L255,95.107l-29.013,21.333c-2.56,1.707-6.827,2.56-9.387,0 c-3.413-1.707-4.267-5.12-3.413-8.533l7.68-37.547L191,48.173c-2.56-2.56-4.267-5.973-2.56-9.387c0-3.413,3.413-5.973,6.827-5.973 h37.547L247.32,3.8c2.56-5.973,11.947-5.973,15.36,0l14.507,29.013h37.547c3.413,0,6.827,2.56,7.68,5.973 c0.853,3.413,0,7.68-2.56,9.387L289.987,70.36l7.68,37.547c0.853,3.413-0.853,6.827-3.413,8.533 C292.547,117.293,290.84,118.147,289.133,118.147z M255,75.48c1.707,0,3.413,0.853,5.12,1.707l16.213,11.947l-4.267-20.48 c-0.853-3.413,0.853-6.827,3.413-8.533l13.653-10.24h-17.067c-3.413,0-5.973-1.707-7.68-5.12L255,25.987l-9.387,18.773 c-1.707,3.413-4.267,5.12-7.68,5.12h-17.067l13.653,10.24c2.56,1.707,4.267,5.12,3.413,8.533l-4.267,20.48l16.213-11.947 C251.587,76.333,253.293,75.48,255,75.48z" fill="black"></path></g></g><g fill="none" width="135" height="190.2558139534884" transform="translate(773.8425000000001,34.87209302325569),scale(0.33443404796511633,0.37159338662790703)"><g><polygon points="161.133,502.147 348.867,502.147 348.867,143.747 161.133,143.747 " fill="#FD9808"></polygon><polygon points="161.133,502.147 323.267,502.147 323.267,143.747 161.133,143.747 " fill="#FFDD09"></polygon><polygon points="348.867,502.147 468.333,502.147 468.333,297.347 348.867,297.347 " fill="#FD9808"></polygon><polygon points="348.867,502.147 442.733,502.147 442.733,297.347 348.867,297.347 " fill="#FFDD09"></polygon><polygon points="41.667,502.147 161.133,502.147 161.133,297.347 41.667,297.347 " fill="#FFFFFF"></polygon><polygon points="67.267,502.147 161.133,502.147 161.133,297.347 67.267,297.347 " fill="#FFDD09"></polygon><polygon points="229.4,502.147 280.6,502.147 280.6,416.813 229.4,416.813 " fill="#1CD759"></polygon><path d="M348.867,510.68H161.133c-5.12,0-8.533-3.413-8.533-8.533v-358.4c0-5.12,3.413-8.533,8.533-8.533h187.733 c5.12,0,8.533,3.413,8.533,8.533v358.4C357.4,507.267,353.987,510.68,348.867,510.68z M169.667,493.613h170.667V152.28H169.667 V493.613z" fill="black"></path><path d="M161.133,510.68H41.667c-5.12,0-8.533-3.413-8.533-8.533v-204.8c0-5.12,3.413-8.533,8.533-8.533h119.467 c5.12,0,8.533,3.413,8.533,8.533v204.8C169.667,507.267,166.253,510.68,161.133,510.68z M50.2,493.613h102.4V305.88H50.2V493.613z" fill="black"></path><path d="M468.333,510.68H348.867c-5.12,0-8.533-3.413-8.533-8.533v-204.8c0-5.12,3.413-8.533,8.533-8.533h119.467 c5.12,0,8.533,3.413,8.533,8.533v204.8C476.867,507.267,473.453,510.68,468.333,510.68z M357.4,493.613h102.4V305.88H357.4V493.613z" fill="black"></path><path d="M280.6,510.68h-51.2c-5.12,0-8.533-3.413-8.533-8.533v-85.333c0-5.12,3.413-8.533,8.533-8.533h51.2 c5.12,0,8.533,3.413,8.533,8.533v85.333C289.133,507.267,285.72,510.68,280.6,510.68z M237.933,493.613h34.133v-68.267h-34.133 V493.613z" fill="black"></path><path d="M41.667,510.68H7.533c-5.12,0-8.533-3.413-8.533-8.533s3.413-8.533,8.533-8.533h34.133c5.12,0,8.533,3.413,8.533,8.533   S46.787,510.68,41.667,510.68z" fill="black"></path><path d="M502.467,510.68h-34.133c-5.12,0-8.533-3.413-8.533-8.533s3.413-8.533,8.533-8.533h34.133c5.12,0,8.533,3.413,8.533,8.533   S507.587,510.68,502.467,510.68z" fill="black"></path><g><polygon points="195.267,246.147 229.4,246.147 229.4,177.88 195.267,177.88 " fill="#1CD759"></polygon><path d="M229.4,254.68h-34.133c-5.12,0-8.533-3.413-8.533-8.533V177.88c0-5.12,3.413-8.533,8.533-8.533H229.4 c5.12,0,8.533,3.413,8.533,8.533v68.267C237.933,251.267,234.52,254.68,229.4,254.68z M203.8,237.613h17.067v-51.2H203.8V237.613z" fill="black"></path></g><g><polygon points="280.6,246.147 314.733,246.147 314.733,177.88 280.6,177.88 " fill="#1CD759"></polygon><path d="M314.733,254.68H280.6c-5.12,0-8.533-3.413-8.533-8.533V177.88c0-5.12,3.413-8.533,8.533-8.533h34.133 c5.12,0,8.533,3.413,8.533,8.533v68.267C323.267,251.267,319.853,254.68,314.733,254.68z M289.133,237.613H306.2v-51.2h-17.067 V237.613z" fill="black"></path></g><g><polygon points="195.267,348.547 229.4,348.547 229.4,280.28 195.267,280.28 " fill="#1CD759"></polygon><path d="M229.4,357.08h-34.133c-5.12,0-8.533-3.413-8.533-8.533V280.28c0-5.12,3.413-8.533,8.533-8.533H229.4 c5.12,0,8.533,3.413,8.533,8.533v68.267C237.933,353.667,234.52,357.08,229.4,357.08z M203.8,340.013h17.067v-51.2H203.8V340.013z" fill="black"></path></g><g><polygon points="280.6,348.547 314.733,348.547 314.733,280.28 280.6,280.28 " fill="#1CD759"></polygon><path d="M314.733,357.08H280.6c-5.12,0-8.533-3.413-8.533-8.533V280.28c0-5.12,3.413-8.533,8.533-8.533h34.133 c5.12,0,8.533,3.413,8.533,8.533v68.267C323.267,353.667,319.853,357.08,314.733,357.08z M289.133,340.013H306.2v-51.2h-17.067 V340.013z" fill="black"></path></g></g><g transform="translate(-340, 0)"><polygon points="255,7.213 272.067,41.347 314.733,41.347 280.6,66.947 289.133,109.613 255,84.013 220.867,109.613 229.4,66.947 195.267,41.347 237.933,41.347 " fill="#1CD759"></polygon><path d="M289.133,118.147c-1.707,0-3.413-0.853-5.12-1.707L255,95.107l-29.013,21.333c-2.56,1.707-6.827,2.56-9.387,0 c-3.413-1.707-4.267-5.12-3.413-8.533l7.68-37.547L191,48.173c-2.56-2.56-4.267-5.973-2.56-9.387c0-3.413,3.413-5.973,6.827-5.973 h37.547L247.32,3.8c2.56-5.973,11.947-5.973,15.36,0l14.507,29.013h37.547c3.413,0,6.827,2.56,7.68,5.973 c0.853,3.413,0,7.68-2.56,9.387L289.987,70.36l7.68,37.547c0.853,3.413-0.853,6.827-3.413,8.533 C292.547,117.293,290.84,118.147,289.133,118.147z M255,75.48c1.707,0,3.413,0.853,5.12,1.707l16.213,11.947l-4.267-20.48 c-0.853-3.413,0.853-6.827,3.413-8.533l13.653-10.24h-17.067c-3.413,0-5.973-1.707-7.68-5.12L255,25.987l-9.387,18.773 c-1.707,3.413-4.267,5.12-7.68,5.12h-17.067l13.653,10.24c2.56,1.707,4.267,5.12,3.413,8.533l-4.267,20.48l16.213-11.947 C251.587,76.333,253.293,75.48,255,75.48z" fill="black"></path></g><g transform="translate(-170, 0)"><polygon points="255,7.213 272.067,41.347 314.733,41.347 280.6,66.947 289.133,109.613 255,84.013 220.867,109.613 229.4,66.947 195.267,41.347 237.933,41.347 " fill="#1CD759"></polygon><path d="M289.133,118.147c-1.707,0-3.413-0.853-5.12-1.707L255,95.107l-29.013,21.333c-2.56,1.707-6.827,2.56-9.387,0 c-3.413-1.707-4.267-5.12-3.413-8.533l7.68-37.547L191,48.173c-2.56-2.56-4.267-5.973-2.56-9.387c0-3.413,3.413-5.973,6.827-5.973 h37.547L247.32,3.8c2.56-5.973,11.947-5.973,15.36,0l14.507,29.013h37.547c3.413,0,6.827,2.56,7.68,5.973 c0.853,3.413,0,7.68-2.56,9.387L289.987,70.36l7.68,37.547c0.853,3.413-0.853,6.827-3.413,8.533 C292.547,117.293,290.84,118.147,289.133,118.147z M255,75.48c1.707,0,3.413,0.853,5.12,1.707l16.213,11.947l-4.267-20.48 c-0.853-3.413,0.853-6.827,3.413-8.533l13.653-10.24h-17.067c-3.413,0-5.973-1.707-7.68-5.12L255,25.987l-9.387,18.773 c-1.707,3.413-4.267,5.12-7.68,5.12h-17.067l13.653,10.24c2.56,1.707,4.267,5.12,3.413,8.533l-4.267,20.48l16.213-11.947 C251.587,76.333,253.293,75.48,255,75.48z" fill="black"></path></g><g transform="translate(0, 0)"><polygon points="255,7.213 272.067,41.347 314.733,41.347 280.6,66.947 289.133,109.613 255,84.013 220.867,109.613 229.4,66.947 195.267,41.347 237.933,41.347 " fill="#1CD759"></polygon><path d="M289.133,118.147c-1.707,0-3.413-0.853-5.12-1.707L255,95.107l-29.013,21.333c-2.56,1.707-6.827,2.56-9.387,0 c-3.413-1.707-4.267-5.12-3.413-8.533l7.68-37.547L191,48.173c-2.56-2.56-4.267-5.973-2.56-9.387c0-3.413,3.413-5.973,6.827-5.973 h37.547L247.32,3.8c2.56-5.973,11.947-5.973,15.36,0l14.507,29.013h37.547c3.413,0,6.827,2.56,7.68,5.973 c0.853,3.413,0,7.68-2.56,9.387L289.987,70.36l7.68,37.547c0.853,3.413-0.853,6.827-3.413,8.533 C292.547,117.293,290.84,118.147,289.133,118.147z M255,75.48c1.707,0,3.413,0.853,5.12,1.707l16.213,11.947l-4.267-20.48 c-0.853-3.413,0.853-6.827,3.413-8.533l13.653-10.24h-17.067c-3.413,0-5.973-1.707-7.68-5.12L255,25.987l-9.387,18.773 c-1.707,3.413-4.267,5.12-7.68,5.12h-17.067l13.653,10.24c2.56,1.707,4.267,5.12,3.413,8.533l-4.267,20.48l16.213-11.947 C251.587,76.333,253.293,75.48,255,75.48z" fill="black"></path></g><g transform="translate(170, 0)"><polygon points="255,7.213 272.067,41.347 314.733,41.347 280.6,66.947 289.133,109.613 255,84.013 220.867,109.613 229.4,66.947 195.267,41.347 237.933,41.347 " fill="#1CD759"></polygon><path d="M289.133,118.147c-1.707,0-3.413-0.853-5.12-1.707L255,95.107l-29.013,21.333c-2.56,1.707-6.827,2.56-9.387,0 c-3.413-1.707-4.267-5.12-3.413-8.533l7.68-37.547L191,48.173c-2.56-2.56-4.267-5.973-2.56-9.387c0-3.413,3.413-5.973,6.827-5.973 h37.547L247.32,3.8c2.56-5.973,11.947-5.973,15.36,0l14.507,29.013h37.547c3.413,0,6.827,2.56,7.68,5.973 c0.853,3.413,0,7.68-2.56,9.387L289.987,70.36l7.68,37.547c0.853,3.413-0.853,6.827-3.413,8.533 C292.547,117.293,290.84,118.147,289.133,118.147z M255,75.48c1.707,0,3.413,0.853,5.12,1.707l16.213,11.947l-4.267-20.48 c-0.853-3.413,0.853-6.827,3.413-8.533l13.653-10.24h-17.067c-3.413,0-5.973-1.707-7.68-5.12L255,25.987l-9.387,18.773 c-1.707,3.413-4.267,5.12-7.68,5.12h-17.067l13.653,10.24c2.56,1.707,4.267,5.12,3.413,8.533l-4.267,20.48l16.213-11.947 C251.587,76.333,253.293,75.48,255,75.48z" fill="black"></path></g><g transform="translate(340, 0)"><polygon points="255,7.213 272.067,41.347 314.733,41.347 280.6,66.947 289.133,109.613 255,84.013 220.867,109.613 229.4,66.947 195.267,41.347 237.933,41.347 " fill="#1CD759"></polygon><path d="M289.133,118.147c-1.707,0-3.413-0.853-5.12-1.707L255,95.107l-29.013,21.333c-2.56,1.707-6.827,2.56-9.387,0 c-3.413-1.707-4.267-5.12-3.413-8.533l7.68-37.547L191,48.173c-2.56-2.56-4.267-5.973-2.56-9.387c0-3.413,3.413-5.973,6.827-5.973 h37.547L247.32,3.8c2.56-5.973,11.947-5.973,15.36,0l14.507,29.013h37.547c3.413,0,6.827,2.56,7.68,5.973 c0.853,3.413,0,7.68-2.56,9.387L289.987,70.36l7.68,37.547c0.853,3.413-0.853,6.827-3.413,8.533 C292.547,117.293,290.84,118.147,289.133,118.147z M255,75.48c1.707,0,3.413,0.853,5.12,1.707l16.213,11.947l-4.267-20.48 c-0.853-3.413,0.853-6.827,3.413-8.533l13.653-10.24h-17.067c-3.413,0-5.973-1.707-7.68-5.12L255,25.987l-9.387,18.773 c-1.707,3.413-4.267,5.12-7.68,5.12h-17.067l13.653,10.24c2.56,1.707,4.267,5.12,3.413,8.533l-4.267,20.48l16.213-11.947 C251.587,76.333,253.293,75.48,255,75.48z" fill="black"></path></g></g><g fill="none" width="135" height="135" transform="translate(327.11999999999995,149.16666666666669),scale(0.2373046875,0.263671875)"><g><polygon points="161.133,502.147 348.867,502.147 348.867,143.747 161.133,143.747 " fill="#FD9808"></polygon><polygon points="161.133,502.147 323.267,502.147 323.267,143.747 161.133,143.747 " fill="#FFDD09"></polygon><polygon points="348.867,502.147 468.333,502.147 468.333,297.347 348.867,297.347 " fill="#FD9808"></polygon><polygon points="348.867,502.147 442.733,502.147 442.733,297.347 348.867,297.347 " fill="#FFDD09"></polygon><polygon points="41.667,502.147 161.133,502.147 161.133,297.347 41.667,297.347 " fill="#FFFFFF"></polygon><polygon points="67.267,502.147 161.133,502.147 161.133,297.347 67.267,297.347 " fill="#FFDD09"></polygon><polygon points="229.4,502.147 280.6,502.147 280.6,416.813 229.4,416.813 " fill="#1CD759"></polygon><path d="M348.867,510.68H161.133c-5.12,0-8.533-3.413-8.533-8.533v-358.4c0-5.12,3.413-8.533,8.533-8.533h187.733 c5.12,0,8.533,3.413,8.533,8.533v358.4C357.4,507.267,353.987,510.68,348.867,510.68z M169.667,493.613h170.667V152.28H169.667 V493.613z" fill="black"></path><path d="M161.133,510.68H41.667c-5.12,0-8.533-3.413-8.533-8.533v-204.8c0-5.12,3.413-8.533,8.533-8.533h119.467 c5.12,0,8.533,3.413,8.533,8.533v204.8C169.667,507.267,166.253,510.68,161.133,510.68z M50.2,493.613h102.4V305.88H50.2V493.613z" fill="black"></path><path d="M468.333,510.68H348.867c-5.12,0-8.533-3.413-8.533-8.533v-204.8c0-5.12,3.413-8.533,8.533-8.533h119.467 c5.12,0,8.533,3.413,8.533,8.533v204.8C476.867,507.267,473.453,510.68,468.333,510.68z M357.4,493.613h102.4V305.88H357.4V493.613z" fill="black"></path><path d="M280.6,510.68h-51.2c-5.12,0-8.533-3.413-8.533-8.533v-85.333c0-5.12,3.413-8.533,8.533-8.533h51.2 c5.12,0,8.533,3.413,8.533,8.533v85.333C289.133,507.267,285.72,510.68,280.6,510.68z M237.933,493.613h34.133v-68.267h-34.133 V493.613z" fill="black"></path><path d="M41.667,510.68H7.533c-5.12,0-8.533-3.413-8.533-8.533s3.413-8.533,8.533-8.533h34.133c5.12,0,8.533,3.413,8.533,8.533   S46.787,510.68,41.667,510.68z" fill="black"></path><path d="M502.467,510.68h-34.133c-5.12,0-8.533-3.413-8.533-8.533s3.413-8.533,8.533-8.533h34.133c5.12,0,8.533,3.413,8.533,8.533   S507.587,510.68,502.467,510.68z" fill="black"></path><g><polygon points="195.267,246.147 229.4,246.147 229.4,177.88 195.267,177.88 " fill="#1CD759"></polygon><path d="M229.4,254.68h-34.133c-5.12,0-8.533-3.413-8.533-8.533V177.88c0-5.12,3.413-8.533,8.533-8.533H229.4 c5.12,0,8.533,3.413,8.533,8.533v68.267C237.933,251.267,234.52,254.68,229.4,254.68z M203.8,237.613h17.067v-51.2H203.8V237.613z" fill="black"></path></g><g><polygon points="280.6,246.147 314.733,246.147 314.733,177.88 280.6,177.88 " fill="#1CD759"></polygon><path d="M314.733,254.68H280.6c-5.12,0-8.533-3.413-8.533-8.533V177.88c0-5.12,3.413-8.533,8.533-8.533h34.133 c5.12,0,8.533,3.413,8.533,8.533v68.267C323.267,251.267,319.853,254.68,314.733,254.68z M289.133,237.613H306.2v-51.2h-17.067 V237.613z" fill="black"></path></g><g><polygon points="195.267,348.547 229.4,348.547 229.4,280.28 195.267,280.28 " fill="#1CD759"></polygon><path d="M229.4,357.08h-34.133c-5.12,0-8.533-3.413-8.533-8.533V280.28c0-5.12,3.413-8.533,8.533-8.533H229.4 c5.12,0,8.533,3.413,8.533,8.533v68.267C237.933,353.667,234.52,357.08,229.4,357.08z M203.8,340.013h17.067v-51.2H203.8V340.013z" fill="black"></path></g><g><polygon points="280.6,348.547 314.733,348.547 314.733,280.28 280.6,280.28 " fill="#1CD759"></polygon><path d="M314.733,357.08H280.6c-5.12,0-8.533-3.413-8.533-8.533V280.28c0-5.12,3.413-8.533,8.533-8.533h34.133 c5.12,0,8.533,3.413,8.533,8.533v68.267C323.267,353.667,319.853,357.08,314.733,357.08z M289.133,340.013H306.2v-51.2h-17.067 V340.013z" fill="black"></path></g></g><g transform="translate(-255, 0)"><polygon points="255,7.213 272.067,41.347 314.733,41.347 280.6,66.947 289.133,109.613 255,84.013 220.867,109.613 229.4,66.947 195.267,41.347 237.933,41.347 " fill="#1CD759"></polygon><path d="M289.133,118.147c-1.707,0-3.413-0.853-5.12-1.707L255,95.107l-29.013,21.333c-2.56,1.707-6.827,2.56-9.387,0 c-3.413-1.707-4.267-5.12-3.413-8.533l7.68-37.547L191,48.173c-2.56-2.56-4.267-5.973-2.56-9.387c0-3.413,3.413-5.973,6.827-5.973 h37.547L247.32,3.8c2.56-5.973,11.947-5.973,15.36,0l14.507,29.013h37.547c3.413,0,6.827,2.56,7.68,5.973 c0.853,3.413,0,7.68-2.56,9.387L289.987,70.36l7.68,37.547c0.853,3.413-0.853,6.827-3.413,8.533 C292.547,117.293,290.84,118.147,289.133,118.147z M255,75.48c1.707,0,3.413,0.853,5.12,1.707l16.213,11.947l-4.267-20.48 c-0.853-3.413,0.853-6.827,3.413-8.533l13.653-10.24h-17.067c-3.413,0-5.973-1.707-7.68-5.12L255,25.987l-9.387,18.773 c-1.707,3.413-4.267,5.12-7.68,5.12h-17.067l13.653,10.24c2.56,1.707,4.267,5.12,3.413,8.533l-4.267,20.48l16.213-11.947 C251.587,76.333,253.293,75.48,255,75.48z" fill="black"></path></g><g transform="translate(-85, 0)"><polygon points="255,7.213 272.067,41.347 314.733,41.347 280.6,66.947 289.133,109.613 255,84.013 220.867,109.613 229.4,66.947 195.267,41.347 237.933,41.347 " fill="#1CD759"></polygon><path d="M289.133,118.147c-1.707,0-3.413-0.853-5.12-1.707L255,95.107l-29.013,21.333c-2.56,1.707-6.827,2.56-9.387,0 c-3.413-1.707-4.267-5.12-3.413-8.533l7.68-37.547L191,48.173c-2.56-2.56-4.267-5.973-2.56-9.387c0-3.413,3.413-5.973,6.827-5.973 h37.547L247.32,3.8c2.56-5.973,11.947-5.973,15.36,0l14.507,29.013h37.547c3.413,0,6.827,2.56,7.68,5.973 c0.853,3.413,0,7.68-2.56,9.387L289.987,70.36l7.68,37.547c0.853,3.413-0.853,6.827-3.413,8.533 C292.547,117.293,290.84,118.147,289.133,118.147z M255,75.48c1.707,0,3.413,0.853,5.12,1.707l16.213,11.947l-4.267-20.48 c-0.853-3.413,0.853-6.827,3.413-8.533l13.653-10.24h-17.067c-3.413,0-5.973-1.707-7.68-5.12L255,25.987l-9.387,18.773 c-1.707,3.413-4.267,5.12-7.68,5.12h-17.067l13.653,10.24c2.56,1.707,4.267,5.12,3.413,8.533l-4.267,20.48l16.213-11.947 C251.587,76.333,253.293,75.48,255,75.48z" fill="black"></path></g><g transform="translate(85, 0)"><polygon points="255,7.213 272.067,41.347 314.733,41.347 280.6,66.947 289.133,109.613 255,84.013 220.867,109.613 229.4,66.947 195.267,41.347 237.933,41.347 " fill="#1CD759"></polygon><path d="M289.133,118.147c-1.707,0-3.413-0.853-5.12-1.707L255,95.107l-29.013,21.333c-2.56,1.707-6.827,2.56-9.387,0 c-3.413-1.707-4.267-5.12-3.413-8.533l7.68-37.547L191,48.173c-2.56-2.56-4.267-5.973-2.56-9.387c0-3.413,3.413-5.973,6.827-5.973 h37.547L247.32,3.8c2.56-5.973,11.947-5.973,15.36,0l14.507,29.013h37.547c3.413,0,6.827,2.56,7.68,5.973 c0.853,3.413,0,7.68-2.56,9.387L289.987,70.36l7.68,37.547c0.853,3.413-0.853,6.827-3.413,8.533 C292.547,117.293,290.84,118.147,289.133,118.147z M255,75.48c1.707,0,3.413,0.853,5.12,1.707l16.213,11.947l-4.267-20.48 c-0.853-3.413,0.853-6.827,3.413-8.533l13.653-10.24h-17.067c-3.413,0-5.973-1.707-7.68-5.12L255,25.987l-9.387,18.773 c-1.707,3.413-4.267,5.12-7.68,5.12h-17.067l13.653,10.24c2.56,1.707,4.267,5.12,3.413,8.533l-4.267,20.48l16.213-11.947 C251.587,76.333,253.293,75.48,255,75.48z" fill="black"></path></g><g transform="translate(255, 0)"><polygon points="255,7.213 272.067,41.347 314.733,41.347 280.6,66.947 289.133,109.613 255,84.013 220.867,109.613 229.4,66.947 195.267,41.347 237.933,41.347 " fill="#1CD759"></polygon><path d="M289.133,118.147c-1.707,0-3.413-0.853-5.12-1.707L255,95.107l-29.013,21.333c-2.56,1.707-6.827,2.56-9.387,0 c-3.413-1.707-4.267-5.12-3.413-8.533l7.68-37.547L191,48.173c-2.56-2.56-4.267-5.973-2.56-9.387c0-3.413,3.413-5.973,6.827-5.973 h37.547L247.32,3.8c2.56-5.973,11.947-5.973,15.36,0l14.507,29.013h37.547c3.413,0,6.827,2.56,7.68,5.973 c0.853,3.413,0,7.68-2.56,9.387L289.987,70.36l7.68,37.547c0.853,3.413-0.853,6.827-3.413,8.533 C292.547,117.293,290.84,118.147,289.133,118.147z M255,75.48c1.707,0,3.413,0.853,5.12,1.707l16.213,11.947l-4.267-20.48 c-0.853-3.413,0.853-6.827,3.413-8.533l13.653-10.24h-17.067c-3.413,0-5.973-1.707-7.68-5.12L255,25.987l-9.387,18.773 c-1.707,3.413-4.267,5.12-7.68,5.12h-17.067l13.653,10.24c2.56,1.707,4.267,5.12,3.413,8.533l-4.267,20.48l16.213-11.947 C251.587,76.333,253.293,75.48,255,75.48z" fill="black"></path></g></g><g fill="none" width="135" height="155.30232558139534" transform="translate(470.44500000000005,269.0155038759689),scale(0.2729923691860465,0.30332485465116277)"><g><polygon points="161.133,502.147 348.867,502.147 348.867,143.747 161.133,143.747 " fill="#FD9808"></polygon><polygon points="161.133,502.147 323.267,502.147 323.267,143.747 161.133,143.747 " fill="#FFDD09"></polygon><polygon points="348.867,502.147 468.333,502.147 468.333,297.347 348.867,297.347 " fill="#FD9808"></polygon><polygon points="348.867,502.147 442.733,502.147 442.733,297.347 348.867,297.347 " fill="#FFDD09"></polygon><polygon points="41.667,502.147 161.133,502.147 161.133,297.347 41.667,297.347 " fill="#FFFFFF"></polygon><polygon points="67.267,502.147 161.133,502.147 161.133,297.347 67.267,297.347 " fill="#FFDD09"></polygon><polygon points="229.4,502.147 280.6,502.147 280.6,416.813 229.4,416.813 " fill="#1CD759"></polygon><path d="M348.867,510.68H161.133c-5.12,0-8.533-3.413-8.533-8.533v-358.4c0-5.12,3.413-8.533,8.533-8.533h187.733 c5.12,0,8.533,3.413,8.533,8.533v358.4C357.4,507.267,353.987,510.68,348.867,510.68z M169.667,493.613h170.667V152.28H169.667 V493.613z" fill="black"></path><path d="M161.133,510.68H41.667c-5.12,0-8.533-3.413-8.533-8.533v-204.8c0-5.12,3.413-8.533,8.533-8.533h119.467 c5.12,0,8.533,3.413,8.533,8.533v204.8C169.667,507.267,166.253,510.68,161.133,510.68z M50.2,493.613h102.4V305.88H50.2V493.613z" fill="black"></path><path d="M468.333,510.68H348.867c-5.12,0-8.533-3.413-8.533-8.533v-204.8c0-5.12,3.413-8.533,8.533-8.533h119.467 c5.12,0,8.533,3.413,8.533,8.533v204.8C476.867,507.267,473.453,510.68,468.333,510.68z M357.4,493.613h102.4V305.88H357.4V493.613z" fill="black"></path><path d="M280.6,510.68h-51.2c-5.12,0-8.533-3.413-8.533-8.533v-85.333c0-5.12,3.413-8.533,8.533-8.533h51.2 c5.12,0,8.533,3.413,8.533,8.533v85.333C289.133,507.267,285.72,510.68,280.6,510.68z M237.933,493.613h34.133v-68.267h-34.133 V493.613z" fill="black"></path><path d="M41.667,510.68H7.533c-5.12,0-8.533-3.413-8.533-8.533s3.413-8.533,8.533-8.533h34.133c5.12,0,8.533,3.413,8.533,8.533   S46.787,510.68,41.667,510.68z" fill="black"></path><path d="M502.467,510.68h-34.133c-5.12,0-8.533-3.413-8.533-8.533s3.413-8.533,8.533-8.533h34.133c5.12,0,8.533,3.413,8.533,8.533   S507.587,510.68,502.467,510.68z" fill="black"></path><g><polygon points="195.267,246.147 229.4,246.147 229.4,177.88 195.267,177.88 " fill="#1CD759"></polygon><path d="M229.4,254.68h-34.133c-5.12,0-8.533-3.413-8.533-8.533V177.88c0-5.12,3.413-8.533,8.533-8.533H229.4 c5.12,0,8.533,3.413,8.533,8.533v68.267C237.933,251.267,234.52,254.68,229.4,254.68z M203.8,237.613h17.067v-51.2H203.8V237.613z" fill="black"></path></g><g><polygon points="280.6,246.147 314.733,246.147 314.733,177.88 280.6,177.88 " fill="#1CD759"></polygon><path d="M314.733,254.68H280.6c-5.12,0-8.533-3.413-8.533-8.533V177.88c0-5.12,3.413-8.533,8.533-8.533h34.133 c5.12,0,8.533,3.413,8.533,8.533v68.267C323.267,251.267,319.853,254.68,314.733,254.68z M289.133,237.613H306.2v-51.2h-17.067 V237.613z" fill="black"></path></g><g><polygon points="195.267,348.547 229.4,348.547 229.4,280.28 195.267,280.28 " fill="#1CD759"></polygon><path d="M229.4,357.08h-34.133c-5.12,0-8.533-3.413-8.533-8.533V280.28c0-5.12,3.413-8.533,8.533-8.533H229.4 c5.12,0,8.533,3.413,8.533,8.533v68.267C237.933,353.667,234.52,357.08,229.4,357.08z M203.8,340.013h17.067v-51.2H203.8V340.013z" fill="black"></path></g><g><polygon points="280.6,348.547 314.733,348.547 314.733,280.28 280.6,280.28 " fill="#1CD759"></polygon><path d="M314.733,357.08H280.6c-5.12,0-8.533-3.413-8.533-8.533V280.28c0-5.12,3.413-8.533,8.533-8.533h34.133 c5.12,0,8.533,3.413,8.533,8.533v68.267C323.267,353.667,319.853,357.08,314.733,357.08z M289.133,340.013H306.2v-51.2h-17.067 V340.013z" fill="black"></path></g></g><g transform="translate(-255, 0)"><polygon points="255,7.213 272.067,41.347 314.733,41.347 280.6,66.947 289.133,109.613 255,84.013 220.867,109.613 229.4,66.947 195.267,41.347 237.933,41.347 " fill="#1CD759"></polygon><path d="M289.133,118.147c-1.707,0-3.413-0.853-5.12-1.707L255,95.107l-29.013,21.333c-2.56,1.707-6.827,2.56-9.387,0 c-3.413-1.707-4.267-5.12-3.413-8.533l7.68-37.547L191,48.173c-2.56-2.56-4.267-5.973-2.56-9.387c0-3.413,3.413-5.973,6.827-5.973 h37.547L247.32,3.8c2.56-5.973,11.947-5.973,15.36,0l14.507,29.013h37.547c3.413,0,6.827,2.56,7.68,5.973 c0.853,3.413,0,7.68-2.56,9.387L289.987,70.36l7.68,37.547c0.853,3.413-0.853,6.827-3.413,8.533 C292.547,117.293,290.84,118.147,289.133,118.147z M255,75.48c1.707,0,3.413,0.853,5.12,1.707l16.213,11.947l-4.267-20.48 c-0.853-3.413,0.853-6.827,3.413-8.533l13.653-10.24h-17.067c-3.413,0-5.973-1.707-7.68-5.12L255,25.987l-9.387,18.773 c-1.707,3.413-4.267,5.12-7.68,5.12h-17.067l13.653,10.24c2.56,1.707,4.267,5.12,3.413,8.533l-4.267,20.48l16.213-11.947 C251.587,76.333,253.293,75.48,255,75.48z" fill="black"></path></g><g transform="translate(-85, 0)"><polygon points="255,7.213 272.067,41.347 314.733,41.347 280.6,66.947 289.133,109.613 255,84.013 220.867,109.613 229.4,66.947 195.267,41.347 237.933,41.347 " fill="#1CD759"></polygon><path d="M289.133,118.147c-1.707,0-3.413-0.853-5.12-1.707L255,95.107l-29.013,21.333c-2.56,1.707-6.827,2.56-9.387,0 c-3.413-1.707-4.267-5.12-3.413-8.533l7.68-37.547L191,48.173c-2.56-2.56-4.267-5.973-2.56-9.387c0-3.413,3.413-5.973,6.827-5.973 h37.547L247.32,3.8c2.56-5.973,11.947-5.973,15.36,0l14.507,29.013h37.547c3.413,0,6.827,2.56,7.68,5.973 c0.853,3.413,0,7.68-2.56,9.387L289.987,70.36l7.68,37.547c0.853,3.413-0.853,6.827-3.413,8.533 C292.547,117.293,290.84,118.147,289.133,118.147z M255,75.48c1.707,0,3.413,0.853,5.12,1.707l16.213,11.947l-4.267-20.48 c-0.853-3.413,0.853-6.827,3.413-8.533l13.653-10.24h-17.067c-3.413,0-5.973-1.707-7.68-5.12L255,25.987l-9.387,18.773 c-1.707,3.413-4.267,5.12-7.68,5.12h-17.067l13.653,10.24c2.56,1.707,4.267,5.12,3.413,8.533l-4.267,20.48l16.213-11.947 C251.587,76.333,253.293,75.48,255,75.48z" fill="black"></path></g><g transform="translate(85, 0)"><polygon points="255,7.213 272.067,41.347 314.733,41.347 280.6,66.947 289.133,109.613 255,84.013 220.867,109.613 229.4,66.947 195.267,41.347 237.933,41.347 " fill="#1CD759"></polygon><path d="M289.133,118.147c-1.707,0-3.413-0.853-5.12-1.707L255,95.107l-29.013,21.333c-2.56,1.707-6.827,2.56-9.387,0 c-3.413-1.707-4.267-5.12-3.413-8.533l7.68-37.547L191,48.173c-2.56-2.56-4.267-5.973-2.56-9.387c0-3.413,3.413-5.973,6.827-5.973 h37.547L247.32,3.8c2.56-5.973,11.947-5.973,15.36,0l14.507,29.013h37.547c3.413,0,6.827,2.56,7.68,5.973 c0.853,3.413,0,7.68-2.56,9.387L289.987,70.36l7.68,37.547c0.853,3.413-0.853,6.827-3.413,8.533 C292.547,117.293,290.84,118.147,289.133,118.147z M255,75.48c1.707,0,3.413,0.853,5.12,1.707l16.213,11.947l-4.267-20.48 c-0.853-3.413,0.853-6.827,3.413-8.533l13.653-10.24h-17.067c-3.413,0-5.973-1.707-7.68-5.12L255,25.987l-9.387,18.773 c-1.707,3.413-4.267,5.12-7.68,5.12h-17.067l13.653,10.24c2.56,1.707,4.267,5.12,3.413,8.533l-4.267,20.48l16.213-11.947 C251.587,76.333,253.293,75.48,255,75.48z" fill="black"></path></g><g transform="translate(255, 0)"><polygon points="255,7.213 272.067,41.347 314.733,41.347 280.6,66.947 289.133,109.613 255,84.013 220.867,109.613 229.4,66.947 195.267,41.347 237.933,41.347 " fill="#1CD759"></polygon><path d="M289.133,118.147c-1.707,0-3.413-0.853-5.12-1.707L255,95.107l-29.013,21.333c-2.56,1.707-6.827,2.56-9.387,0 c-3.413-1.707-4.267-5.12-3.413-8.533l7.68-37.547L191,48.173c-2.56-2.56-4.267-5.973-2.56-9.387c0-3.413,3.413-5.973,6.827-5.973 h37.547L247.32,3.8c2.56-5.973,11.947-5.973,15.36,0l14.507,29.013h37.547c3.413,0,6.827,2.56,7.68,5.973 c0.853,3.413,0,7.68-2.56,9.387L289.987,70.36l7.68,37.547c0.853,3.413-0.853,6.827-3.413,8.533 C292.547,117.293,290.84,118.147,289.133,118.147z M255,75.48c1.707,0,3.413,0.853,5.12,1.707l16.213,11.947l-4.267-20.48 c-0.853-3.413,0.853-6.827,3.413-8.533l13.653-10.24h-17.067c-3.413,0-5.973-1.707-7.68-5.12L255,25.987l-9.387,18.773 c-1.707,3.413-4.267,5.12-7.68,5.12h-17.067l13.653,10.24c2.56,1.707,4.267,5.12,3.413,8.533l-4.267,20.48l16.213-11.947 C251.587,76.333,253.293,75.48,255,75.48z" fill="black"></path></g></g><text y="710" x="525" fill="#333333" font-size="26px" text-anchor="middle">Price</text><text transform="rotate(-90)" x="-325" y="-50" fill="#333333" font-size="26px" text-anchor="middle">Rate</text></g></svg>