<svg xmlns="http://www.w3.org/2000/svg" viewBox="0 0 159.69 117.58" height="117.58" width="159.69">
    <g class="cd-disk" id="cd_1" transform="translate(144.67, 13.34)">
        <circle class="cls-1 realm" data-semantics="the realm of the CD" cx="0" cy="0" r="11.97" />
        <path class="cls-2 shadow" data-semantics="the shadow of the CD" d="M-8.05,1.46A8.78,8.78,0,0,1,0.73,-7.34" />
        <circle class="cls-3 hole" data-semantics="the hole of the CD" cx="0" cy="0" r="3.33" />
        <text class="cls-4" transform="translate(-11.63, 19.67)">Californication</text>
    </g>

    <g class="cd-disk" id="cd_2" transform="translate(144.46, 54.78)">
        <circle class="cls-5 realm" data-semantics="the realm of the CD" cx="0" cy="0" r="13.86" />
        <path class="cls-6 shadow" data-semantics="the shadow of the CD" d="M-9.14,1.33a9.8,9.8,0,0,1,9.8-9.8" />
        <circle class="cls-7 hole" data-semantics="the hole of the CD" cx="0" cy="0" r="3.85" />
        <text class="cls-4" transform="translate(-12.46, 20.11)">The Scientist</text>
    </g>

    <g class="cd-disk" id="cd_3" transform="translate(145.01, 95.08)">
        <circle class="cls-1 realm" data-semantics="the realm of the CD" cx="0" cy="0" r="11.97" />
        <path class="cls-8 shadow" data-semantics="the shadow of the CD" d="M-7.29,-0.08a7.27,7.27,0,0,1,7.28-7.24" />
        <circle class="cls-3 hole" data-semantics="the hole of the CD" cx="0" cy="0" r="3.33" />
        <text class="cls-4" transform="translate(-16.06, 21.25)">Hey<tspan class="cls-9" x="6.85" y="0"></tspan><tspan x="7.85" y="0">There Delilah</tspan></text>
    </g>

    <g class="cd-disk" id="cd_4" transform="translate(14.55, 12.97)">
        <circle class="cls-1 realm" data-semantics="the realm of the CD" cx="0" cy="0" r="11.97" />
        <path class="cls-10 shadow" data-semantics="the shadow of the CD" d="M-7.47,0.45a7.77,7.77,0,0,1,7.77-7.77" />
        <circle class="cls-11 hole" data-semantics="the hole of the CD" cx="0" cy="0" r="3.33" />
        <text class="cls-4" transform="translate(-14.55, 20.04)">Under the Bridge</text>
    </g>

    <g class="cd-disk" id="cd_5" transform="translate(60.1, 13.81)">
        <circle class="cls-12 realm" data-semantics="the realm of the CD" cx="0" cy="0" r="12.6" />
        <path class="cls-13 shadow" data-semantics="the shadow of the CD" d="M-8.10,0.78a8.49,8.49,0,0,1,8.49-8.48" />
        <circle class="cls-14 hole" data-semantics="the hole of the CD" cx="0" cy="0" r="3.5" />
        <text class="cls-4" transform="translate(-19.05, 19.20)">Sweet Home<tspan class="cls-15" x="22.04" y="0"></tspan><tspan x="22.9" y="0">Alabama</tspan></text>
    </g>

    <g class="cd-disk" id="cd_6" transform="translate(102.61, 13.81)">
        <circle class="cls-12 realm" data-semantics="the realm of the CD" cx="0" cy="0" r="12.6" />
        <path class="cls-16 shadow" data-semantics="the shadow of the CD" d="M-7.30,-0.81a6.89,6.89,0,0,1,6.89-6.88" />
        <circle class="cls-14 hole" data-semantics="the hole of the CD" cx="0" cy="0" r="3.5" />
        <text class="cls-4" transform="translate(-5.14, 19.20)">Numb</text>
    </g>

    <g class="cd-disk" id="cd_7" transform="translate(16.23, 54.53)">
        <circle class="cls-17 realm" data-semantics="the realm of the CD" cx="0" cy="0" r="13.23" />
        <path class="cls-18 shadow" data-semantics="the shadow of the CD" d="M-8.58,1.00a9.09,9.09,0,0,1,9.08-9.09" />
        <circle class="cls-19 hole" data-semantics="the hole of the CD" cx="0" cy="0" r="3.68" />
        <text class="cls-4" transform="translate(-8.77, 20.36)">Billie Jean</text>
    </g>

    <g class="cd-disk" id="cd_8" transform="translate(59.26, 52.85)">
        <circle class="cls-1 realm" data-semantics="the realm of the CD" cx="0" cy="0" r="11.97" />
        <path class="cls-20 shadow" data-semantics="the shadow of the CD" d="M-7.26,-0.20a7.12,7.12,0,0,1,7.12-7.12" />
        <circle class="cls-21 hole" data-semantics="the hole of the CD" cx="0" cy="0" r="3.33" />
        <text class="cls-4" transform="translate(-12.63, 22.04)">Feel Good Inc.</text>
    </g>

    <g class="cd-disk" id="cd_9" transform="translate(103.45, 54.53)">
        <circle class="cls-17 realm" data-semantics="the realm of the CD" cx="0" cy="0" r="13.23" />
        <path class="cls-22 shadow" data-semantics="the shadow of the CD" d="M-8.00,-0.18a7.91,7.91,0,0,1,7.91-7.91" />
        <circle class="cls-23 hole" data-semantics="the hole of the CD" cx="0" cy="0" r="3.68" />
        <text class="cls-4" transform="translate(-9.95, 20.36)"><tspan class="cls-24">T</tspan><tspan x="1.92" y="0">ake on Me</tspan></text>
    </g>

    <g class="cd-disk" id="cd_10" transform="translate(15.39, 96.13)">
        <circle class="cls-12 realm" data-semantics="the realm of the CD" cx="0" cy="0" r="12.6" />
        <path class="cls-25 shadow" data-semantics="the shadow of the CD" d="M-7.55,-0.29a7.41,7.41,0,0,1,7.41-7.41" />
        <circle class="cls-14 hole" data-semantics="the hole of the CD" cx="0" cy="0" r="3.5" />
        <text class="cls-4" transform="translate(-10.48, 20.20)"><tspan class="cls-24">T</tspan><tspan x="1.92" y="0">ongue</tspan><tspan class="cls-9" x="12.63" y="0"></tspan><tspan class="cls-26" x="13.63" y="0">T</tspan><tspan x="15.84" y="0">ied</tspan></text>
    </g>

    <g class="cd-disk" id="cd_11" transform="translate(58.42, 94.45)">
        <circle class="cls-27 realm" data-semantics="the realm of the CD" cx="0" cy="0" r="11.34" />
        <path class="cls-28 shadow" data-semantics="the shadow of the CD" d="M-7.42,1.00a7.93,7.93,0,0,1,7.93-7.93" />
        <circle class="cls-29 hole" data-semantics="the hole of the CD" cx="0" cy="0" r="3.15" />
        <text class="cls-4" transform="translate(-10.81, 21.88)">M<tspan class="cls-15" x="3.21" y="0">r</tspan><tspan class="cls-30" x="4.28" y="0">. Blue Sky</tspan></text>
    </g>

    <g class="cd-disk" id="cd_12" transform="translate(102.61, 96.13)">
        <circle class="cls-12 realm" data-semantics="the realm of the CD" cx="0" cy="0" r="12.6" />
        <path class="cls-31 shadow" data-semantics="the shadow of the CD" d="M-8.20,0.98a8.68,8.68,0,0,1,8.69-8.68" />
        <circle class="cls-32 hole" data-semantics="the hole of the CD" cx="0" cy="0" r="3.5" />
        <text class="cls-4" transform="translate(-7.32, 20.20)">Fix<tspan class="cls-9" x="5.13" y="0"></tspan><tspan class="cls-33" x="6.13" y="0">Y</tspan><tspan x="8.35" y="0">ou</tspan></text>
    </g>
</svg>