<?xml version="1.0" encoding="utf-8"?>
<!-- Generator: Adobe Illustrator 25.2.3, SVG Export Plug-In . SVG Version: 6.00 Build 0)  -->
<svg version="1.1" id="mainGraph" transform="translate(75, 0)" xmlns="http://www.w3.org/2000/svg"
	xmlns:xlink="http://www.w3.org/1999/xlink" x="0px" y="0px" viewBox="0 0 1400 700"
	style="enable-background:new 0 0 1400 700;" xml:space="preserve">
	<path class="st0" d="M762.6,424.3l-0.2,22.4h-18.2l-0.8,33.3l1.3,4.6l10.7,10.9l-18,4l-5.2,0.2l-18.1-3.1l-2.8-3.7h-16.5l-23.7,0.2
	l-5.1-4.7l-7.4,2.8l-7,0.1l-0.1-14.2l5.1-12l2.3-14l10.3-12.4l2-12l-0.7-4.8l-4.9-9.9l-1.8-6.4l3.5-3.6l-0.1-4.6l-4.9-14.4l-4.8-8.4
	l8.3-3.1h28.3l2.6,0.7l3.4,14.4l4.8,7.5l16.5-0.1l1.6-10.5h7l2,3h11.5l1.2,11.9l-0.9,12.6l4,7.9l-1.5,5.1l7.6,2.6L762.6,424.3z
	 M664.9,358.9l-5,5.4l-2.9,6.3l-1.8-7.8l6.9-6.5L664.9,358.9z" />
	<path class="st1"
		d="M823.5,335.5l-1.3,4.7l3.7,3.3l-7.6,11.6l-5.5,1.9l-1.7-5.8l0.3-9l-1.9-3.3l6.1,0.9L823.5,335.5z" />
	<path class="st1" d="M578.9,187.5l-1.1,3.2l3.2,8.3l-2.9,7.9l-6.7,8.3l-0.8,12.3l0.2,15.9l-9.7,1.6l-0.2-29.7l-2.5-10l-5-3.8
	l1.2-6.5l10-4.6l3.4-4.9l4-5.3L578.9,187.5z" />
	<path class="st1" d="M548.5,153.8l-0.6,3.8l7.4,15.5l9.9,8l2.9,4.3l-3.4,4.9l-10,4.6l-9.6-1.5l-3.2,1.5h-20.1l0.5,15.8l-8.6-4.8
	l-5.7,2.1l-6.2-1.6l-5-5.6l3.3-15.9l6.8-3.8l3.9-11.5l6.6,1.1l3.6-7.9l7.3-1.6l11.4-9.2L548.5,153.8z" />
	<path class="st1" d="M46.7,23.3" />
	<path class="st1" d="M772.1,497.1l5.7,11.9l1.4,6.1l13.4,10.7l-0.5,6.2l2.6,4.8l9.2,2.6l2.5,4.1l-8.8,4.1l-12.7,11.3l-1.7,6.3
	l-8.9,6.7l-3,7.8l-7.1,2.2l-7.5-2.1l-4-3.7l-4,0.2l-2.8,7.2l-9.5,9.2l-9.3-0.7l1.9-9.4l-3.4-9.1l-3.2-3l1-29h8.8l1.4-38.8l20.4-3.3
	l3.3,4.8l3.8-3.6L772.1,497.1z" />
	<path class="st1" d="M752.6,195.7l7,10.6l-1.1,11.9l6.2,1l-0.3,3.6l6.3,1.9l5,8.8l9.3,7.2l1.6,6.5l5.3,2.7l3,7.3l-8.9,0.1l-8-3.3
	l-2.5,3.7l-7.6-0.9l-9.7,5.4l-4.4-2.5l-3.6,6.9l-17.2-2.5l-8-7.6l-5.8,2.3l-3.3,5.6l-0.8,9.5l-11.7-1.5l-7,1.6l-3.3,12.8l-1-6.5
	l-9.2-10.7l-5.1-14.6l1.6-10.4l6.9-13.2l8-1.6l3.5,1.2l8.2-4.6l8.2-0.6l4.7-6.5l-0.3-3.6l11.4-1.1l11.5-11.7l0.6-4.2l6.5-3.8
	L752.6,195.7z" />
	<path class="st1"
		d="M496.8,200.9l5,5.6l6.2,1.6l5.7-2.1l8.6,4.8l1.6,13.3l-3,4.2l-3.8,12.6l3.7,15.4l-11.6-1.7l-15.7,3l-15.4,7
	l-0.5-5.7l1.4-10l-10-7.4l2.5-4.8l-1.8-5.7l3.3-1.6l2.5-17.9l-2.7-1.7l1.5-6.2l2.6-2.5l6.6,2.5l6.3-5.8l2.3,5.6L496.8,200.9z" />
	<path class="st1" d="M686.6,231.4l-6.9,13.2l-1.6,10.4l5.1,14.6l9.2,10.7l1,6.5l-3.9,3.5l-11-3.1l-11.5,0.5l-17.6-1.5l-0.3,1.4h-12
	l-1.7-1.9l0.8-9.7l-8.4-8.6l-3.5-7.5l2.3-10.9l11.4-12l4.4-0.7l8.2,4.7l6.1-14.3l0.5-4.6l4.9-4l0.5-6.2l3.1-1.7l0.4-5.7l6.5-12.5
	l5.5-2.3l0.5-7l-4.1-2l-1.5-7.7h3.2l3.8,4.9l2.8,11.4l-0.5,7.8l4.4,7.4l-12.1,1.1l-2.2,3.6l11.2,12.1L686.6,231.4z" />
	<path class="st0" d="M795,257l3.1,5.1l5.7,3.3l3.2-3l5,1.7l4.5-1.7l3.7,6.4l5.8,4.8l-1,11l4.7,4.1l-11.9,13.3l-2,7.2l-1.2,15.5
	l-6.6,10.9l1.5,3.2l1.9,3.3l-0.3,9l1.7,5.8l-0.7,4.9l2.3,7.3l-1,4.1l2.3,6.8l5.6,6.9l3.2,9.3l-16.6,3l-5.1,8l2.6,5.9l-2.5,20.8
	l5,6.3l7-2.3l-2.4,11.2l-3.7,2.2l-6.4-9.6l-7.1-2.3l-1.8-4l-12.9-0.1l-5.7-2.7l-1.9-4.1l-10.4-4.1l-8.6,2.3l-7.6-2.6l1.5-5.1l-4-7.9
	l0.9-12.6l-1.2-11.9h-11.5l-2-3h-7l-1.6,10.5l-16.5,0.1l-4.8-7.5l-3.4-14.4l-2.6-0.7h-28.3l-6.7,2.1l-2.2-3.1l2.9-6.3l5-5.4l2.6,1.6
	l9.2-5.4l0.2,6l4-0.4l3.4-5.1l6.1-4.1l3-6.2l0.3-13l5.5-9l8.3-7.8l1.7-9.3l-0.7-6.9l1.8-12l4.9-10.2l0.1-3.6l0.8-9.5l3.3-5.6
	l5.8-2.3l8,7.6l17.2,2.5l3.6-6.9l4.4,2.5l9.7-5.4l7.6,0.9l2.5-3.7l8,3.3L795,257z" />
	<path class="st0" d="M715.3,273.8l-0.1,3.6l-4.9,10.2l-1.8,12l0.7,6.9l-1.7,9.3l-8.3,7.8l-5.5,9l-0.3,13l-3,6.2l-6.1,4.1l-3.4,5.1
	l-4,0.4l-0.2-6l-9.2,5.4l-2.6-1.6l-2.8-2.6l-6.9,6.5l-1.8-4.6l-6.2-6.8l6.5-4.1l-2.4-12.6h13.2l7.9,1.5l3.1-1.7l2.3-9.7l0.2-8
	l-5.7-8.6l5.4-7.5l-2.6-4.9l-8.5,1.7l0.4-9.9l11.5-0.5l11,3.1l3.9-3.5l3.3-12.8l7-1.6L715.3,273.8z" />
	<path class="st1" d="M46.7,23.3" />
	<path class="st1" d="M46.7,23.3" />
	<path class="st1" d="M936.1,189.7l-2.7,5.1l-10.1,0.4l-0.7-6.1l5.3-9.6l6.6-2.6l2.7,7.4L936.1,189.7z" />
	<path class="st1" d="M934.5,176.9l-6.6,2.6l-14.6-17.3l-6.8-3.8l-15.1,0.6l-5-4.9l-2.5,8l-9.4-1.5l-1.3-8.9l4.1-12l0.1-8.7l11.6-6.2
	l2.1-3.6l3.3,6.3l3.5,13.6l2.5,5.2l3.9,1.6l2.5,5.1l9.1,3.6l5,7.3l5.7,3.8l4.6,7.3L934.5,176.9z" />
	<path class="st1" d="M927.9,179.5l-5.3,9.6l0.7,6.1l10.1-0.4l-0.4,8.3l5.5,8.4l5.6,4.4l27.1,10.5h9l-13.3,15.3l-13.4,17l-8.8-0.5
	l-7.7,3.2l-2.9,3.8l-8.1,3.2l-7.1,0.2l-3.2-3.5l-8.2,4.4l-3.7,4.2l-12.1-1.6l-11.5-8.5l-8.4-2l-1.2-7.4l-6.5-3.2l-3.4-10.6
	l-9.4-10.7l-6.1-1.5l1-6.3l7.2-0.5l0.7-10.5l1.5-11.7l5.9-7.4l5.5-13.7l4.5-1.5l3-16.2l9.4,1.5l2.5-8l5,4.9l15.1-0.6l6.8,3.8
	L927.9,179.5z" />
	<path class="st1" d="M46.7,23.3" />
	<path class="st0" d="M667,287.6l-0.4,9.9l8.5-1.7l2.6,4.9l-5.4,7.5l5.7,8.6l-0.2,8l-2.3,9.7l-3.1,1.7l-7.9-1.5h-13.2l2.4,12.6
	l-6.5,4.1l-4.4-6.5l-6.6-6.4l-5.9-9.6l-4.1-11l4.3-3.5l0.3-10.7l4.5-3.9l14-0.1l-0.2-12.2l0.3-1.4L667,287.6z" />
	<path class="st1" d="M545,193.5l0.6,5.1l4.2,3.6l0,16.1l2.2,3.1l0.3,12.2l-1.2,5.2l6,7.7l-17.9,9.3l-11.7,5.1l-9.3-3.7l0-0.2
	l2.5-0.4l-3.7-15.4l3.8-12.6l3-4.2l-1.6-13.3l-0.5-15.8h20.1L545,193.5z" />
	<path class="st1" d="M444,180.1l6,5.3l4.1-3.3l4.9,2l6.6-3.8l1.2,7.7l4.9,7.2l2.7,8.5l-1.5,6.2l2.7,1.7l-2.5,17.9l-3.3,1.6l-4,3.2
	l-4.6-1.9l0.1-6.3l-2.3-4.8h-5.3l-3.5-8.6l-5.4-7.2l-11.1,1.4l-1.9,4.6l-5.4,4.1l-2.9-6.4l-9.2-9l-3.2-4.8l3.2-5.7l8.7-2.1l0.1-10.1
	l5.9,0.4l6.3,3.5L444,180.1z" />
	<path class="st1" d="M395.8,173.2l1.8-5.6l9.4,0.1l-2.8,4.5L395.8,173.2z" />
	<path class="st1" d="M46.7,23.3" />
	<path class="st1"
		d="M411.1,195.2l-3-1.9l-1.9-7.4l-3.5,0.9l-6.7-5.9l9.5-1.1l4.4-2.6l13.2,0.1l-0.1,10.1l-8.7,2.1L411.1,195.2z" />
	<path class="st1" d="M46.7,23.3" />
	<path class="st1" d="M649.1,287.5l0.2,12.2l-14,0.1l-3.5-3.1l3.5-6.4l0-4.7l1.7,1.9H649.1z" />
	<path class="st1" d="M46.7,23.3" />
	<path class="st1" d="M871.9,261.8l8.4,2l11.5,8.5l12.1,1.6l3.7-4.2l8.2-4.4l3.2,3.5l7.1-0.2l-8.2,12.2l0.2,38.6l5,8.8l-5.7,3.9
	l-0.8,3.1l-5.9,4.1l-0.5,5.2l-5.4,12.1l-3.3,2.8l-12.7-10.7l-1.1-6.4l-22-14.3l-11.8-7l0-11.7l9.7-16.4l-0.5-8.4l-4.5-7.2l-4.3-11.1
	l3.6-4.2l7.8-3.8L871.9,261.8z" />
	<path class="st1" d="M469.8,231l1.8,5.7l-2.5,4.8l10,7.4l-1.4,10l0.5,5.7l-6.4-2.3l-9.3-5.9l-10-10.9l-8.6-5.4l-1.1-2.3l7.9-8.9
	l3-7.5h5.3l2.3,4.8l-0.1,6.3l4.6,1.9L469.8,231z" />
	<path class="st1"
		d="M798.9,614.3l3.6,4.6l-2.9,6.1l-7,2.6l-3.1,5.1l-5.7-3.7l-2.5-7.1l6.9-7.6l8.2-3.2L798.9,614.3z" />
	<path class="st1" d="M990.9,437.1l4.8,10l2,19.4l1.6,4.6l-2.8,6.7l-5.1-4.3l1.2,10.6l-4.2,7.7l-1.5,12l-8.9,22.7l-7.5,20.1
	l-4.2,14.4l-4.9,11.2l-15.2,7.1l-9.6-3.4l-2.7-2.7l-2.6-8.6l0.4-11.8l-2.6-8.6l3-9.1l10.1-15.7l0.2-5.2l-3-10.4l-0.3-10.2l9-13
	l13.5-6.3l13.4-10.8l2-6.3l7.9-6.6l1.9-5.9l-1.5-3.8L990.9,437.1z" />
	<path class="st1" d="M584.2,109.2l-0.2,28.7l-2.7,7.3l-3.3,3.8l-19.4,0.7l-3.3,3.1l-6.7,0.9l-8.8-1.7l-11.4,9.2l-7.3,1.6l-3.6,7.9
	l-6.6-1.1l-3.9,11.5l-6.8,3.8l-3.3,15.9l-4.5,2.5l-2.3-5.6l-6.3,5.8l-6.6-2.5l-2.6,2.5l-2.7-8.5l-4.9-7.2l-1.2-7.7l-6.6,3.8l-4.9-2
	l-4.1,3.3l-6-5.3l-0.5-7l-4.8-4.9l0.1-6.6l-2.4-6.4h2.7l2.3-8l16.9,1.9l4.4-1.4h34.5l1.4-8.5l-2.4-2.4l-3.4-40.5L491,75.9l-2.5-28.4
	h15.6l23.2,18.2l29.4,22.8l0,3.2l6.6,6l11.8,4.6l0.9,8.7L584.2,109.2z" />
	<path class="st0" d="M834.6,592.6l-6.8-0.1l-0.8-9.3l1.5-16.1l-3.5-10.7l-1.4-10.7l10.5-11.7l0.9-6.4l5.6-9.4l-2.1-4.5l2.5-9.4
	l0.8-11.6l-0.7-6.9l-8.8-3l-5.7-4.2l-7.6-0.2l0-3.8l-1.3-6.9l27.2-10.1l3.4,5.3l6.8-1.4l1.6,9.3l-3.4,6.4l1.2,3.2l7.3,3.1l5.4-5.1
	l1.2-14l-8.1-12l-3-2.2l-1.4-11.7l3-6.7h2.8l11,1.4l5.7-1.4l5.4,1.6l4.2-4.2l5.5,1l13.9-6.3l4-3.6l1.4,3.6l-2.1,5.4l1.1,6.9
	l-0.3,22.6l1.9,3.3l-2.9,11l-7.5,10l-6.5,5.4l-10.8,4l-5.7,3.5l-10.1,12.6l-5.3,2.6l-7.4,7.7l-2.1,5.1l6.1,19l-1.8,21.3l-3.5,4.6
	l-12.5,5.3l-7.9,4.6l-2.1,6.8L834.6,592.6z" />
	<path class="st1" d="M436.5,155.1l-18.2-19.6l-17.7,1.5l-2.2,7.2l0.9-8.8l4.2-13.9l-1.3-10.8l-2.4-3l2.7-9.9l-1.6-3.7l-5.8-2.1l1-6
	h35l0.4-17.9l8.9-5l0.6-26.4l29.3-0.1l0.3-13.4L486,34.4l18.1,13h-15.6l2.5,28.4l1.8,20.3l3.4,40.5l2.4,2.4l-1.4,8.5h-34.5l-4.4,1.4
	l-16.9-1.9l-2.3,8H436.5z" />
	<path class="st0" d="M861.5,431.6h-2.8l-3,6.7l1.4,11.7l3,2.2l8.1,12l-1.2,14l-5.4,5.1l-7.3-3.1l-1.2-3.2l3.4-6.4l-1.6-9.3l-6.8,1.4
	l-3.4-5.3l-4.1-4.7l2.6-3.7l2.7-12l0.6-12.2l3.6-3.5L846,411l-2.3-2.1l4.3,2.1l5.6-1.4l4,4.9l0.7,11.2L861.5,431.6z" />
	<path class="st1" d="M46.7,23.3" />
	<path class="st1" d="M755.4,495.5l7.6-1.6l6.5,0.7l2.6,2.5l-10.8,3.5l-3.8,3.6l-3.3-4.8l-20.4,3.3l-1.4,38.8h-8.8l-1,29l-1.7,38.8
	l-8.1,5.7l-14.5-2.7l-0.3-5.1l-3.9-1.5l-3.7,5.2l-6.8-6.6l-3.2-6.7l-3.4-16.4l-0.3-10.2l-2.6-8.6l0.8-15.1l-9.4-18.4l-2-6.9
	l-7.4-15.4l-3.8-5.8l-0.6-9.4l7-0.1l7.4-2.8l5.1,4.7l23.7-0.2h16.5l2.8,3.7l18.1,3.1l5.2-0.2L755.4,495.5z" />
	<path class="st1" d="M678.9,68.5l2.2,15.8l7.2,11.9l-1.8,5l-1.8,32l-9.4,11.8l-8,14.5l1.5,7l-14,6.1l-5.5-2.5l-6.8-0.1l-6.7,2.5
	l-2.6,3.3l-8.6-1l-8.3-4.3l-7.6,3.5l-4.8-6.6l-7.4-2.6l-9.4,1.9l-3.4,2.3l-0.4,4.9l-3.9,4.9l-0.4,8.8l-6.8-7.4l-4,5.3l-2.9-4.3
	l-9.9-8l-7.4-15.5l0.6-3.8l6.7-0.9l3.3-3.1l19.4-0.7l3.3-3.8l2.7-7.3l0.2-28.7l14.3-3.6L613,91l28.5-20.3l10.7-7.6l13.5,3.6l6.7,5.8
	L678.9,68.5z" />
	<path class="st1" d="M668.8,166.4l4.2,6.6l1.5,7.7l4.1,2l-0.5,7l-5.5,2.3l-6.5,12.5l-0.4,5.7l-3.1,1.7l-0.5,6.2l-4.9,4l-0.5,4.6
	l-6.1,14.3l-8.2-4.7l-4.4,0.7l-11.4,12l-2.3,10.9l-2.7,2.7l-10.2-0.5l-1.8,2.3l-7.8,1.1l-4.6-3.8l-5.4-12.7l-5.5-5.3l-7.8-1
	l-7.6,0.9l-0.2-15.9l0.8-12.3l6.7-8.3l2.9-7.9l-3.2-8.3l1.1-3.2l0.4-8.8l3.9-4.9l0.4-4.9l3.4-2.3l9.4-1.9l7.4,2.6l4.8,6.6l7.6-3.5
	l8.3,4.3l8.6,1l2.6-3.3l6.7-2.5l6.8,0.1l5.5,2.5L668.8,166.4z" />
	<path class="st1" d="M46.7,23.3" />
	<path class="st1" d="M822.8,321.4l3.2,5.6l0,7.9l-2.5,0.6l-7.9,4.2l-6.1-0.9l-1.5-3.2l6.6-10.9l5-0.2L822.8,321.4z" />
	<path class="st1" d="M873.3,79.1l3,8.7l1.7,16l2.3,8.4l10.9,9l-2.1,3.6l-11.6,6.2l-0.1,8.7l-4.1,12l1.3,8.9l-3,16.2l-4.5,1.5
	l-5.5,13.7l-5.9,7.4l-1.5,11.7l-1.8-7.8l-6.6-6.9l-1.2-7.8l1-6.5l-7.6,5.3l0.8,6.9l-10.3,13.2l-4.4,0.6l-6.8-5.7l-10.3,10l-7.2-0.1
	l-1.4-2.7l-12.1,0.7l-6.6-9.4l-6.8,1.2l-2.6,5.2l-2,9.6l-3.5,2.1l-6.2-1l1.1-11.9l-7-10.6l-2.7-11.2l-3.7-7.9l-1.4-10.8l7.2-14.2
	l1.5-6.2l8-0.1l-1.5-39.8l-0.2-5.3h8.8l-0.8-21.1h29.3h26.2h29.4H873.3z" />
	<path class="st1" d="M854.2,211.1l-0.7,10.5l-7.2,0.5l-1,6.3l6.1,1.5l9.4,10.7l3.4,10.6l6.5,3.2l1.2,7.4l-6.2-3.8l-7.8,3.8l-3.6,4.2
	l-4,4.7l-4.6-1.1l-9.7,3l-7.3-2l-2.7,3.1l-5.8-4.8l-3.7-6.4l-4.5,1.7l-5-1.7l-3.2,3l-5.7-3.3L795,257l-3-7.3l-5.3-2.7l-1.6-6.5
	l-9.3-7.2l-5-8.8l-6.3-1.9l0.3-3.6l3.5-2.1l2-9.6l2.6-5.2l6.8-1.2l6.6,9.4l12.1-0.7l1.4,2.7l7.2,0.1l10.3-10l6.8,5.7l4.4-0.6
	l10.3-13.2l-0.8-6.9l7.6-5.3l-1,6.5l1.2,7.8l6.6,6.9L854.2,211.1z" />
	<path class="st1" d="M436.5,155.1l2.4,6.4l-0.1,6.6l4.8,4.9l0.5,7l-8.8,1l-6.3-3.5l-5.9-0.4l-13.2-0.1l-4.4,2.6l-9.5,1.1l-0.1-7.7
	l8.3-1l2.8-4.5l-9.4-0.1l-5.3-11.1l6-12.2l2.2-7.2l17.7-1.5L436.5,155.1z" />
	<path class="st1"
		d="M453.7,221.2l-3,7.5l-7.9,8.9l-9.3-4.9l-3.3-4.6l-3.7-12.7l5.4-4.1l1.9-4.6l11.1-1.4l5.4,7.2L453.7,221.2z" />
	<path class="st1" d="M987.5,192.2l0.8,18.9l-8.1,15.3h-9l-27.1-10.5l-5.6-4.4l-5.5-8.4l0.4-8.3l2.7-5.1l9.7,10.7l6.2,0.5l7.4-4.8
	l5.9,1.9l8-5.1L987.5,192.2z" />
	<path class="st1" d="M989.5,247.3l-22.6-5.6l13.3-15.3l8.1-15.3l-0.8-18.9l11.9-3.6l4.5-4.2l3.2,5.1l0.5,8.8l-1.8,3.6l-0.4,9.1
	l-4.7,10.2l-3.8,5.4L989.5,247.3z" />
	<path class="st1" d="M989.5,247.3l-8.7,16.2l-17.2,21.2l-13.2,9.3l-9.8,9.9L928,319.3l-5,8.8l-5-8.8l-0.2-38.6l8.2-12.2l8.1-3.2
	l2.9-3.8l7.7-3.2l8.8,0.5l13.4-17L989.5,247.3z" />
	<path class="st1" d="M46.7,23.3" />
	<path class="st1" d="M46.7,23.3" />
	<path class="st1" d="M826.9,583.2l0.8,9.3l-1.6,5.1l-7.1-1.1l-2.9-5.2l3.5-8.6L826.9,583.2z" />
	<path class="st1"
		d="M760,105.5l1.5,39.8l-8,0.1l-1.5,6.2l-7.2,14.2l1.4,10.8l3.7,7.9l2.7,11.2l-3.6-0.9l-6.5,3.8l-0.6,4.2
	l-11.5,11.7l-11.4,1.1l0.3,3.6l-4.7,6.5l-8.2,0.6l-8.2,4.6l-3.5-1.2l-8,1.6l-2.9-10.1l-11.2-12.1l2.2-3.6l12.1-1.1l-4.4-7.4l0.5-7.8
	l-2.8-11.4l-3.8-4.9H673l-4.2-6.6l-1.5-7l8-14.5l9.4-11.8l1.8-32l1.8-5l-7.2-11.9l-2.2-15.8l8.8-4.7l32,18.5l13.4,7.7L760,105.5z" />
	<path class="st1" d="M554.6,194.9l-1.2,6.5l5,3.8l2.5,10l0.2,29.7l-4,1.2l-6-7.7l1.2-5.2l-0.3-12.2l-2.2-3.1l0-16.1l-4.2-3.6
	l-0.6-5.1L554.6,194.9z" />
	<path class="st0"
		d="M853.8,320.8l11.8,7l22,14.3l1.1,6.4l12.7,10.7l-4,14.2l0.6,3.3l5.5,5.3l-1.9,7.8l-0.2,7.5l3.1,9.3l1.2,7.7
	l5.6,5.8l-4,3.6l-13.9,6.3l-5.5-1l-4.2,4.2l-5.4-1.6l-5.7,1.4l-11-1.4l-3.1-5.8l-0.7-11.2l-4-4.9L848,411l-4.3-2.1l-17.4-9l-1.8-3.7
	l-3.2-9.3l-5.6-6.9l-2.3-6.8l1-4.1l-2.3-7.3l0.7-4.9l5.5-1.9l7.6-11.6l-3.7-3.3l1.3-4.7l2.5-0.6l0-7.9l-3.2-5.6l3.2-0.6H853.8z" />
	<path class="st1" d="M46.7,23.3" />
	<path class="st1" d="M853.8,320.8H826l-3.2,0.6l-3.1,3.1l-5,0.2l1.2-15.5l2-7.2l11.9-13.3l-4.7-4.1l1-11l2.7-3.1l7.3,2l9.7-3
	l4.6,1.1l4-4.7l4.3,11.1l4.5,7.2l0.5,8.4l-9.7,16.4L853.8,320.8z" />
	<path class="st1" d="M823.5,545.7l1.4,10.7l3.5,10.7l-1.5,16.1l-7.2-0.5l-3.5,8.6l2.9,5.2l7.1,1.1l1.6-5.1l6.8,0.1l-5.8,18
	l-11.2,10.7l-7.9,13.5l-14.4,15.3l-9,7.9l-12.5,7.4l-4.7-0.4l-3.3,3.5l-6.5,1.5l-10.3-2.1l-8.6,0.1l-8.2,4.1l-10.2,0.7l-5.1,3.7
	l-9.4-4.7l-7.4-16.1l3.7-2l-0.3-10.3l-7-13.9l-3.5-13.4l-2.6-5.3l3.7-5.2l3.9,1.5l0.3,5.1l14.5,2.7l8.1-5.7l1.7-38.8l3.2,3l3.4,9.1
	l-1.9,9.4l9.3,0.7l9.5-9.2l2.8-7.2l4-0.2l4,3.7l7.5,2.1l7.1-2.2l3-7.8l8.9-6.7l1.7-6.3l12.7-11.3l8.8-4.1L823.5,545.7z M798.9,614.3
	l-2.6-3.2l-8.2,3.2l-6.9,7.6l2.5,7.1l5.7,3.7l3.1-5.1l7-2.6l2.9-6.1L798.9,614.3z" />
	<path class="st0"
		d="M843.7,408.9l2.3,2.1l4.2,10.3l-3.6,3.5L846,437l-2.7,12l-2.6,3.7l4.1,4.7l-27.2,10.1l1.3,6.9l-10.9,1.9
	l-4.3,7.8l-7.9,4l-7.8,10.6l-15.9-1.6l-2.6-2.5l-6.5-0.7l-7.6,1.6l-10.7-10.9l-1.3-4.6l0.8-33.3h18.2l0.2-22.4l10.4,4.1l1.9,4.1
	l5.7,2.7l12.9,0.1l1.8,4l7.1,2.3l6.4,9.6l3.7-2.2l2.4-11.2l-7,2.3l-5-6.3l2.5-20.8l-2.6-5.9l5.1-8l16.6-3l1.8,3.7L843.7,408.9z" />
	<path class="st1"
		d="M818.9,474.4l0,3.8l7.6,0.2l5.7,4.2l8.8,3l0.7,6.9l-0.8,11.6l-2.5,9.4l2.1,4.5l-5.6,9.4l-0.9,6.4l-10.5,11.7
	l-17.1-2.2l-2.5-4.1l-9.2-2.6l-2.6-4.8l0.5-6.2L779.2,515l-1.4-6.1l-5.7-11.9l15.9,1.6l7.8-10.6l7.9-4l4.3-7.8L818.9,474.4z" />
	<g transform="translate(700,150)">
		<path class="st2" d="M16.9,13.6L16.9,13.6C17,13.6,17,13.5,16.9,13.6c0-0.1,0-0.1,0-0.1l0,0c-0.2-0.4-0.7-1.7-1.5-1.5
		c-0.9,0.2-0.7-1.4-1.9-1.2c-1.1,0.2-1.5,0.5-2.9-0.5c-1.4-1-2.7-0.5-3.3,0.6c-0.6,1-1.1,0.5-1.6,0.9c-0.3,0.2-0.6,0.4-0.8,0.6
		c-0.1,0-0.2,0.1-0.2,0.1S4,13.3,4.3,13.7c0.3,0.4-0.1,0-0.1,0c0,0-2.4-0.4-3.1-0.9c-0.8-0.6,0.2,0.9-0.3,1
		c-0.3,0.1,1.9,0.2,3.4,0.3l0,0c4.3,0.2,9.6-0.3,10.2-0.3l0,0c-0.4,0.1-7.3,1.8-9.6,1c0.1,0.1,0.1,0.1,0.2,0.1
		c0.3,0.2,0.6,0.4,0.8,0.6c0.6,0.4,1.1-0.2,1.6,0.9c0.6,1,1.8,1.6,3.3,0.6c1.4-1,1.8-0.7,2.9-0.5c1.2,0.2,1-1.4,1.9-1.2
		C16.2,15.2,16.8,13.9,16.9,13.6z" />
		<path class="st3" d="M8.7-1.2L8.7-1.2C8.7-1.3,8.7-1.3,8.7-1.2C8.6-1.3,8.6-1.3,8.7-1.2L8.7-1.2C8.2-1.3,6.8-1.5,6.5-0.7
		c-0.3,0.9-1.6-0.1-2,1c-0.4,1-0.3,1.5-1.9,2.3C1,3.3,0.9,4.6,1.5,5.6c0.6,1-0.1,1.2-0.1,1.9c0,0.3,0.1,0.7,0.1,1c0,0.1,0,0.2,0,0.2
		s0.4,1.1,0.8,1c0.4-0.1,0,0.1-0.1,0.1c0,0-1.5,1.9-2.4,2.2c-0.9,0.4,0.8,0.3,0.7,0.7c-0.1,0.3,1.2-1.5,1.9-2.8l0,0
		c2.3-3.6,4.5-8.4,4.8-9l0,0c-0.1,0.3-2.1,7.2-4,8.8c0.1,0,0.1,0,0.2-0.1c0.4-0.1,0.7-0.3,1-0.4c0.6-0.3,0.4-1,1.6-1
		c1.2,0,2.3-0.8,2.1-2.5c-0.2-1.8,0.3-1.9,1-2.8c0.7-0.9-0.7-1.5-0.1-2.2C9.7,0.3,8.9-0.9,8.7-1.2z" />
		<path class="st4" d="M-8.3-1.4L-8.3-1.4C-8.3-1.5-8.3-1.5-8.3-1.4c-0.1,0-0.1,0-0.1,0L-8.3-1.4c-0.3,0.4-1.2,1.5-0.6,2.1
		C-8.3,1.3-9.8,2-9,2.9c0.7,0.9,1.2,1.1,1,2.8c-0.2,1.7,0.9,2.5,2.1,2.5c1.2,0,1,0.7,1.6,1c0.3,0.1,0.6,0.3,1,0.4
		c0.1,0,0.2,0.1,0.2,0.1S-2,9.9-1.9,9.5c0.2-0.4,0,0.1,0,0.1c0,0,0.9,2.2,0.7,3.2c-0.1,1,0.7-0.6,1-0.3c0.3,0.2-0.7-1.8-1.5-3.1l0,0
		c-1.9-3.8-5-8.2-5.4-8.6l0,0C-6.6,1-1.7,6.2-1.3,8.6c0-0.1,0-0.1,0-0.2c0.1-0.4,0.1-0.7,0.1-1c0-0.7-0.7-0.8-0.1-1.9
		c0.6-1,0.5-2.4-1.1-3.1c-1.6-0.7-1.5-1.2-1.9-2.3c-0.4-1.1-1.7-0.1-2-1C-6.5-1.6-7.9-1.5-8.3-1.4z" />
		<path class="st5" d="M-16.9,13.1L-16.9,13.1C-17,13.1-17,13.1-16.9,13.1c0,0.1,0,0.1,0,0.1l0,0c0.2,0.4,0.7,1.7,1.5,1.5
		c0.9-0.2,0.7,1.4,1.9,1.2c1.1-0.2,1.5-0.5,2.9,0.5c1.4,1,2.7,0.5,3.2-0.6c0.6-1,1.1-0.5,1.6-0.9c0.3-0.2,0.6-0.4,0.8-0.6
		c0.1,0,0.2-0.1,0.2-0.1S-4,13.4-4.3,13c-0.3-0.4,0.1,0,0.1,0c0,0,2.4,0.4,3.1,0.9c0.8,0.6-0.2-0.9,0.3-1c0.3-0.1-1.9-0.2-3.4-0.3
		l0,0c-4.3-0.2-9.6,0.3-10.1,0.3l0,0c0.4-0.1,7.3-1.8,9.6-1C-4.8,12-4.8,12-4.9,11.9c-0.3-0.2-0.6-0.4-0.8-0.6
		c-0.6-0.4-1.1,0.2-1.6-0.9c-0.6-1-1.8-1.6-3.2-0.6c-1.4,1-1.8,0.7-2.9,0.5c-1.2-0.2-1,1.4-1.9,1.2C-16.2,11.5-16.8,12.7-16.9,13.1z
		" />
		<path class="st6"
			d="M-8.7,27.9L-8.7,27.9C-8.7,27.9-8.7,27.9-8.7,27.9C-8.6,27.9-8.6,28-8.7,27.9L-8.7,27.9
		c0.5,0.1,1.9,0.2,2.1-0.5c0.3-0.9,1.5,0.1,2-1c0.4-1,0.3-1.5,1.9-2.3C-1,23.4-0.9,22-1.5,21c-0.6-1,0.1-1.2,0.1-1.9
		c0-0.3-0.1-0.7-0.1-1c0-0.1,0-0.2,0-0.2s-0.4-1.1-0.8-1c-0.4,0.1,0-0.1,0.1-0.1c0,0,1.5-1.9,2.4-2.2c0.9-0.4-0.8-0.3-0.7-0.7
		c0.1-0.3-1.2,1.5-1.9,2.8l0,0c-2.3,3.6-4.5,8.4-4.8,9l0,0c0.1-0.3,2.1-7.2,4-8.8c-0.1,0-0.1,0-0.2,0.1c-0.4,0.1-0.7,0.3-1,0.4
		c-0.6,0.3-0.4,1-1.6,1c-1.2,0-2.3,0.8-2.1,2.5c0.2,1.8-0.3,1.9-1,2.8c-0.7,0.9,0.7,1.5,0.1,2.2C-9.7,26.4-8.9,27.5-8.7,27.9z" />
		<path class="st7" d="M8.3,28.1L8.3,28.1C8.3,28.1,8.3,28.1,8.3,28.1c0.1,0,0.1,0,0.1,0L8.3,28.1c0.3-0.4,1.2-1.5,0.6-2.1
		c-0.6-0.7,0.9-1.3,0.1-2.2c-0.7-0.9-1.2-1.1-1-2.8c0.2-1.7-0.9-2.5-2.1-2.5c-1.2,0-1-0.7-1.6-1c-0.3-0.1-0.6-0.3-1-0.4
		C3.3,17,3.2,17,3.2,17S2,16.8,1.9,17.2c-0.2,0.4,0-0.1,0-0.1c0,0-0.9-2.2-0.7-3.2c0.1-1-0.7,0.6-1,0.3c-0.3-0.2,0.7,1.8,1.4,3.1
		l0,0c1.9,3.8,5,8.1,5.4,8.6l0,0c-0.3-0.3-5.2-5.4-5.6-7.8c0,0.1,0,0.1,0,0.2c-0.1,0.4-0.1,0.7-0.1,1c0,0.7,0.7,0.8,0.1,1.9
		c-0.6,1-0.5,2.4,1.1,3.1c1.6,0.7,1.5,1.2,1.9,2.3c0.4,1.1,1.7,0.1,2,1C6.5,28.3,7.9,28.1,8.3,28.1z" />
	</g>
	<g transform="translate(900,200)">
		<path class="st2"
			d="M3.8,10.2L3.8,10.2C3.8,10.2,3.8,10.2,3.8,10.2c0-0.1,0-0.1,0-0.1l0,0C3.6,9.7,3,8.4,2.2,8.6
		C1.3,8.8,1.6,7.2,0.4,7.4c-1.1,0.2-1.5,0.5-3-0.5c-1.4-1-2.7-0.5-3.3,0.6c-0.6,1-1.1,0.5-1.7,0.9c-0.3,0.2-0.6,0.4-0.8,0.6
		c-0.1,0-0.2,0.1-0.2,0.1S-9.3,10-9,10.3c0.3,0.4-0.1,0-0.1,0c0,0-2.4-0.4-3.2-0.9c-0.8-0.6,0.2,0.9-0.3,1c-0.3,0.1,1.9,0.3,3.4,0.3
		l0,0c4.3,0.2,9.7-0.3,10.3-0.3l0,0c-0.4,0.1-7.4,1.8-9.7,1c0.1,0.1,0.1,0.1,0.2,0.2c0.3,0.2,0.6,0.4,0.8,0.6
		c0.6,0.4,1.1-0.2,1.7,0.9c0.6,1,1.9,1.6,3.3,0.6c1.4-1.1,1.9-0.7,3-0.5c1.2,0.2,1-1.4,1.9-1.2C3,11.9,3.6,10.6,3.8,10.2z" />
		<path class="st3" d="M-4.6-4.7L-4.6-4.7C-4.6-4.8-4.6-4.8-4.6-4.7C-4.6-4.8-4.6-4.8-4.6-4.7L-4.6-4.7C-5.1-4.8-6.5-5-6.7-4.2
		c-0.3,0.9-1.6-0.1-2,1c-0.4,1-0.3,1.6-2,2.3c-1.6,0.7-1.8,2.1-1.2,3.1c0.6,1-0.1,1.2-0.1,1.9c0,0.3,0.1,0.7,0.1,1
		c0,0.1,0,0.2,0,0.2s0.4,1.1,0.9,1c0.5-0.1,0,0.1-0.1,0.1c0,0-1.5,1.9-2.4,2.3c-0.9,0.4,0.9,0.3,0.7,0.7c-0.1,0.3,1.2-1.5,1.9-2.8
		l0,0c2.4-3.6,4.6-8.5,4.8-9.1l0,0c-0.1,0.4-2.1,7.3-4,8.9c0.1,0,0.1,0,0.2-0.1c0.4-0.1,0.7-0.3,1-0.4C-8,5.7-8.2,5-7,5
		c1.2,0,2.3-0.8,2.1-2.6c-0.2-1.8,0.3-2,1-2.8C-3.1-1.3-4.7-1.9-4-2.6C-3.5-3.2-4.3-4.4-4.6-4.7z" />
		<path class="st4" d="M-21.7-4.9L-21.7-4.9C-21.7-5-21.7-4.9-21.7-4.9c-0.1,0-0.1,0-0.1,0L-21.7-4.9c-0.3,0.4-1.2,1.5-0.6,2.1
		c0.6,0.7-0.9,1.3-0.1,2.2c0.7,0.9,1.2,1.1,1,2.8c-0.2,1.8,0.9,2.6,2.1,2.6c1.2,0,1,0.7,1.6,1c0.3,0.1,0.6,0.3,1,0.4
		c0.1,0,0.2,0.1,0.2,0.1s1.2,0.2,1.3-0.2c0.2-0.4,0,0.1,0,0.1c0,0,0.9,2.2,0.8,3.2c-0.1,1,0.7-0.6,1-0.3c0.3,0.3-0.7-1.8-1.5-3.1
		l0,0c-2-3.9-5.1-8.2-5.4-8.7l0,0c0.3,0.3,5.3,5.5,5.7,7.9c0-0.1,0-0.1,0-0.2c0.1-0.4,0.1-0.7,0.1-1c0-0.7-0.7-0.8-0.1-1.9
		c0.6-1,0.5-2.4-1.2-3.1c-1.6-0.7-1.5-1.2-2-2.3c-0.4-1.1-1.7-0.1-2-1C-19.9-5.1-21.3-5-21.7-4.9z" />
		<path class="st5"
			d="M-30.4,9.8L-30.4,9.8C-30.4,9.8-30.4,9.8-30.4,9.8c0,0.1,0,0.1,0,0.1l0,0c0.2,0.4,0.8,1.7,1.5,1.5
		c0.9-0.2,0.7,1.4,1.9,1.2c1.1-0.2,1.5-0.5,2.9,0.5c1.4,1,2.7,0.5,3.3-0.6c0.6-1,1.1-0.5,1.7-0.9c0.3-0.2,0.6-0.4,0.8-0.6
		c0.1,0,0.2-0.1,0.2-0.1s0.7-0.9,0.5-1.3c-0.3-0.4,0.1,0,0.1,0c0,0,2.4,0.4,3.1,0.9c0.8,0.6-0.2-0.9,0.3-1c0.3-0.1-1.9-0.3-3.4-0.3
		l0,0c-4.3-0.2-9.6,0.3-10.2,0.3l0,0c0.4-0.1,7.3-1.8,9.6-1c-0.1-0.1-0.1-0.1-0.2-0.2c-0.3-0.2-0.6-0.4-0.8-0.6
		c-0.6-0.4-1.1,0.2-1.7-0.9c-0.6-1-1.8-1.6-3.3-0.6c-1.4,1-1.8,0.7-2.9,0.5c-1.2-0.2-1,1.4-1.9,1.2C-29.6,8.1-30.2,9.4-30.4,9.8z" />
		<path class="st6" d="M-22,24.6L-22,24.6C-22.1,24.7-22,24.7-22,24.6C-22,24.7-22,24.7-22,24.6L-22,24.6c0.5,0.1,1.9,0.2,2.1-0.5
		c0.3-0.9,1.6,0.1,2-1c0.4-1,0.3-1.6,1.9-2.3c1.6-0.7,1.7-2.1,1.1-3.1c-0.6-1,0.1-1.2,0.1-1.9c0-0.3-0.1-0.7-0.1-1
		c0-0.1,0-0.2,0-0.2s-0.4-1.1-0.8-1c-0.5,0.1,0-0.1,0.1-0.1c0,0,1.5-1.9,2.4-2.2c0.9-0.4-0.8-0.3-0.7-0.7c0.1-0.3-1.2,1.5-1.9,2.8
		l0,0c-2.4,3.6-4.6,8.5-4.8,9l0,0c0.1-0.3,2.1-7.3,4-8.8c-0.1,0-0.1,0-0.2,0.1c-0.4,0.1-0.7,0.3-1,0.4c-0.6,0.3-0.4,1-1.6,1
		c-1.2,0-2.3,0.8-2.1,2.5c0.2,1.8-0.3,2-1,2.8c-0.8,0.9,0.8,1.5,0.1,2.2C-23.1,23.1-22.3,24.3-22,24.6z" />
		<path class="st7" d="M-5,24.8L-5,24.8C-5,24.9-5,24.9-5,24.8c0.1,0,0.1,0,0.1,0L-5,24.8c0.3-0.4,1.2-1.5,0.6-2.1
		C-5,22-3.5,21.4-4.3,20.5c-0.7-0.9-1.2-1.1-1-2.8c0.2-1.7-0.9-2.5-2.1-2.5c-1.2,0-1-0.7-1.6-1c-0.3-0.1-0.6-0.3-1-0.4
		c-0.1,0-0.2-0.1-0.2-0.1s-1.1-0.2-1.3,0.2c-0.2,0.4,0-0.1,0-0.1c0,0-0.9-2.2-0.7-3.2c0.1-1-0.7,0.6-1,0.3c-0.3-0.2,0.7,1.8,1.5,3.1
		l0,0c1.9,3.8,5.1,8.2,5.4,8.7l0,0c-0.3-0.3-5.2-5.4-5.6-7.9c0,0.1,0,0.1,0,0.2c-0.1,0.4-0.1,0.7-0.1,1c0,0.7,0.7,0.8,0.1,1.9
		c-0.6,1-0.5,2.4,1.1,3.1c1.6,0.7,1.5,1.2,1.9,2.3c0.4,1.1,1.7,0.1,2,1C-6.8,25-5.4,24.9-5,24.8z" />
	</g>
	<g transform="translate(600,200)">
		<path class="st2" d="M25.3,10.2L25.3,10.2C25.3,10.2,25.3,10.2,25.3,10.2c0-0.1,0-0.1,0-0.1l0,0c-0.2-0.4-0.8-1.8-1.7-1.6
		c-1,0.2-0.7-1.5-2-1.3c-1.2,0.2-1.6,0.5-3.2-0.6c-1.6-1.1-2.9-0.5-3.6,0.6c-0.7,1.1-1.2,0.5-1.8,1c-0.3,0.2-0.6,0.4-0.9,0.7
		C12,8.9,11.9,9,11.9,9s-0.8,1-0.5,1.4c0.3,0.4-0.1,0-0.1,0c0,0-2.6-0.4-3.4-1C7,8.7,8,10.3,7.5,10.4c-0.4,0.1,2.1,0.3,3.7,0.3l0,0
		c4.7,0.3,10.5-0.3,11.2-0.4l0,0c-0.4,0.1-8,2-10.5,1c0.1,0.1,0.1,0.1,0.2,0.2c0.3,0.3,0.6,0.5,0.9,0.7c0.6,0.4,1.2-0.2,1.8,1
		c0.7,1.1,2,1.7,3.6,0.6c1.6-1.1,2-0.8,3.2-0.6c1.3,0.2,1.1-1.6,2-1.3C24.4,12.1,25.1,10.7,25.3,10.2z" />
		<path class="st3" d="M16.1-5.8L16.1-5.8C16.1-5.8,16.1-5.8,16.1-5.8C16-5.9,16-5.9,16.1-5.8L16.1-5.8c-0.5-0.1-2.1-0.3-2.3,0.6
		c-0.3,0.9-1.7-0.1-2.2,1.1C11.2-3,11.2-2.5,9.5-1.7C7.8-0.9,7.6,0.5,8.3,1.7c0.6,1.1-0.1,1.3-0.1,2c0,0.4,0.1,0.7,0.1,1.1
		c0,0.1,0,0.2,0,0.2s0.4,1.2,0.9,1.1c0.5-0.1,0,0.1-0.1,0.1c0,0-1.6,2-2.6,2.4C5.7,9.1,7.6,9,7.4,9.5c-0.1,0.4,1.3-1.6,2.1-3l0,0
		c2.5-3.9,4.9-9.2,5.2-9.7l0,0c-0.1,0.4-2.3,7.9-4.3,9.5c0.1,0,0.2,0,0.2-0.1c0.4-0.1,0.7-0.3,1-0.4c0.6-0.3,0.4-1.1,1.7-1.1
		c1.3,0,2.5-0.9,2.3-2.8c-0.2-1.9,0.3-2.1,1.1-3c0.8-1-0.8-1.7-0.1-2.4C17.2-4.2,16.3-5.4,16.1-5.8z" />
		<path class="st4" d="M-2.2-5.9L-2.2-5.9C-2.2-5.9-2.3-5.9-2.2-5.9c-0.1,0-0.1,0-0.1,0L-2.2-5.9c-0.4,0.4-1.2,1.6-0.7,2.3
		C-2.2-2.9-3.8-2.2-3-1.2c0.7,0.9,1.3,1.1,1.1,3c-0.2,1.9,1,2.7,2.3,2.7c1.3,0,1,0.8,1.7,1.1C2.3,5.7,2.7,5.9,3,6
		c0.1,0,0.2,0.1,0.2,0.1s1.2,0.2,1.4-0.2c0.2-0.4,0,0.1,0,0.1c0,0,0.9,2.4,0.8,3.4c-0.1,1,0.7-0.6,1.1-0.3C6.9,9.4,5.8,7.2,5,5.8
		l0,0C3,1.7-0.4-3-0.7-3.5l0,0c0.3,0.3,5.6,5.8,6,8.4c0-0.1,0-0.2,0-0.2c0.1-0.4,0.1-0.8,0.1-1.1c0-0.7-0.7-0.9-0.1-2
		C6.1,0.5,5.9-1,4.2-1.8C2.5-2.5,2.5-3.1,2.1-4.2C1.6-5.4,0.3-4.3,0-5.3C-0.3-6.1-1.8-5.9-2.2-5.9z" />
		<path class="st5" d="M-11.3,9.8L-11.3,9.8C-11.4,9.8-11.4,9.8-11.3,9.8c0,0.1,0,0.1,0,0.1l0,0c0.2,0.4,0.8,1.8,1.6,1.6
		c1-0.2,0.7,1.5,2,1.3c1.2-0.2,1.6-0.5,3.1,0.6c1.5,1.1,2.8,0.5,3.5-0.6c0.6-1.1,1.2-0.5,1.7-0.9c0.3-0.2,0.6-0.4,0.9-0.7
		C1.5,11.1,1.6,11,1.6,11S2.4,10,2.1,9.7c-0.3-0.4,0.1,0,0.1,0c0,0,2.5,0.4,3.3,1c0.8,0.6-0.2-0.9,0.3-1.1c0.4-0.1-2-0.3-3.6-0.3
		l0,0C-2.3,9-7.9,9.6-8.5,9.7l0,0c0.4-0.1,7.8-1.9,10.2-1C1.6,8.6,1.5,8.5,1.5,8.5C1.2,8.2,0.9,8,0.6,7.8C0,7.4-0.5,8-1.2,6.9
		c-0.6-1.1-1.9-1.7-3.5-0.6c-1.5,1.1-1.9,0.8-3.1,0.6c-1.3-0.2-1,1.5-2,1.3C-10.5,8-11.2,9.4-11.3,9.8z" />
		<path class="st6" d="M-2.5,25.3L-2.5,25.3C-2.5,25.4-2.5,25.4-2.5,25.3C-2.4,25.4-2.4,25.4-2.5,25.3L-2.5,25.3
		c0.5,0.1,2,0.2,2.3-0.5c0.3-0.9,1.6,0.1,2.1-1c0.4-1.1,0.3-1.6,2-2.4c1.7-0.7,1.8-2.2,1.2-3.3c-0.6-1.1,0.1-1.3,0.1-2
		c0-0.4-0.1-0.7-0.1-1.1c0-0.1,0-0.2,0-0.2s-0.4-1.1-0.9-1.1c-0.5,0.1,0-0.1,0.1-0.1c0,0,1.6-2,2.5-2.4c0.9-0.4-0.9-0.3-0.8-0.8
		c0.1-0.4-1.2,1.6-2,2.9l0,0c-2.5,3.8-4.8,8.9-5,9.4l0,0c0.1-0.4,2.2-7.6,4.2-9.3c-0.1,0-0.2,0-0.2,0.1c-0.4,0.1-0.7,0.3-1,0.4
		c-0.6,0.3-0.4,1-1.7,1c-1.2,0-2.4,0.8-2.2,2.7c0.2,1.9-0.3,2-1,3c-0.8,1,0.8,1.6,0.1,2.3C-3.6,23.8-2.7,25-2.5,25.3z" />
		<path class="st7" d="M15.3,25.4L15.3,25.4C15.3,25.5,15.4,25.5,15.3,25.4c0.1,0,0.1,0,0.1,0L15.3,25.4c0.4-0.4,1.2-1.6,0.7-2.2
		c-0.6-0.7,0.9-1.3,0.1-2.3c-0.7-0.9-1.2-1.1-1-2.9c0.2-1.8-1-2.6-2.2-2.6c-1.2,0-1-0.7-1.6-1c-0.3-0.1-0.6-0.3-1-0.4
		c-0.1,0-0.2-0.1-0.2-0.1S8.8,13.6,8.6,14c-0.2,0.4,0-0.1,0-0.1c0,0-0.9-2.3-0.8-3.3c0.1-1-0.7,0.6-1,0.3c-0.3-0.3,0.8,1.8,1.5,3.2
		l0,0c2,4,5.3,8.5,5.6,9l0,0C13.6,22.9,8.4,17.5,8,15c0,0.1,0,0.2,0,0.2c-0.1,0.4-0.1,0.7-0.1,1.1c0,0.7,0.7,0.9,0.1,1.9
		c-0.6,1.1-0.5,2.5,1.2,3.2c1.7,0.7,1.6,1.3,2,2.4c0.5,1.2,1.8,0.1,2.1,1C13.4,25.6,14.9,25.5,15.3,25.4z" />
	</g>
	<g transform="translate(420,180)">
		<path class="st2" d="M48.9,11.7L48.9,11.7C49,11.7,48.9,11.7,48.9,11.7c0.1-0.2,0.1-0.2,0.1-0.2l-0.1,0c-0.3-0.7-1.3-3-2.7-2.7
		c-1.6,0.3-1.2-2.5-3.3-2.2c-2,0.3-2.7,0.9-5.2-1c-2.5-1.8-4.7-0.8-5.8,1c-1.1,1.8-2,0.9-2.9,1.5c-0.5,0.3-1,0.7-1.5,1.1
		c-0.1,0.1-0.3,0.3-0.3,0.3s-1.3,1.6-0.8,2.2c0.5,0.6-0.1,0-0.2,0c0,0-4.2-0.7-5.6-1.7c-1.4-1,0.3,1.6-0.5,1.8
		c-0.6,0.2,3.4,0.4,6,0.5l0,0c7.6,0.4,17.1-0.5,18.1-0.6l0.1,0c-0.6,0.2-13,3.2-17.1,1.7c0.1,0.1,0.2,0.2,0.3,0.3
		c0.5,0.4,1,0.8,1.5,1.1c1,0.7,1.9-0.3,2.9,1.5c1.1,1.8,3.3,2.8,5.8,1c2.6-1.9,3.3-1.3,5.2-1c2.1,0.3,1.7-2.5,3.3-2.2
		C47.5,14.7,48.6,12.4,48.9,11.7z" />
		<path class="st3" d="M33.5-13.6L33.5-13.6C33.6-13.7,33.5-13.7,33.5-13.6c-0.1-0.1-0.1-0.2-0.1-0.2l0,0.1c-0.7-0.1-3.1-0.3-3.5,1
		c-0.5,1.5-2.7-0.2-3.4,1.7c-0.7,1.8-0.6,2.7-3.3,3.9c-2.7,1.2-3,3.5-2,5.3c1,1.8-0.2,2.1-0.1,3.2c0,0.6,0.1,1.2,0.2,1.8
		c0,0.1,0.1,0.4,0.1,0.4s0.7,1.9,1.4,1.8c0.8-0.1-0.1,0.1-0.1,0.1c0,0-2.6,3.2-4.1,3.8c-1.5,0.6,1.4,0.5,1.2,1.3
		c-0.1,0.6,2-2.6,3.3-4.8l0,0c4-6.2,7.8-14.5,8.2-15.4l0-0.1c-0.2,0.6-3.6,12.4-6.8,15.1c0.1,0,0.2-0.1,0.4-0.1
		c0.6-0.2,1.1-0.4,1.7-0.7c1-0.5,0.7-1.7,2.7-1.7c2,0,3.9-1.4,3.6-4.3c-0.3-3,0.5-3.3,1.7-4.8c1.3-1.6-1.3-2.6-0.2-3.8
		C35.3-11.1,33.9-13.1,33.5-13.6z" />
		<path class="st4" d="M5-13L5-13C5-13.1,5-13.1,5-13c-0.2,0-0.2,0-0.2,0l0,0.1C4.5-12.4,3.1-10.5,4-9.6c1,1.1-1.4,2.1-0.2,3.7
		c1.1,1.4,1.9,1.7,1.6,4.6C5.1,1.6,6.9,2.9,8.9,2.9c2,0,1.6,1.2,2.6,1.6c0.5,0.2,1,0.5,1.6,0.7c0.1,0,0.4,0.1,0.4,0.1
		s1.9,0.3,2.2-0.4c0.3-0.7,0,0.1,0.1,0.2c0,0,1.4,3.7,1.2,5.2c-0.2,1.6,1.1-1,1.7-0.4c0.4,0.4-1.2-2.9-2.4-5.1l0,0
		C13-1.4,7.9-8.6,7.3-9.3l0,0C7.7-9,15.9-0.4,16.6,3.5c0-0.1,0.1-0.2,0.1-0.4c0.1-0.6,0.2-1.2,0.2-1.7c0.1-1.1-1.1-1.4-0.1-3.1
		c1-1.7,0.8-3.9-1.9-5.1c-2.7-1.2-2.5-2-3.2-3.7c-0.7-1.8-2.8-0.2-3.3-1.6C8-13.3,5.7-13.1,5-13z" />
		<path class="st5"
			d="M-8.4,11L-8.4,11C-8.4,11-8.4,11-8.4,11c-0.1,0.1-0.1,0.2-0.1,0.2l0.1,0c0.2,0.6,1.2,2.6,2.4,2.4
		c1.4-0.3,1.1,2.2,3,2c1.8-0.3,2.4-0.8,4.7,0.9c2.3,1.6,4.2,0.7,5.2-0.9c0.9-1.6,1.7-0.8,2.6-1.4c0.4-0.3,0.9-0.6,1.3-1
		c0.1-0.1,0.3-0.2,0.3-0.2s1.2-1.4,0.8-2c-0.4-0.6,0.1,0,0.2,0c0,0,3.8,0.6,5,1.5c1.2,0.9-0.3-1.4,0.4-1.6c0.5-0.2-3-0.4-5.4-0.4
		l0,0C5.2,9.9-3.2,10.7-4.2,10.8l-0.1,0c0.6-0.1,11.7-2.9,15.3-1.5c-0.1-0.1-0.2-0.2-0.3-0.2c-0.4-0.4-0.9-0.7-1.3-1
		C8.6,7.5,7.8,8.3,6.9,6.7C5.9,5,3.9,4.1,1.7,5.8C-0.6,7.4-1.2,6.9-3,6.6c-1.9-0.3-1.5,2.3-3,2C-7.2,8.3-8.1,10.4-8.4,11z" />
		<path class="st6" d="M5.3,33.9L5.3,33.9C5.2,33.9,5.3,33.9,5.3,33.9C5.4,34,5.4,34,5.4,34l0-0.1C6,34,8.2,34.2,8.6,33.1
		c0.4-1.4,2.4,0.2,3.1-1.5c0.6-1.6,0.5-2.4,3-3.5c2.5-1.1,2.7-3.2,1.8-4.8c-0.9-1.6,0.2-1.9,0.1-2.9c0-0.5-0.1-1-0.2-1.6
		c0-0.1-0.1-0.3-0.1-0.3s-0.6-1.7-1.3-1.6c-0.7,0.1,0.1-0.1,0.1-0.1c0,0,2.3-2.9,3.7-3.5c1.4-0.6-1.3-0.4-1.1-1.1
		c0.1-0.5-1.8,2.3-3,4.3l0,0c-3.6,5.6-7,13.1-7.4,13.9l0,0c0.2-0.5,3.2-11.2,6.1-13.6c-0.1,0-0.2,0.1-0.3,0.1
		c-0.5,0.2-1,0.4-1.5,0.6C10.6,17.9,10.9,19,9,19c-1.8,0-3.6,1.2-3.3,3.9c0.3,2.7-0.5,3-1.5,4.3c-1.2,1.4,1.2,2.4,0.2,3.4
		C3.6,31.6,4.9,33.3,5.3,33.9z" />
		<path class="st7" d="M31.1,33.5L31.1,33.5C31.1,33.5,31.1,33.5,31.1,33.5c0.1,0,0.2,0,0.2,0l0-0.1c0.4-0.5,1.6-2.2,0.8-3.1
		c-0.9-1,1.3-1.9,0.2-3.3c-1-1.3-1.8-1.6-1.5-4.2c0.3-2.6-1.4-3.8-3.2-3.8c-1.8,0-1.5-1-2.4-1.5c-0.5-0.2-0.9-0.4-1.4-0.6
		c-0.1,0-0.3-0.1-0.3-0.1s-1.7-0.3-2,0.3c-0.3,0.6,0-0.1-0.1-0.1c0,0-1.3-3.3-1.1-4.8c0.2-1.4-1,0.9-1.5,0.4
		c-0.4-0.4,1.1,2.6,2.2,4.6l0,0c2.9,5.7,7.6,12.2,8.1,12.9l0,0c-0.4-0.4-7.8-8.1-8.4-11.7c0,0.1,0,0.2-0.1,0.3
		c-0.1,0.5-0.2,1.1-0.2,1.6c-0.1,1,1,1.2,0.1,2.8c-0.9,1.5-0.7,3.6,1.7,4.6c2.4,1.1,2.3,1.8,2.9,3.4c0.7,1.7,2.6,0.2,3,1.5
		C28.4,33.7,30.5,33.6,31.1,33.5z" />
	</g>
	<g transform="translate(750,300)">
		<path class="st2"
			d="M56,4.1l0.2,0c0,0,0-0.1-0.1-0.2c0-0.1,0.1-0.2,0.1-0.2l-0.1,0c-0.5-1.3-2.6-5.8-5.3-5.2
		c-3.1,0.7-2.4-4.9-6.5-4.3C40.3-5.2,38.9-4,33.9-7.7c-5-3.6-9.3-1.6-11.4,2c-2.1,3.6-3.8,1.7-5.8,3c-1,0.7-1.9,1.4-2.9,2.2
		c-0.2,0.2-0.6,0.5-0.6,0.5s-2.6,3.1-1.7,4.4c1,1.3-0.2,0-0.4,0c0,0-8.2-1.3-10.9-3.3c-2.7-2,0.6,3.1-1,3.5C-1.8,5,6,5.5,11.2,5.6
		l0,0.1c15,0.8,33.6-1,35.6-1.2l0.1,0c-1.2,0.3-25.6,6.4-33.6,3.3c0.2,0.2,0.4,0.4,0.6,0.5c1,0.9,1.9,1.6,2.9,2.2
		c1.9,1.3,3.7-0.6,5.8,3c2.1,3.6,6.4,5.6,11.4,2c5-3.6,6.4-2.5,10.3-1.9c4.1,0.6,3.4-5,6.5-4.3C53.3,9.9,55.4,5.4,56,4.1z" />
		<path class="st3" d="M25.3-44.8l0.1-0.1c0,0-0.1,0-0.2,0c-0.1-0.1-0.1-0.1-0.1-0.1L25-45c-1.3-0.2-6-0.6-6.8,1.9
		c-0.9,2.9-5.1-0.4-6.6,3.3c-1.3,3.4-1.1,5.1-6.4,7.5C0-30-0.5-25.5,1.5-22.1c2,3.4-0.4,4-0.2,6.2c0.1,1.1,0.2,2.2,0.4,3.4
		c0,0.2,0.1,0.7,0.1,0.7s1.3,3.6,2.8,3.4c1.5-0.2-0.1,0.2-0.2,0.3c0,0-4.9,6.1-7.9,7.4C-6.3,0.5-0.6,0.2-1,1.7
		c-0.3,1.1,3.8-5,6.4-9.2l0,0.1c7.8-11.9,15-27.9,15.8-29.7l0.1-0.1c-0.3,1.2-6.9,24-13.1,29.1c0.2-0.1,0.5-0.2,0.7-0.2
		C10-8.8,11-9.2,12-9.7c2-1,1.3-3.3,5.2-3.3c3.9,0,7.6-2.6,7-8.4c-0.6-5.8,1-6.4,3.3-9.3c2.5-3.1-2.5-5.1-0.4-7.3
		C28.8-39.9,26.2-43.8,25.3-44.8z" />
		<path class="st4" d="M-29.2-42.9l-0.1-0.1c0,0,0,0.1-0.1,0.1c-0.1,0-0.2,0-0.2,0l0.1,0.1c-0.8,1-3.3,4.6-1.7,6.4
		c1.9,2.1-2.7,4-0.4,6.9c2.2,2.7,3.7,3.3,3.1,8.8c-0.6,5.4,2.9,7.9,6.6,7.9c3.7,0,3.1,2.2,4.9,3.1c0.9,0.4,1.9,0.9,3,1.3
		c0.2,0.1,0.7,0.2,0.7,0.2s3.6,0.6,4.1-0.7C-8.6-10-9.1-8.5-9-8.4c0,0,2.7,7,2.3,9.9c-0.4,3,2.1-1.8,3.1-0.8
		c0.8,0.8-2.3-5.5-4.5-9.6l0.1,0c-6.1-12-15.8-25.5-16.8-27l-0.1-0.1c0.8,0.8,16.4,17,17.6,24.5c0-0.2,0.1-0.5,0.1-0.7
		c0.2-1.1,0.3-2.2,0.4-3.2c0.1-2.1-2.1-2.6-0.2-5.8c1.9-3.2,1.4-7.5-3.6-9.7c-5.1-2.2-4.8-3.9-6.1-7.1c-1.4-3.5-5.3-0.4-6.2-3.1
		C-23.6-43.5-27.9-43.1-29.2-42.9z" />
		<path class="st5" d="M-53.4,2.7l-0.1,0c0,0,0,0.1,0.1,0.2c0,0.1-0.1,0.2-0.1,0.2l0.1,0c0.5,1.1,2.2,4.9,4.5,4.4
		c2.7-0.6,2,4.1,5.5,3.6c3.2-0.5,4.4-1.5,8.7,1.6c4.2,3,7.9,1.4,9.6-1.7c1.8-3,3.2-1.5,4.9-2.6c0.8-0.6,1.6-1.2,2.5-1.9
		c0.2-0.1,0.5-0.4,0.5-0.4s2.2-2.6,1.4-3.7c-0.8-1.1,0.2,0,0.3,0c0,0,7,1.1,9.2,2.8c2.3,1.7-0.5-2.6,0.8-3c1-0.3-5.6-0.7-10-0.8
		l0-0.1c-12.7-0.7-28.3,0.8-30,1l-0.1,0c1-0.3,21.6-5.4,28.3-2.8c-0.2-0.2-0.3-0.3-0.5-0.4c-0.8-0.7-1.6-1.3-2.5-1.9
		c-1.6-1.1-3.1,0.5-4.9-2.6c-1.8-3-5.4-4.7-9.6-1.7c-4.2,3.1-5.4,2.1-8.7,1.6c-3.5-0.5-2.8,4.2-5.5,3.6C-51.2-2.2-52.9,1.5-53.4,2.7
		z" />
		<path class="st6" d="M-27.5,44l-0.1,0.1c0,0,0.1,0,0.2,0c0.1,0.1,0.1,0.1,0.1,0.1l0.1-0.1c1.1,0.1,5.1,0.5,5.7-1.6
		c0.8-2.4,4.3,0.3,5.5-2.8c1.1-2.9,0.9-4.3,5.4-6.3c4.5-2,4.8-5.8,3.2-8.6c-1.7-2.9,0.3-3.3,0.2-5.2c-0.1-0.9-0.2-1.9-0.4-2.9
		c0-0.2-0.1-0.6-0.1-0.6s-1.1-3-2.4-2.9c-1.3,0.2,0.1-0.1,0.2-0.2c0,0,4.2-5.2,6.6-6.2c2.5-1.1-2.3-0.8-2-2.1c0.2-1-3.2,4.2-5.4,7.8
		l0,0c-6.6,10-12.7,23.6-13.3,25l0,0.1c0.3-1,5.8-20.2,11.1-24.5c-0.2,0.1-0.4,0.1-0.6,0.2c-1,0.3-1.8,0.7-2.7,1.1
		c-1.7,0.8-1.1,2.8-4.4,2.8c-3.3,0-6.4,2.2-5.9,7.1c0.5,4.9-0.8,5.4-2.8,7.8c-2.1,2.6,2.1,4.3,0.4,6.2C-30.5,39.9-28.2,43.1-27.5,44
		z" />
		<path class="st7" d="M17.7,41L17.7,41c0.1,0.1,0.1,0,0.1,0c0.1,0,0.1,0,0.1,0L18,40.8c0.6-0.8,2.7-3.8,1.4-5.2
		c-1.6-1.7,2.2-3.3,0.3-5.6c-1.8-2.2-3-2.7-2.5-7.2c0.5-4.4-2.4-6.5-5.4-6.5c-3,0-2.5-1.8-4-2.5c-0.8-0.4-1.6-0.7-2.5-1
		c-0.2-0.1-0.5-0.2-0.5-0.2s-2.9-0.5-3.3,0.5C1,14.2,1.3,13,1.3,12.9c0,0-2.2-5.7-1.9-8.1c0.3-2.4-1.7,1.5-2.6,0.7
		c-0.7-0.6,1.9,4.5,3.7,7.8l-0.1,0c4.9,9.7,12.8,20.8,13.7,22l0,0.1C13.6,34.7,0.9,21.5-0.1,15.4c0,0.2-0.1,0.4-0.1,0.6
		c-0.2,0.9-0.3,1.8-0.3,2.6c-0.1,1.7,1.7,2.1,0.2,4.7c-1.5,2.6-1.2,6.1,2.9,7.9c4.1,1.8,3.9,3.1,4.9,5.8c1.1,2.8,4.3,0.3,5.1,2.5
		C13.1,41.4,16.7,41.1,17.7,41z" />
	</g>
	<g transform="translate(880,380)">
		<path class="st2" d="M43.7-1.3l0.1,0c0,0,0-0.1-0.1-0.2c0-0.1,0.1-0.2,0.1-0.2l-0.1,0c-0.5-1.2-2.5-5.5-5-4.9
		c-2.9,0.6-2.2-4.6-6.1-4C29-10,27.7-8.9,23-12.3c-4.7-3.4-8.7-1.5-10.7,1.8c-2,3.4-3.6,1.6-5.4,2.9C6-7,5.1-6.3,4.1-5.5
		C4-5.4,3.6-5.1,3.6-5.1S1.1-2.1,2-1c0.9,1.2-0.2,0-0.3,0C1.7-1-6-2.2-8.6-4.1C-11.1-6-8-1.2-9.5-0.8C-10.6-0.5-3.3,0,1.6,0.1l0,0.1
		C15.7,0.9,33.1-0.8,35-1l0.1,0C34-0.7,11.1,5,3.6,2.2C3.8,2.3,4,2.5,4.1,2.7C5.1,3.5,6,4.1,6.9,4.8c1.8,1.2,3.5-0.5,5.4,2.9
		c2,3.4,6,5.2,10.7,1.8c4.7-3.4,6-2.3,9.6-1.8c3.9,0.6,3.1-4.7,6.1-4C41.2,4.2,43.2,0,43.7-1.3z" />
		<path class="st3" d="M14.3-46.2l0.1-0.1c0,0-0.1,0-0.2,0c-0.1-0.1-0.1-0.1-0.1-0.1L14-46.3c-1.2-0.2-5.5-0.5-6.2,1.7
		c-0.9,2.7-4.7-0.4-6,3c-1.2,3.1-1,4.7-5.9,6.9c-4.9,2.2-5.3,6.3-3.5,9.4c1.8,3.1-0.4,3.6-0.2,5.6c0.1,1,0.2,2,0.4,3.1
		c0,0.2,0.1,0.7,0.1,0.7s1.2,3.3,2.6,3.1c1.4-0.2-0.1,0.2-0.2,0.2c0,0-4.5,5.6-7.2,6.8c-2.7,1.1,2.6,0.9,2.2,2.2
		c-0.3,1,3.5-4.6,5.9-8.5l0,0C3.1-22.8,9.8-37.5,10.5-39.1l0.1-0.1c-0.3,1.1-6.3,22-12,26.7c0.2-0.1,0.4-0.1,0.6-0.2
		c1.1-0.4,2-0.8,2.9-1.2c1.8-0.9,1.2-3,4.8-3c3.6,0,7-2.4,6.4-7.7c-0.6-5.3,0.9-5.9,3-8.5c2.3-2.8-2.3-4.7-0.4-6.7
		C17.5-41.7,15.1-45.2,14.3-46.2z" />
		<path class="st4" d="M-35.2-43.4l-0.1-0.1c0,0,0,0-0.1,0.1c-0.1,0-0.2,0-0.2,0l0.1,0.1c-0.7,0.9-3,4.1-1.5,5.8
		c1.7,1.9-2.5,3.6-0.4,6.2c1.9,2.4,3.3,2.9,2.8,7.9c-0.5,4.9,2.6,7.1,5.9,7.1c3.3,0,2.7,2,4.4,2.8c0.8,0.4,1.7,0.8,2.7,1.1
		c0.2,0.1,0.6,0.2,0.6,0.2s3.2,0.6,3.7-0.6c0.5-1.2,0.1,0.2,0.1,0.3c0,0,2.4,6.2,2.1,8.9c-0.3,2.7,1.9-1.6,2.8-0.7
		c0.7,0.7-2-4.9-4.1-8.6l0.1,0c-5.4-10.7-14.1-22.9-15.1-24.2l-0.1-0.1c0.7,0.7,14.6,15.2,15.8,21.9c0-0.2,0.1-0.4,0.1-0.6
		c0.2-1,0.3-2,0.4-2.9c0.1-1.9-1.9-2.3-0.2-5.2c1.7-2.9,1.3-6.7-3.2-8.7c-4.5-2-4.3-3.5-5.4-6.3c-1.2-3.1-4.8-0.3-5.6-2.8
		C-30.1-43.9-34-43.6-35.2-43.4z" />
		<path class="st5" d="M-55.8-2.6l-0.1,0c0,0,0,0.1,0.1,0.1c0,0.1-0.1,0.1-0.1,0.1l0.1,0c0.4,1,1.9,4.3,3.9,3.9
		c2.3-0.5,1.7,3.6,4.8,3.2c2.8-0.4,3.9-1.3,7.6,1.4c3.7,2.7,6.9,1.2,8.4-1.4c1.5-2.7,2.8-1.3,4.3-2.2c0.7-0.5,1.4-1,2.1-1.6
		c0.1-0.1,0.4-0.4,0.4-0.4s1.9-2.3,1.2-3.2c-0.7-0.9,0.2,0,0.3,0c0,0,6.1,0.9,8.1,2.4c2,1.5-0.4-2.3,0.7-2.6
		c0.9-0.3-4.9-0.6-8.7-0.7l0,0C-33.8-4.3-47.5-3-49-2.8l-0.1,0c0.9-0.2,18.9-4.7,24.8-2.5c-0.1-0.1-0.3-0.3-0.4-0.4
		c-0.7-0.6-1.4-1.1-2.1-1.6c-1.4-1-2.7,0.4-4.3-2.2c-1.5-2.7-4.7-4.1-8.4-1.4c-3.7,2.7-4.7,1.8-7.6,1.4c-3.1-0.5-2.5,3.7-4.8,3.2
		C-53.9-6.9-55.4-3.6-55.8-2.6z" />
		<path class="st6" d="M-32.7,32.8L-32.7,32.8c0,0.1,0,0.1,0.1,0.1c0,0.1,0.1,0.1,0.1,0.1l0-0.1c1,0.1,4.3,0.4,4.9-1.4
		c0.7-2.1,3.7,0.3,4.7-2.4c1-2.5,0.8-3.7,4.6-5.4c3.8-1.7,4.1-4.9,2.7-7.4c-1.4-2.5,0.3-2.9,0.2-4.4c-0.1-0.8-0.2-1.6-0.3-2.5
		c0-0.2-0.1-0.5-0.1-0.5s-0.9-2.6-2-2.5c-1.1,0.1,0.1-0.1,0.1-0.2c0,0,3.6-4.4,5.7-5.3c2.1-0.9-2-0.7-1.7-1.8
		c0.2-0.8-2.8,3.6-4.6,6.7l0,0c-5.6,8.6-10.9,20.2-11.4,21.4l0,0.1c0.2-0.8,5-17.3,9.5-21c-0.2,0.1-0.3,0.1-0.5,0.2
		c-0.8,0.3-1.6,0.6-2.3,1c-1.4,0.7-0.9,2.4-3.8,2.4c-2.8,0-5.5,1.9-5,6.1c0.4,4.2-0.7,4.6-2.4,6.7c-1.8,2.2,1.8,3.7,0.3,5.3
		C-35.2,29.2-33.3,32-32.7,32.8z" />
		<path class="st7"
			d="M6.3,30.7L6.3,30.7c0.1,0.1,0.1,0,0.1,0c0.1,0,0.1,0,0.1,0l0-0.1C7,29.8,8.8,27.3,7.7,26
		c-1.4-1.5,1.9-2.8,0.3-4.9c-1.5-1.9-2.6-2.3-2.2-6.2c0.4-3.8-2-5.6-4.7-5.6c-2.6,0-2.2-1.5-3.5-2.2c-0.7-0.3-1.4-0.6-2.1-0.9
		C-4.7,6.2-5,6-5,6s-2.5-0.4-2.9,0.5C-8.3,7.4-7.9,6.4-8,6.3c0,0-1.9-4.9-1.7-7c0.2-2.1-1.5,1.3-2.2,0.6c-0.6-0.5,1.6,3.9,3.2,6.8
		l0,0c4.3,8.5,11.1,18,11.9,19.1l0,0.1C2.7,25.2-8.3,13.8-9.2,8.5c0,0.2-0.1,0.3-0.1,0.5c-0.2,0.8-0.2,1.6-0.3,2.3
		c-0.1,1.5,1.5,1.8,0.2,4.1c-1.3,2.3-1,5.3,2.5,6.8c3.6,1.6,3.4,2.7,4.3,5c1,2.5,3.8,0.3,4.4,2.2C2.3,31,5.4,30.8,6.3,30.7z" />
	</g>
	<g transform="translate(700,450)">
		<path class="st2" d="M53.2-6l0.1,0c0,0,0-0.1-0.1-0.2c0-0.1,0.1-0.2,0.1-0.2l-0.1,0c-0.5-1.2-2.4-5.2-4.8-4.7
		c-2.8,0.6-2.1-4.4-5.8-3.8c-3.4,0.5-4.7,1.6-9.2-1.7c-4.4-3.2-8.3-1.5-10.2,1.8c-1.9,3.2-3.4,1.6-5.2,2.7c-0.9,0.6-1.7,1.2-2.6,2
		c-0.2,0.2-0.5,0.5-0.5,0.5s-2.3,2.8-1.5,3.9c0.9,1.1-0.2,0-0.3,0c0,0-7.4-1.2-9.8-3c-2.4-1.8,0.5,2.7-0.9,3.1
		C1.3-5.2,8.3-4.7,13-4.7l0,0.1c13.4,0.7,30.1-0.9,31.9-1.1l0.1,0c-1.1,0.3-23,5.7-30.1,3c0.2,0.2,0.3,0.3,0.5,0.5
		c0.9,0.8,1.7,1.4,2.6,2c1.7,1.2,3.3-0.5,5.2,2.7c1.9,3.2,5.8,5,10.2,1.8C37.9,1,39.2,2,42.6,2.6c3.7,0.6,3-4.4,5.8-3.8
		C50.8-0.8,52.7-4.8,53.2-6z" />
		<path class="st3" d="M26.3-50.9l0.1-0.1c0,0-0.1,0-0.2,0c-0.1-0.1-0.1-0.1-0.1-0.1L26-51c-1.2-0.2-5.5-0.5-6.2,1.7
		c-0.9,2.7-4.7-0.4-6,3c-1.2,3.1-1,4.7-5.9,6.9C3-37.2,2.6-33.1,4.4-30c1.8,3.1-0.4,3.6-0.2,5.6c0.1,1,0.2,2,0.4,3.1
		c0,0.2,0.1,0.7,0.1,0.7s1.2,3.3,2.6,3.1c1.4-0.2-0.1,0.2-0.2,0.2c0,0-4.5,5.6-7.2,6.8c-2.7,1.2,2.6,0.9,2.2,2.2
		c-0.3,1,3.5-4.6,5.9-8.5l0,0c7.1-10.9,13.8-25.6,14.5-27.2l0.1-0.1c-0.3,1.1-6.3,22-12.1,26.7c0.2-0.1,0.4-0.1,0.6-0.2
		c1.1-0.4,2-0.8,2.9-1.2c1.8-0.9,1.2-3,4.8-3c3.6,0,7-2.4,6.4-7.7c-0.6-5.3,0.9-5.9,3-8.5c2.3-2.8-2.3-4.7-0.4-6.7
		C29.5-46.4,27.1-49.9,26.3-50.9z" />
		<path class="st4" d="M-24.8-50.9l-0.1-0.1c0,0,0,0.1-0.1,0.1c-0.1,0-0.2,0-0.2,0l0.1,0.1c-0.7,1-3.2,4.4-1.6,6.2
		c1.8,2-2.6,3.8-0.4,6.6c2.1,2.6,3.5,3.2,3,8.4c-0.6,5.2,2.8,7.6,6.3,7.6c3.5,0,2.9,2.1,4.7,3c0.9,0.4,1.8,0.8,2.9,1.2
		c0.2,0.1,0.6,0.2,0.6,0.2s3.4,0.6,3.9-0.6c0.5-1.3,0.1,0.2,0.1,0.3c0,0,2.6,6.7,2.2,9.5c-0.3,2.9,2-1.8,3-0.8
		c0.8,0.7-2.2-5.3-4.3-9.2l0.1,0c-5.8-11.5-15.1-24.4-16.1-25.8l-0.1-0.1C-19.9-43.5-5-28.1-3.8-20.9c0-0.2,0.1-0.4,0.1-0.7
		c0.2-1.1,0.3-2.1,0.4-3.1c0.1-2-2-2.5-0.2-5.6c1.8-3.1,1.4-7.1-3.4-9.3c-4.8-2.1-4.6-3.7-5.8-6.8c-1.3-3.3-5.1-0.4-5.9-3
		C-19.4-51.5-23.6-51.1-24.8-50.9z" />
		<path class="st5"
			d="M-46.6-7.3l-0.1,0c0,0,0,0.1,0.1,0.1c0,0.1-0.1,0.1-0.1,0.1l0.1,0c0.4,1,2.1,4.6,4.2,4.1
		c2.5-0.5,1.9,3.9,5.1,3.4c3-0.5,4.1-1.4,8.1,1.5c3.9,2.8,7.3,1.3,8.9-1.5c1.6-2.8,3-1.4,4.5-2.4c0.8-0.5,1.5-1.1,2.3-1.7
		c0.2-0.1,0.5-0.4,0.5-0.4s2.1-2.4,1.3-3.4c-0.8-1,0.2,0,0.3,0c0,0,6.5,1,8.6,2.6c2.1,1.6-0.5-2.4,0.8-2.7c0.9-0.3-5.2-0.7-9.3-0.8
		l0-0.1c-11.8-0.6-26.4,0.8-27.9,0.9l-0.1,0c1-0.2,20.1-5,26.4-2.6c-0.2-0.1-0.3-0.3-0.5-0.4c-0.8-0.7-1.5-1.2-2.3-1.7
		c-1.5-1-2.9,0.4-4.5-2.4c-1.6-2.8-5-4.4-8.9-1.5c-3.9,2.9-5,2-8.1,1.5c-3.3-0.5-2.6,3.9-5.1,3.4C-44.5-11.8-46.1-8.3-46.6-7.3z" />
		<path class="st6"
			d="M-21.9,30.1L-21.9,30.1c-0.1,0.1,0,0.1,0.1,0.1c0.1,0.1,0.1,0.1,0.1,0.1l0.1-0.1c1,0.1,4.6,0.5,5.2-1.4
		c0.7-2.2,3.9,0.3,5-2.5c1-2.6,0.8-3.9,4.9-5.7c4-1.8,4.4-5.2,2.9-7.8c-1.5-2.6,0.3-3,0.2-4.7c-0.1-0.8-0.2-1.7-0.3-2.6
		C-3.9,5.3-4,4.9-4,4.9s-1-2.8-2.1-2.6C-7.2,2.4-6,2.1-5.9,2.1c0,0,3.8-4.7,6-5.6c2.2-1-2.1-0.7-1.8-1.9c0.2-0.9-2.9,3.8-4.9,7.1
		l0,0c-5.9,9.1-11.5,21.3-12.1,22.7l0,0.1c0.3-0.9,5.3-18.3,10-22.2c-0.2,0.1-0.4,0.1-0.5,0.2c-0.9,0.3-1.7,0.7-2.4,1
		c-1.5,0.7-1,2.5-4,2.5c-3,0-5.8,2-5.3,6.4c0.5,4.4-0.8,4.9-2.5,7.1c-1.9,2.4,1.9,3.9,0.3,5.6C-24.6,26.4-22.5,29.3-21.9,30.1z" />
		<path class="st7" d="M19.2,27.6L19.2,27.6c0.1,0.1,0.1,0,0.1,0c0.1,0,0.1,0,0.1,0l-0.1-0.1c0.6-0.7,2.5-3.4,1.2-4.8
		c-1.4-1.6,2-3,0.3-5.1c-1.6-2-2.7-2.4-2.3-6.5c0.4-4-2.1-5.9-4.9-5.9c-2.7,0-2.3-1.6-3.6-2.3C9.4,2.5,8.7,2.2,7.8,1.9
		C7.7,1.9,7.4,1.8,7.4,1.8s-2.6-0.5-3,0.5c-0.4,1-0.1-0.1-0.1-0.2c0,0-2-5.1-1.7-7.4c0.3-2.2-1.6,1.4-2.3,0.6
		c-0.6-0.6,1.7,4.1,3.4,7.1l0,0c4.5,8.9,11.7,18.9,12.5,20l0,0.1C15.4,21.8,3.9,9.9,2.9,4.3c0,0.2-0.1,0.3-0.1,0.5
		C2.7,5.7,2.6,6.4,2.5,7.2c-0.1,1.5,1.5,1.9,0.2,4.3c-1.4,2.4-1.1,5.5,2.6,7.2c3.7,1.7,3.6,2.9,4.5,5.3c1,2.6,3.9,0.3,4.6,2.3
		C15,28,18.2,27.7,19.2,27.6z" />
	</g>
	<g transform="translate(700,570)">
		<path class="st2" d="M17-14.4L17-14.4C17-14.4,17-14.5,17-14.4c0-0.1,0-0.1,0-0.1l0,0c-0.2-0.4-0.8-1.7-1.5-1.5
		c-0.9,0.2-0.7-1.4-1.9-1.2c-1.1,0.2-1.5,0.5-2.9-0.5c-1.4-1-2.7-0.5-3.3,0.6c-0.6,1-1.1,0.5-1.6,0.9c-0.3,0.2-0.6,0.4-0.8,0.6
		c-0.1,0-0.2,0.1-0.2,0.1S4-14.7,4.3-14.3c0.3,0.4-0.1,0-0.1,0c0,0-2.4-0.4-3.1-0.9c-0.8-0.6,0.2,0.9-0.3,1
		c-0.3,0.1,1.9,0.3,3.4,0.3l0,0c4.3,0.2,9.6-0.3,10.2-0.3l0,0c-0.4,0.1-7.3,1.8-9.6,1c0.1,0.1,0.1,0.1,0.2,0.1
		c0.3,0.2,0.6,0.4,0.8,0.6c0.6,0.4,1.1-0.2,1.6,0.9c0.6,1,1.8,1.6,3.3,0.6c1.4-1,1.8-0.7,2.9-0.5c1.2,0.2,1-1.4,1.9-1.2
		C16.2-12.8,16.8-14.1,17-14.4z" />
		<path class="st3" d="M8.7-29.2L8.7-29.2C8.7-29.3,8.7-29.3,8.7-29.2C8.6-29.3,8.6-29.3,8.7-29.2L8.7-29.2c-0.5-0.1-1.9-0.2-2.1,0.5
		c-0.3,0.9-1.6-0.1-2,1c-0.4,1-0.3,1.5-1.9,2.3c-1.6,0.7-1.7,2.1-1.1,3.1c0.6,1-0.1,1.2-0.1,1.9c0,0.3,0.1,0.7,0.1,1
		c0,0.1,0,0.2,0,0.2s0.4,1.1,0.8,1c0.4-0.1,0,0.1-0.1,0.1c0,0-1.5,1.9-2.4,2.2c-0.9,0.4,0.8,0.3,0.7,0.7c-0.1,0.3,1.2-1.5,1.9-2.8
		l0,0c2.3-3.6,4.5-8.5,4.8-9l0,0c-0.1,0.3-2.1,7.2-4,8.8c0.1,0,0.1,0,0.2-0.1c0.4-0.1,0.7-0.3,1-0.4c0.6-0.3,0.4-1,1.6-1
		c1.2,0,2.3-0.8,2.1-2.5c-0.2-1.8,0.3-1.9,1-2.8c0.7-0.9-0.7-1.5-0.1-2.2C9.7-27.8,8.9-28.9,8.7-29.2z" />
		<path class="st4" d="M-8.3-29.5L-8.3-29.5C-8.3-29.5-8.3-29.5-8.3-29.5c-0.1,0-0.1,0-0.1,0L-8.3-29.5c-0.3,0.4-1.2,1.5-0.6,2.1
		c0.6,0.7-0.9,1.3-0.1,2.2c0.7,0.9,1.2,1.1,1,2.8c-0.2,1.7,0.9,2.5,2.1,2.5c1.2,0,1,0.7,1.6,1c0.3,0.1,0.6,0.3,1,0.4
		c0.1,0,0.2,0.1,0.2,0.1s1.1,0.2,1.3-0.2c0.2-0.4,0,0.1,0,0.1c0,0,0.9,2.2,0.7,3.2c-0.1,1,0.7-0.6,1-0.3c0.3,0.2-0.7-1.8-1.5-3.1
		l0,0c-1.9-3.8-5-8.2-5.4-8.6l0,0c0.3,0.3,5.2,5.4,5.6,7.8c0-0.1,0-0.1,0-0.2c0.1-0.4,0.1-0.7,0.1-1c0-0.7-0.7-0.8-0.1-1.9
		c0.6-1,0.5-2.4-1.1-3.1c-1.6-0.7-1.5-1.2-1.9-2.3c-0.4-1.1-1.7-0.1-2-1C-6.5-29.6-7.9-29.5-8.3-29.5z" />
		<path class="st5"
			d="M-17-14.9L-17-14.9C-17-14.9-17-14.9-17-14.9c0,0.1,0,0.1,0,0.1l0,0c0.2,0.4,0.8,1.7,1.5,1.5
		c0.9-0.2,0.7,1.4,1.9,1.2c1.1-0.2,1.5-0.5,2.9,0.5c1.4,1,2.7,0.5,3.3-0.6c0.6-1,1.1-0.5,1.6-0.9c0.3-0.2,0.6-0.4,0.8-0.6
		c0.1,0,0.2-0.1,0.2-0.1S-4-14.6-4.3-15c-0.3-0.4,0.1,0,0.1,0c0,0,2.4,0.4,3.1,0.9c0.8,0.6-0.2-0.9,0.3-1c0.3-0.1-1.9-0.3-3.4-0.3
		l0,0c-4.3-0.2-9.6,0.3-10.2,0.3l0,0c0.4-0.1,7.3-1.8,9.6-1C-4.8-16-4.9-16-4.9-16.1c-0.3-0.2-0.6-0.4-0.8-0.6
		c-0.6-0.4-1.1,0.2-1.6-0.9c-0.6-1-1.8-1.6-3.3-0.6c-1.4,1-1.8,0.7-2.9,0.5c-1.2-0.2-1,1.4-1.9,1.2C-16.2-16.5-16.8-15.3-17-14.9z" />
		<path class="st6" d="M-8.7-0.1L-8.7-0.1C-8.7-0.1-8.7-0.1-8.7-0.1C-8.6,0-8.6,0-8.7-0.1L-8.7-0.1C-8.2,0-6.8,0.1-6.5-0.6
		c0.3-0.9,1.6,0.1,2-1c0.4-1,0.3-1.5,1.9-2.3C-1-4.6-0.9-5.9-1.5-7c-0.6-1,0.1-1.2,0.1-1.9c0-0.3-0.1-0.7-0.1-1c0-0.1,0-0.2,0-0.2
		s-0.4-1.1-0.8-1c-0.4,0.1,0-0.1,0.1-0.1c0,0,1.5-1.9,2.4-2.2c0.9-0.4-0.8-0.3-0.7-0.7c0.1-0.3-1.2,1.5-1.9,2.8l0,0
		C-5-7.8-7.2-3-7.4-2.4l0,0c0.1-0.3,2.1-7.2,4-8.8c-0.1,0-0.1,0-0.2,0.1c-0.4,0.1-0.7,0.3-1,0.4c-0.6,0.3-0.4,1-1.6,1
		c-1.2,0-2.3,0.8-2.1,2.5c0.2,1.8-0.3,1.9-1,2.8c-0.7,0.9,0.7,1.5,0.1,2.2C-9.7-1.6-8.9-0.4-8.7-0.1z" />
		<path class="st7" d="M8.3,0.1L8.3,0.1C8.3,0.2,8.3,0.2,8.3,0.1c0.1,0,0.1,0,0.1,0L8.3,0.1C8.6-0.2,9.4-1.4,8.9-2
		C8.3-2.7,9.8-3.3,9-4.2C8.3-5.1,7.9-5.3,8-7c0.2-1.7-0.9-2.5-2.1-2.5c-1.2,0-1-0.7-1.6-1c-0.3-0.1-0.6-0.3-1-0.4
		C3.3-11,3.2-11,3.2-11S2-11.2,1.9-10.8c-0.2,0.4,0-0.1,0-0.1c0,0-0.9-2.2-0.7-3.2c0.1-1-0.7,0.6-1,0.3c-0.3-0.2,0.7,1.8,1.5,3.1
		l0,0c1.9,3.8,5,8.2,5.4,8.6l0,0C6.7-2.3,1.7-7.5,1.3-9.9c0,0.1,0,0.1,0,0.2C1.2-9.3,1.1-9,1.1-8.7C1-8,1.8-7.8,1.2-6.8
		c-0.6,1-0.5,2.4,1.1,3.1C3.9-3,3.8-2.5,4.2-1.4c0.4,1.1,1.7,0.1,2,1C6.5,0.3,7.9,0.2,8.3,0.1z" />
	</g>
	<g transform="translate(750,650)">
		<path class="st2" d="M13.7-19.8L13.7-19.8C13.7-19.8,13.7-19.8,13.7-19.8c0-0.1,0-0.1,0-0.1l0,0c-0.2-0.4-0.8-1.7-1.5-1.5
		c-0.9,0.2-0.7-1.4-1.9-1.2c-1.1,0.2-1.5,0.5-2.9-0.5c-1.4-1-2.7-0.5-3.3,0.6c-0.6,1-1.1,0.5-1.7,0.9c-0.3,0.2-0.6,0.4-0.8,0.6
		c-0.1,0-0.2,0.1-0.2,0.1S0.7-20,0.9-19.7c0.3,0.4-0.1,0-0.1,0c0,0-2.4-0.4-3.1-0.9c-0.8-0.6,0.2,0.9-0.3,1
		c-0.3,0.1,1.9,0.3,3.4,0.3l0,0c4.3,0.2,9.6-0.3,10.2-0.3l0,0c-0.4,0.1-7.3,1.8-9.6,1c0.1,0.1,0.1,0.1,0.2,0.2
		c0.3,0.2,0.6,0.4,0.8,0.6c0.6,0.4,1.1-0.2,1.7,0.9c0.6,1,1.8,1.6,3.3,0.6c1.4-1,1.8-0.7,2.9-0.5c1.2,0.2,1-1.4,1.9-1.2
		C12.9-18.1,13.5-19.4,13.7-19.8z" />
		<path class="st3" d="M5.4-34.6L5.4-34.6C5.4-34.6,5.4-34.6,5.4-34.6C5.3-34.7,5.3-34.7,5.4-34.6L5.4-34.6c-0.5-0.1-1.9-0.2-2.1,0.5
		c-0.3,0.9-1.6-0.1-2,1c-0.4,1-0.3,1.6-1.9,2.3c-1.6,0.7-1.7,2.1-1.1,3.1c0.6,1-0.1,1.2-0.1,1.9c0,0.3,0.1,0.7,0.1,1
		c0,0.1,0,0.2,0,0.2s0.4,1.1,0.8,1c0.5-0.1,0,0.1-0.1,0.1c0,0-1.5,1.9-2.4,2.2c-0.9,0.4,0.8,0.3,0.7,0.7c-0.1,0.3,1.2-1.5,1.9-2.8
		l0,0c2.4-3.6,4.6-8.5,4.8-9l0,0C4-31.9,2-25,0.1-23.5c0.1,0,0.1,0,0.2-0.1c0.4-0.1,0.7-0.3,1-0.4c0.6-0.3,0.4-1,1.6-1
		c1.2,0,2.3-0.8,2.1-2.5c-0.2-1.8,0.3-1.9,1-2.8c0.7-0.9-0.7-1.5-0.1-2.2C6.4-33.1,5.6-34.3,5.4-34.6z" />
		<path class="st4"
			d="M-11.6-34.8L-11.6-34.8C-11.7-34.9-11.7-34.8-11.6-34.8c-0.1,0-0.1,0-0.1,0L-11.6-34.8
		c-0.3,0.4-1.2,1.5-0.6,2.1c0.6,0.7-0.9,1.3-0.1,2.2c0.7,0.9,1.2,1.1,1,2.8c-0.2,1.7,0.9,2.5,2.1,2.5c1.2,0,1,0.7,1.6,1
		c0.3,0.1,0.6,0.3,1,0.4c0.1,0,0.2,0.1,0.2,0.1s1.1,0.2,1.3-0.2c0.2-0.4,0,0.1,0,0.1c0,0,0.9,2.2,0.7,3.2c-0.1,1,0.7-0.6,1-0.3
		c0.3,0.2-0.7-1.8-1.5-3.1l0,0c-1.9-3.8-5.1-8.2-5.4-8.6l0,0c0.3,0.3,5.2,5.4,5.6,7.8c0-0.1,0-0.1,0-0.2c0.1-0.4,0.1-0.7,0.1-1
		c0-0.7-0.7-0.8-0.1-1.9c0.6-1,0.5-2.4-1.1-3.1c-1.6-0.7-1.5-1.2-1.9-2.3c-0.4-1.1-1.7-0.1-2-1C-9.8-35-11.2-34.9-11.6-34.8z" />
		<path class="st5" d="M-20.3-20.2L-20.3-20.2C-20.4-20.2-20.3-20.2-20.3-20.2c0,0.1,0,0.1,0,0.1l0,0c0.2,0.4,0.8,1.7,1.5,1.5
		c0.9-0.2,0.7,1.4,1.9,1.2c1.1-0.2,1.5-0.5,2.9,0.5c1.4,1,2.7,0.5,3.3-0.6c0.6-1,1.1-0.5,1.7-0.9c0.3-0.2,0.6-0.4,0.8-0.6
		c0.1,0,0.2-0.1,0.2-0.1s0.7-0.9,0.5-1.2c-0.3-0.4,0.1,0,0.1,0c0,0,2.4,0.4,3.1,0.9c0.8,0.6-0.2-0.9,0.3-1c0.3-0.1-1.9-0.3-3.4-0.3
		l0,0c-4.3-0.2-9.6,0.3-10.2,0.3l0,0c0.4-0.1,7.3-1.8,9.6-1c-0.1-0.1-0.1-0.1-0.2-0.2c-0.3-0.2-0.6-0.4-0.8-0.6
		c-0.6-0.4-1.1,0.2-1.7-0.9c-0.6-1-1.8-1.6-3.3-0.6c-1.4,1-1.8,0.7-2.9,0.5c-1.2-0.2-1,1.4-1.9,1.2C-19.6-21.9-20.2-20.6-20.3-20.2z
		" />
		<path class="st6" d="M-12-5.4L-12-5.4C-12-5.4-12-5.4-12-5.4C-12-5.3-11.9-5.3-12-5.4L-12-5.4c0.5,0.1,1.9,0.2,2.1-0.5
		c0.3-0.9,1.6,0.1,2-1c0.4-1,0.3-1.6,1.9-2.3c1.6-0.7,1.7-2.1,1.1-3.1c-0.6-1,0.1-1.2,0.1-1.9c0-0.3-0.1-0.7-0.1-1
		c0-0.1,0-0.2,0-0.2s-0.4-1.1-0.8-1c-0.5,0.1,0-0.1,0.1-0.1c0,0,1.5-1.9,2.4-2.2c0.9-0.4-0.8-0.3-0.7-0.7c0.1-0.3-1.2,1.5-1.9,2.8
		l0,0c-2.4,3.6-4.6,8.5-4.8,9l0,0c0.1-0.3,2.1-7.3,4-8.8c-0.1,0-0.1,0-0.2,0.1c-0.4,0.1-0.7,0.3-1,0.4c-0.6,0.3-0.4,1-1.6,1
		c-1.2,0-2.3,0.8-2.1,2.5c0.2,1.8-0.3,1.9-1,2.8c-0.7,0.9,0.7,1.5,0.1,2.2C-13.1-6.9-12.3-5.7-12-5.4z" />
		<path class="st7" d="M5-5.2L5-5.2C5-5.1,5-5.2,5-5.2c0.1,0,0.1,0,0.1,0L5-5.2c0.3-0.4,1.2-1.5,0.6-2.1C5-8,6.5-8.6,5.7-9.5
		c-0.7-0.9-1.2-1.1-1-2.8c0.2-1.7-0.9-2.5-2.1-2.5c-1.2,0-1-0.7-1.6-1c-0.3-0.1-0.6-0.3-1-0.4c-0.1,0-0.2-0.1-0.2-0.1
		s-1.1-0.2-1.3,0.2c-0.2,0.4,0-0.1,0-0.1c0,0-0.9-2.2-0.7-3.2c0.1-1-0.7,0.6-1,0.3c-0.3-0.2,0.7,1.8,1.5,3.1l0,0
		c1.9,3.8,5.1,8.2,5.4,8.6l0,0c-0.3-0.3-5.2-5.4-5.6-7.8c0,0.1,0,0.1,0,0.2c-0.1,0.4-0.1,0.7-0.1,1c0,0.7,0.7,0.8,0.1,1.9
		C-2.8-11.1-2.6-9.7-1-9c1.6,0.7,1.5,1.2,1.9,2.3c0.4,1.1,1.7,0.1,2,1C3.1-5,4.6-5.1,5-5.2z" />
	</g>
	<g transform="translate(980,520)">
		<path class="st2"
			d="M-1.1-11.1L-1.1-11.1C-1.1-11.1-1.1-11.1-1.1-11.1c0-0.1,0-0.1,0-0.1l0,0c-0.2-0.4-0.8-1.7-1.6-1.5
		c-0.9,0.2-0.7-1.5-1.9-1.3c-1.1,0.2-1.6,0.5-3-0.6c-1.5-1.1-2.8-0.5-3.4,0.6c-0.6,1.1-1.1,0.5-1.7,0.9c-0.3,0.2-0.6,0.4-0.9,0.7
		c-0.1,0.1-0.2,0.2-0.2,0.2s-0.8,0.9-0.5,1.3c0.3,0.4-0.1,0-0.1,0c0,0-2.4-0.4-3.2-1c-0.8-0.6,0.2,0.9-0.3,1c-0.4,0.1,2,0.3,3.5,0.3
		l0,0c4.4,0.2,9.9-0.3,10.5-0.4l0,0c-0.4,0.1-7.6,1.9-9.9,1c0.1,0.1,0.1,0.1,0.2,0.2c0.3,0.3,0.6,0.5,0.9,0.7
		c0.6,0.4,1.1-0.2,1.7,0.9c0.6,1.1,1.9,1.6,3.4,0.6c1.5-1.1,1.9-0.7,3-0.6c1.2,0.2,1-1.5,1.9-1.3C-1.9-9.4-1.3-10.7-1.1-11.1z" />
		<path class="st3" d="M-9.7-26.4L-9.7-26.4C-9.7-26.4-9.7-26.4-9.7-26.4C-9.8-26.4-9.8-26.4-9.7-26.4L-9.7-26.4
		c-0.5-0.1-2-0.2-2.2,0.5c-0.3,0.9-1.6-0.1-2,1c-0.4,1.1-0.3,1.6-2,2.3c-1.7,0.7-1.8,2.1-1.2,3.2c0.6,1.1-0.1,1.2-0.1,1.9
		c0,0.3,0.1,0.7,0.1,1.1c0,0.1,0,0.2,0,0.2s0.4,1.1,0.9,1.1c0.5-0.1,0,0.1-0.1,0.1c0,0-1.5,1.9-2.5,2.3c-0.9,0.4,0.9,0.3,0.7,0.8
		c-0.1,0.4,1.2-1.6,2-2.9l0,0c2.4-3.7,4.7-8.7,4.9-9.3l0,0c-0.1,0.4-2.1,7.5-4.1,9.1c0.1,0,0.1,0,0.2-0.1c0.4-0.1,0.7-0.3,1-0.4
		c0.6-0.3,0.4-1,1.6-1c1.2,0,2.4-0.8,2.2-2.6c-0.2-1.8,0.3-2,1-2.9c0.8-1-0.8-1.6-0.1-2.3C-8.6-24.8-9.5-26-9.7-26.4z" />
		<path class="st4"
			d="M-27.2-26.5L-27.2-26.5C-27.2-26.6-27.2-26.5-27.2-26.5c-0.1,0-0.1,0-0.1,0L-27.2-26.5
		c-0.3,0.4-1.2,1.6-0.6,2.2c0.6,0.7-0.9,1.3-0.1,2.3c0.7,0.9,1.2,1.1,1,2.9c-0.2,1.8,1,2.6,2.2,2.6c1.2,0,1,0.7,1.6,1
		c0.3,0.1,0.6,0.3,1,0.4c0.1,0,0.2,0.1,0.2,0.1s1.2,0.2,1.4-0.2c0.2-0.4,0,0.1,0,0.1c0,0,0.9,2.3,0.8,3.3c-0.1,1,0.7-0.6,1-0.3
		c0.3,0.3-0.7-1.8-1.5-3.2l0,0c-2-3.9-5.2-8.4-5.5-8.9l0,0c0.3,0.3,5.4,5.6,5.8,8c0-0.1,0-0.2,0-0.2c0.1-0.4,0.1-0.7,0.1-1.1
		c0-0.7-0.7-0.9-0.1-1.9c0.6-1.1,0.5-2.5-1.2-3.2c-1.7-0.7-1.6-1.3-2-2.3c-0.4-1.1-1.8-0.1-2-1C-25.3-26.7-26.8-26.6-27.2-26.5z" />
		<path class="st5"
			d="M-36-11.6L-36-11.6C-36.1-11.6-36.1-11.5-36-11.6c0,0.1,0,0.1,0,0.1l0,0c0.2,0.4,0.8,1.7,1.6,1.5
		c0.9-0.2,0.7,1.4,1.9,1.3c1.1-0.2,1.5-0.5,3,0.6c1.5,1.1,2.7,0.5,3.3-0.6c0.6-1.1,1.1-0.5,1.7-0.9c0.3-0.2,0.6-0.4,0.9-0.7
		c0.1-0.1,0.2-0.2,0.2-0.2s0.8-0.9,0.5-1.3c-0.3-0.4,0.1,0,0.1,0c0,0,2.4,0.4,3.2,1c0.8,0.6-0.2-0.9,0.3-1c0.4-0.1-1.9-0.3-3.5-0.3
		l0,0c-4.4-0.2-9.8,0.3-10.4,0.4l0,0c0.4-0.1,7.5-1.9,9.8-1c-0.1-0.1-0.1-0.1-0.2-0.2c-0.3-0.3-0.6-0.5-0.9-0.7
		c-0.6-0.4-1.1,0.2-1.7-0.9c-0.6-1.1-1.9-1.6-3.3-0.6c-1.5,1.1-1.9,0.7-3,0.6c-1.2-0.2-1,1.5-1.9,1.3C-35.3-13.3-35.9-12-36-11.6z" />
		<path class="st6"
			d="M-27.5,3.6L-27.5,3.6C-27.6,3.6-27.5,3.6-27.5,3.6C-27.5,3.6-27.5,3.6-27.5,3.6L-27.5,3.6
		c0.5,0.1,1.9,0.2,2.2-0.5c0.3-0.9,1.6,0.1,2-1c0.4-1.1,0.3-1.6,2-2.3c1.6-0.7,1.8-2.1,1.2-3.2c-0.6-1.1,0.1-1.2,0.1-1.9
		c0-0.3-0.1-0.7-0.1-1.1c0-0.1,0-0.2,0-0.2s-0.4-1.1-0.9-1.1c-0.5,0.1,0-0.1,0.1-0.1c0,0,1.5-1.9,2.4-2.3c0.9-0.4-0.9-0.3-0.7-0.8
		c0.1-0.4-1.2,1.5-2,2.9l0,0c-2.4,3.7-4.6,8.6-4.9,9.2l0,0c0.1-0.4,2.1-7.4,4.1-9c-0.1,0-0.1,0-0.2,0.1c-0.4,0.1-0.7,0.3-1,0.4
		c-0.6,0.3-0.4,1-1.6,1c-1.2,0-2.3,0.8-2.2,2.6c0.2,1.8-0.3,2-1,2.9c-0.8,1,0.8,1.6,0.1,2.3C-28.6,2-27.8,3.2-27.5,3.6z" />
		<path class="st7" d="M-10.2,3.8L-10.2,3.8C-10.2,3.8-10.2,3.8-10.2,3.8c0.1,0,0.1,0,0.1,0L-10.2,3.8C-9.9,3.4-9,2.2-9.6,1.6
		c-0.6-0.7,0.9-1.3,0.1-2.3c-0.7-0.9-1.2-1.1-1-2.9c0.2-1.8-0.9-2.6-2.2-2.6c-1.2,0-1-0.7-1.6-1c-0.3-0.1-0.6-0.3-1-0.4
		c-0.1,0-0.2-0.1-0.2-0.1s-1.2-0.2-1.3,0.2c-0.2,0.4,0-0.1,0-0.1c0,0-0.9-2.3-0.8-3.2c0.1-1-0.7,0.6-1,0.3c-0.3-0.3,0.7,1.8,1.5,3.1
		l0,0c2,3.9,5.2,8.3,5.5,8.8l0,0c-0.3-0.3-5.3-5.5-5.7-8c0,0.1,0,0.2,0,0.2c-0.1,0.4-0.1,0.7-0.1,1.1c0,0.7,0.7,0.9,0.1,1.9
		c-0.6,1.1-0.5,2.4,1.2,3.2c1.7,0.7,1.6,1.3,2,2.3c0.4,1.1,1.7,0.1,2,1C-12.1,4-10.6,3.8-10.2,3.8z" />
	</g>
	<g transform="translate(480, 600)">
		<path class="st2" d="M57.1-16.1l0.1,0c0,0,0-0.1-0.1-0.1c0-0.1,0.1-0.1,0.1-0.1l-0.1,0c-0.4-0.9-1.9-4.1-3.8-3.7
		c-2.2,0.5-1.7-3.5-4.6-3.1c-2.7,0.4-3.8,1.2-7.3-1.4c-3.5-2.6-6.7-1.2-8.1,1.4c-1.5,2.6-2.7,1.2-4.1,2.2c-0.7,0.5-1.4,1-2.1,1.6
		c-0.1,0.1-0.4,0.4-0.4,0.4s-1.9,2.2-1.2,3.1c0.7,0.9-0.2,0-0.3,0c0,0-5.9-0.9-7.8-2.4c-1.9-1.4,0.4,2.2-0.7,2.5
		c-0.9,0.2,4.7,0.6,8.5,0.7l0,0c10.7,0.6,24-0.7,25.4-0.9l0.1,0c-0.9,0.2-18.3,4.5-24,2.4c0.1,0.1,0.3,0.3,0.4,0.4
		c0.7,0.6,1.4,1.1,2.1,1.6c1.4,0.9,2.6-0.4,4.1,2.2c1.5,2.6,4.6,4,8.1,1.4c3.6-2.6,4.6-1.8,7.3-1.4c3,0.5,2.4-3.5,4.6-3.1
		C55.2-12,56.7-15.2,57.1-16.1z" />
		<path class="st3" d="M36.4-53.1L36.4-53.1c0.1-0.1,0-0.1-0.1-0.1c-0.1-0.1-0.1-0.1-0.1-0.1l0,0.1c-1-0.1-4.5-0.5-5.1,1.4
		c-0.7,2.2-3.9-0.3-5,2.5c-1,2.6-0.8,3.9-4.8,5.7c-4,1.8-4.3,5.2-2.9,7.7c1.5,2.6-0.3,3-0.2,4.7c0.1,0.8,0.2,1.7,0.3,2.6
		c0,0.2,0.1,0.5,0.1,0.5s1,2.7,2.1,2.6c1.1-0.1-0.1,0.1-0.2,0.2c0,0-3.7,4.6-5.9,5.6c-2.2,0.9,2.1,0.7,1.8,1.9
		c-0.2,0.9,2.9-3.8,4.8-7l0,0c5.9-9,11.4-21.1,12-22.4l0-0.1c-0.2,0.9-5.2,18.1-9.9,22c0.2-0.1,0.4-0.1,0.5-0.2
		c0.9-0.3,1.7-0.6,2.4-1c1.5-0.7,1-2.5,3.9-2.5c3,0,5.7-2,5.3-6.3c-0.5-4.4,0.8-4.9,2.5-7c1.9-2.3-1.9-3.8-0.3-5.5
		C39-49.4,37-52.3,36.4-53.1z" />
		<path class="st4" d="M-6-53.7L-6-53.7c-0.1-0.1-0.1,0-0.1,0c-0.1,0-0.1,0-0.1,0l0.1,0.1c-0.6,0.8-2.7,3.7-1.3,5.2
		c1.5,1.7-2.2,3.2-0.3,5.6c1.7,2.2,3,2.6,2.5,7c-0.5,4.4,2.3,6.3,5.3,6.3c3,0,2.4,1.8,3.9,2.5c0.8,0.4,1.5,0.7,2.4,1
		c0.2,0.1,0.5,0.2,0.5,0.2s2.9,0.5,3.3-0.5c0.4-1,0.1,0.2,0.1,0.2c0,0,2.2,5.6,1.9,7.9c-0.3,2.4,1.7-1.5,2.5-0.6
		c0.6,0.6-1.8-4.4-3.6-7.7l0.1,0C6.1-36-1.7-46.9-2.5-48.1l0-0.1c0.6,0.7,13.1,13.6,14.1,19.6c0-0.2,0.1-0.4,0.1-0.6
		c0.2-0.9,0.3-1.8,0.3-2.6c0.1-1.7-1.7-2.1-0.2-4.7c1.5-2.6,1.2-6-2.9-7.7c-4-1.8-3.8-3.1-4.8-5.7c-1.1-2.8-4.3-0.3-5-2.5
		C-1.5-54.1-5-53.8-6-53.7z" />
		<path class="st5" d="M-27.7-17.2l-0.1,0c0,0,0,0.1,0.1,0.1c0,0.1-0.1,0.1-0.1,0.1l0.1,0c0.4,0.9,1.9,4.1,3.8,3.7
		c2.2-0.5,1.7,3.5,4.6,3.1c2.7-0.4,3.8-1.2,7.3,1.4c3.5,2.6,6.7,1.2,8.1-1.4c1.5-2.6,2.7-1.2,4.1-2.2c0.7-0.5,1.4-1,2.1-1.6
		c0.1-0.1,0.4-0.4,0.4-0.4s1.9-2.2,1.2-3.1c-0.7-0.9,0.2,0,0.3,0c0,0,5.9,0.9,7.8,2.4c1.9,1.4-0.4-2.2,0.7-2.5
		c0.9-0.2-4.7-0.6-8.5-0.7l0,0c-10.7-0.6-24,0.7-25.4,0.9l-0.1,0c0.9-0.2,18.3-4.5,24-2.4c-0.1-0.1-0.3-0.3-0.4-0.4
		c-0.7-0.6-1.4-1.1-2.1-1.6c-1.4-0.9-2.6,0.4-4.1-2.2c-1.5-2.6-4.6-4-8.1-1.4c-3.6,2.6-4.6,1.8-7.3,1.4c-3-0.5-2.4,3.5-4.6,3.1
		C-25.9-21.4-27.3-18.2-27.7-17.2z" />
		<path class="st6" d="M-7,19.8L-7,19.8c-0.1,0.1,0,0.1,0.1,0.1C-6.9,20-6.8,20-6.8,20l0-0.1c1,0.1,4.5,0.5,5.1-1.4
		c0.7-2.2,3.9,0.3,5-2.5c1-2.6,0.8-3.9,4.8-5.7c4-1.8,4.3-5.2,2.9-7.7c-1.5-2.6,0.3-3,0.2-4.7c-0.1-0.8-0.2-1.7-0.3-2.6
		c0-0.2-0.1-0.5-0.1-0.5S9.8-8,8.6-7.8C7.5-7.7,8.7-7.9,8.8-8c0,0,3.7-4.6,5.9-5.6c2.2-0.9-2.1-0.7-1.8-1.9c0.2-0.9-2.9,3.8-4.8,7
		l0,0c-5.9,9-11.4,21.1-12,22.4l0,0.1C-3.7,13.1,1.3-4.1,6-8C5.8-7.9,5.6-7.9,5.4-7.8C4.6-7.5,3.8-7.2,3-6.8c-1.5,0.7-1,2.5-3.9,2.5
		c-3,0-5.7,2-5.3,6.3c0.5,4.4-0.8,4.9-2.5,7c-1.9,2.3,1.9,3.8,0.3,5.5C-9.7,16.1-7.6,18.9-7,19.8z" />
		<path class="st7" d="M35.4,20.3L35.4,20.3c0.1,0.1,0.1,0,0.1,0c0.1,0,0.1,0,0.1,0l-0.1-0.1c0.6-0.8,2.7-3.7,1.3-5.2
		c-1.5-1.7,2.2-3.2,0.3-5.6c-1.7-2.2-3-2.6-2.5-7c0.5-4.4-2.3-6.3-5.3-6.3c-3,0-2.4-1.8-3.9-2.5c-0.8-0.4-1.5-0.7-2.4-1
		c-0.2-0.1-0.5-0.2-0.5-0.2S19.8-8.1,19.3-7c-0.4,1-0.1-0.2-0.1-0.2c0,0-2.2-5.6-1.9-7.9c0.3-2.4-1.7,1.5-2.5,0.6
		c-0.6-0.6,1.8,4.4,3.6,7.7l-0.1,0C23.3,2.7,31,13.6,31.9,14.7l0,0.1C31.3,14.1,18.8,1.2,17.9-4.8c0,0.2-0.1,0.4-0.1,0.6
		c-0.2,0.9-0.3,1.8-0.3,2.6C17.3,0,19.1,0.4,17.6,3c-1.5,2.6-1.2,6,2.9,7.7c4,1.8,3.8,3.1,4.8,5.7c1.1,2.8,4.3,0.3,5,2.5
		C30.8,20.8,34.4,20.5,35.4,20.3z" />
		<text transform="matrix(6.123234e-17 1 -1 6.123234e-17 66 -29.1248)" class="st8 st9">1990</text>
		<text transform="matrix(0.866 0.5 -0.5 0.866 30.0108 -64.8955)" class="st8 st9">1995</text>
		<text transform="matrix(0.866 -0.5 0.5 0.866 -22.2556 -52.4383)" class="st8 st9">2000</text>
		<text transform="matrix(6.123234e-17 -1 1 6.123234e-17 -36.667 -4.2088)" class="st8 st9">2005</text>
		<text transform="matrix(-0.866 -0.5 0.5 -0.866 -0.677 31.5619)" class="st8 st9">2010</text>
		<text transform="matrix(-0.866 0.5 -0.5 -0.866 51.5877 19.1037)" class="st8 st9">2015</text>
	</g>
</svg>