<svg data-v-aad991c2="" id="mainsvg" xmlns="http://www.w3.org/2000/svg" width="1200" height="666" viewBox="0 0 1500 750" transform="translate(28.83687438964844, 0)" style="background: white;"><g transform="translate(80, 25)"><g fill="none" font-size="10" font-family="sans-serif" text-anchor="middle" class="x-axis"><g class="tick" opacity="1" transform="translate(0,0)"><line stroke="#838378" y2="700"></line><text fill="currentColor" y="703" dy="0.71em" font-size="20px" transform="translate(0, 8)">0.6</text></g><g class="tick" opacity="1" transform="translate(226.66666666666669,0)"><line stroke="#838378" y2="700"></line><text fill="currentColor" y="703" dy="0.71em" font-size="20px" transform="translate(0, 8)">0.8</text></g><g class="tick" opacity="1" transform="translate(453.3333333333333,0)"><line stroke="#838378" y2="700"></line><text fill="currentColor" y="703" dy="0.71em" font-size="20px" transform="translate(0, 8)">1.0</text></g><g class="tick" opacity="1" transform="translate(679.9999999999999,0)"><line stroke="#838378" y2="700"></line><text fill="currentColor" y="703" dy="0.71em" font-size="20px" transform="translate(0, 8)">1.2</text></g><g class="tick" opacity="1" transform="translate(906.6666666666665,0)"><line stroke="#838378" y2="700"></line><text fill="currentColor" y="703" dy="0.71em" font-size="20px" transform="translate(0, 8)">1.4</text></g><g class="tick" opacity="1" transform="translate(1133.3333333333333,0)"><line stroke="#838378" y2="700"></line><text fill="currentColor" y="703" dy="0.71em" font-size="20px" transform="translate(0, 8)">1.6</text></g><g class="tick" opacity="1" transform="translate(1360,0)"><line stroke="#838378" y2="700"></line><text fill="currentColor" y="703" dy="0.71em" font-size="20px" transform="translate(0, 8)">1.8</text></g></g><g fill="none" font-size="10" font-family="sans-serif" text-anchor="end" class="y-axis"><g class="tick" opacity="1" transform="translate(0,0)"><line stroke="#838378" x2="1360"></line><text fill="currentColor" x="-3" dy="0.32em" font-size="20px" transform="translate(-5, 0)">80</text></g><g class="tick" opacity="1" transform="translate(0,175)"><line stroke="#838378" x2="1360"></line><text fill="currentColor" x="-3" dy="0.32em" font-size="20px" transform="translate(-5, 0)">60</text></g><g class="tick" opacity="1" transform="translate(0,350)"><line stroke="#838378" x2="1360"></line><text fill="currentColor" x="-3" dy="0.32em" font-size="20px" transform="translate(-5, 0)">40</text></g><g class="tick" opacity="1" transform="translate(0,525)"><line stroke="#838378" x2="1360"></line><text fill="currentColor" x="-3" dy="0.32em" font-size="20px" transform="translate(-5, 0)">20</text></g><g class="tick" opacity="1" transform="translate(0,700)"><line stroke="#838378" x2="1360"></line><text fill="currentColor" x="-3" dy="0.32em" font-size="20px" transform="translate(-5, 0)">0</text></g></g><g class="glyph-0" width="160" height="160.6694560669456" transform="translate(373.3333333333333,563.6652719665271),scale(0.22315202231520223,0.22315202231520223)"><path d="M397.743 42.443 C 453.793 49.681,505.043 70.369,549.336 103.636 C 618.850 155.846,663.860 233.380,674.488 319.227 C 675.320 325.944,676.000 332.916,676.000 334.720 L 676.000 338.000 597.019 338.000 L 518.038 338.000 517.566 335.750 C 517.306 334.512,515.951 328.775,514.556 323.000 C 502.193 271.842,464.332 229.293,414.473 210.526 C 384.663 199.305,349.629 197.686,316.944 206.017 C 275.216 216.654,236.639 247.399,216.596 285.992 C 208.223 302.115,203.813 314.902,199.434 335.750 L 198.962 338.000 119.981 338.000 L 41.000 338.000 41.000 334.720 C 41.000 328.788,43.977 307.245,46.558 294.499 C 69.800 179.732,156.105 85.911,268.743 52.966 C 289.596 46.867,311.409 42.920,337.000 40.616 C 346.602 39.751,386.101 40.940,397.743 42.443 " transform="translate(0, 0)" fill="#8dd3c7"></path><g class="star_plot" transform="translate(358.4277114868164,361.1592025756836)"><line class="star-axis" x1="0" y1="0" x2="6.266566499393839e-15" y2="-102.3407974243164" stroke="#aaaa" stroke-width="8" stroke-dasharray="20"></line><line class="star-axis" x1="0" y1="0" x2="88.62973041301505" y2="-51.1703987121582" stroke="#aaaa" stroke-width="8" stroke-dasharray="20"></line><line class="star-axis" x1="0" y1="0" x2="88.62973041301505" y2="51.17039871215819" stroke="#aaaa" stroke-width="8" stroke-dasharray="20"></line><line class="star-axis" x1="0" y1="0" x2="2.8990788431188835e-14" y2="102.3407974243164" stroke="#aaaa" stroke-width="8" stroke-dasharray="20"></line><line class="star-axis" x1="0" y1="0" x2="-88.62973041301504" y2="51.17039871215824" stroke="#aaaa" stroke-width="8" stroke-dasharray="20"></line><line class="star-axis" x1="0" y1="0" x2="-88.6297304130151" y2="-51.17039871215814" stroke="#aaaa" stroke-width="8" stroke-dasharray="20"></line><path class="star-path" d="M0,-102.3407974243164L49.23873911834169,-28.42799928453234L64.01036085384422,36.95639906989202L1.1836847832188363e-14,96.65519756740994L-44.31486520650752,25.585199356079123L-54.16261303017589,-31.270799212985526Z" stroke="#444" stroke-width="4" fill="black" fill-opacity="0.4"></path></g><path d="M199.549 384.750 C 203.827 409.835,212.749 432.399,226.336 452.500 C 234.723 464.907,255.696 485.776,267.958 493.913 C 317.964 527.101,377.805 531.090,430.500 504.747 C 476.953 481.525,508.332 438.220,517.451 384.750 L 518.091 381.000 597.554 381.000 L 677.017 381.000 676.447 386.750 C 669.805 453.670,647.512 510.027,607.811 560.257 C 597.404 573.424,570.424 600.404,557.257 610.811 C 512.618 646.093,460.814 668.558,404.500 677.056 C 386.598 679.757,348.704 680.790,330.448 679.073 C 266.987 673.107,209.079 649.938,159.743 610.776 C 146.787 600.492,124.276 578.457,113.661 565.668 C 71.387 514.737,46.833 454.768,40.607 387.250 L 40.031 381.000 119.470 381.000 L 198.909 381.000 199.549 384.750" transform="translate(0, 0)" fill="#8dd3c7"></path></g><g class="glyph-0" width="160" height="160.6694560669456" transform="translate(939.9999999999999,510.2902719665272),scale(0.22315202231520223,0.22315202231520223)"><path d="M397.743 42.443 C 453.793 49.681,505.043 70.369,549.336 103.636 C 618.850 155.846,663.860 233.380,674.488 319.227 C 675.320 325.944,676.000 332.916,676.000 334.720 L 676.000 338.000 597.019 338.000 L 518.038 338.000 517.566 335.750 C 517.306 334.512,515.951 328.775,514.556 323.000 C 502.193 271.842,464.332 229.293,414.473 210.526 C 384.663 199.305,349.629 197.686,316.944 206.017 C 275.216 216.654,236.639 247.399,216.596 285.992 C 208.223 302.115,203.813 314.902,199.434 335.750 L 198.962 338.000 119.981 338.000 L 41.000 338.000 41.000 334.720 C 41.000 328.788,43.977 307.245,46.558 294.499 C 69.800 179.732,156.105 85.911,268.743 52.966 C 289.596 46.867,311.409 42.920,337.000 40.616 C 346.602 39.751,386.101 40.940,397.743 42.443 " transform="translate(0, 0)" fill="#fccde5"></path><g class="star_plot" transform="translate(358.4277114868164,361.1592025756836)"><line class="star-axis" x1="0" y1="0" x2="6.266566499393839e-15" y2="-102.3407974243164" stroke="#aaaa" stroke-width="8" stroke-dasharray="20"></line><line class="star-axis" x1="0" y1="0" x2="88.62973041301505" y2="-51.1703987121582" stroke="#aaaa" stroke-width="8" stroke-dasharray="20"></line><line class="star-axis" x1="0" y1="0" x2="88.62973041301505" y2="51.17039871215819" stroke="#aaaa" stroke-width="8" stroke-dasharray="20"></line><line class="star-axis" x1="0" y1="0" x2="2.8990788431188835e-14" y2="102.3407974243164" stroke="#aaaa" stroke-width="8" stroke-dasharray="20"></line><line class="star-axis" x1="0" y1="0" x2="-88.62973041301504" y2="51.17039871215824" stroke="#aaaa" stroke-width="8" stroke-dasharray="20"></line><line class="star-axis" x1="0" y1="0" x2="-88.6297304130151" y2="-51.17039871215814" stroke="#aaaa" stroke-width="8" stroke-dasharray="20"></line><path class="star-path" d="M0,-73.91279813978407L59.08648694201003,-34.11359914143881L68.93423476567838,39.799198998345254L1.2533132998787677e-14,102.3407974243164L-73.85810867751253,42.641998926798536L-88.6297304130151,-51.17039871215813Z" stroke="#444" stroke-width="4" fill="black" fill-opacity="0.4"></path></g><path d="M199.549 384.750 C 203.827 409.835,212.749 432.399,226.336 452.500 C 234.723 464.907,255.696 485.776,267.958 493.913 C 317.964 527.101,377.805 531.090,430.500 504.747 C 476.953 481.525,508.332 438.220,517.451 384.750 L 518.091 381.000 597.554 381.000 L 677.017 381.000 676.447 386.750 C 669.805 453.670,647.512 510.027,607.811 560.257 C 597.404 573.424,570.424 600.404,557.257 610.811 C 512.618 646.093,460.814 668.558,404.500 677.056 C 386.598 679.757,348.704 680.790,330.448 679.073 C 266.987 673.107,209.079 649.938,159.743 610.776 C 146.787 600.492,124.276 578.457,113.661 565.668 C 71.387 514.737,46.833 454.768,40.607 387.250 L 40.031 381.000 119.470 381.000 L 198.909 381.000 199.549 384.750" transform="translate(0, 0)" fill="#8dd3c7"></path></g><g class="glyph-0" width="160" height="160.6694560669456" transform="translate(146.66666666666669,488.4152719665272),scale(0.22315202231520223,0.22315202231520223)"><path d="M397.743 42.443 C 453.793 49.681,505.043 70.369,549.336 103.636 C 618.850 155.846,663.860 233.380,674.488 319.227 C 675.320 325.944,676.000 332.916,676.000 334.720 L 676.000 338.000 597.019 338.000 L 518.038 338.000 517.566 335.750 C 517.306 334.512,515.951 328.775,514.556 323.000 C 502.193 271.842,464.332 229.293,414.473 210.526 C 384.663 199.305,349.629 197.686,316.944 206.017 C 275.216 216.654,236.639 247.399,216.596 285.992 C 208.223 302.115,203.813 314.902,199.434 335.750 L 198.962 338.000 119.981 338.000 L 41.000 338.000 41.000 334.720 C 41.000 328.788,43.977 307.245,46.558 294.499 C 69.800 179.732,156.105 85.911,268.743 52.966 C 289.596 46.867,311.409 42.920,337.000 40.616 C 346.602 39.751,386.101 40.940,397.743 42.443 " transform="translate(0, 0)" fill="#bebada"></path><g class="star_plot" transform="translate(358.4277114868164,361.1592025756836)"><line class="star-axis" x1="0" y1="0" x2="6.266566499393839e-15" y2="-102.3407974243164" stroke="#aaaa" stroke-width="8" stroke-dasharray="20"></line><line class="star-axis" x1="0" y1="0" x2="88.62973041301505" y2="-51.1703987121582" stroke="#aaaa" stroke-width="8" stroke-dasharray="20"></line><line class="star-axis" x1="0" y1="0" x2="88.62973041301505" y2="51.17039871215819" stroke="#aaaa" stroke-width="8" stroke-dasharray="20"></line><line class="star-axis" x1="0" y1="0" x2="2.8990788431188835e-14" y2="102.3407974243164" stroke="#aaaa" stroke-width="8" stroke-dasharray="20"></line><line class="star-axis" x1="0" y1="0" x2="-88.62973041301504" y2="51.17039871215824" stroke="#aaaa" stroke-width="8" stroke-dasharray="20"></line><line class="star-axis" x1="0" y1="0" x2="-88.6297304130151" y2="-51.17039871215814" stroke="#aaaa" stroke-width="8" stroke-dasharray="20"></line><path class="star-path" d="M0,-102.3407974243164L54.16261303017586,-31.270799212985576L51.20828868307537,29.565119255913615L8.076907932552058e-15,65.95295834011502L-61.05603650674369,35.25071911282012L-59.08648694201007,-34.11359914143876Z" stroke="#444" stroke-width="4" fill="black" fill-opacity="0.4"></path></g><path d="M199.549 384.750 C 203.827 409.835,212.749 432.399,226.336 452.500 C 234.723 464.907,255.696 485.776,267.958 493.913 C 317.964 527.101,377.805 531.090,430.500 504.747 C 476.953 481.525,508.332 438.220,517.451 384.750 L 518.091 381.000 597.554 381.000 L 677.017 381.000 676.447 386.750 C 669.805 453.670,647.512 510.027,607.811 560.257 C 597.404 573.424,570.424 600.404,557.257 610.811 C 512.618 646.093,460.814 668.558,404.500 677.056 C 386.598 679.757,348.704 680.790,330.448 679.073 C 266.987 673.107,209.079 649.938,159.743 610.776 C 146.787 600.492,124.276 578.457,113.661 565.668 C 71.387 514.737,46.833 454.768,40.607 387.250 L 40.031 381.000 119.470 381.000 L 198.909 381.000 199.549 384.750" transform="translate(0, 0)" fill="#fccde5"></path></g><g class="glyph-0" width="160" height="160.6694560669456" transform="translate(1166.6666666666665,484.0402719665272),scale(0.22315202231520223,0.22315202231520223)"><path d="M397.743 42.443 C 453.793 49.681,505.043 70.369,549.336 103.636 C 618.850 155.846,663.860 233.380,674.488 319.227 C 675.320 325.944,676.000 332.916,676.000 334.720 L 676.000 338.000 597.019 338.000 L 518.038 338.000 517.566 335.750 C 517.306 334.512,515.951 328.775,514.556 323.000 C 502.193 271.842,464.332 229.293,414.473 210.526 C 384.663 199.305,349.629 197.686,316.944 206.017 C 275.216 216.654,236.639 247.399,216.596 285.992 C 208.223 302.115,203.813 314.902,199.434 335.750 L 198.962 338.000 119.981 338.000 L 41.000 338.000 41.000 334.720 C 41.000 328.788,43.977 307.245,46.558 294.499 C 69.800 179.732,156.105 85.911,268.743 52.966 C 289.596 46.867,311.409 42.920,337.000 40.616 C 346.602 39.751,386.101 40.940,397.743 42.443 " transform="translate(0, 0)" fill="#8dd3c7"></path><g class="star_plot" transform="translate(358.4277114868164,361.1592025756836)"><line class="star-axis" x1="0" y1="0" x2="6.266566499393839e-15" y2="-102.3407974243164" stroke="#aaaa" stroke-width="8" stroke-dasharray="20"></line><line class="star-axis" x1="0" y1="0" x2="88.62973041301505" y2="-51.1703987121582" stroke="#aaaa" stroke-width="8" stroke-dasharray="20"></line><line class="star-axis" x1="0" y1="0" x2="88.62973041301505" y2="51.17039871215819" stroke="#aaaa" stroke-width="8" stroke-dasharray="20"></line><line class="star-axis" x1="0" y1="0" x2="2.8990788431188835e-14" y2="102.3407974243164" stroke="#aaaa" stroke-width="8" stroke-dasharray="20"></line><line class="star-axis" x1="0" y1="0" x2="-88.62973041301504" y2="51.17039871215824" stroke="#aaaa" stroke-width="8" stroke-dasharray="20"></line><line class="star-axis" x1="0" y1="0" x2="-88.6297304130151" y2="-51.17039871215814" stroke="#aaaa" stroke-width="8" stroke-dasharray="20"></line><path class="star-path" d="M0,-102.3407974243164L54.866023589009316,-31.676913488478895L67.52741364801147,38.986970447358615L1.1936317141702549e-14,97.46742611839657L-59.086486942010026,34.11359914143883L-59.08648694201007,-34.11359914143876Z" stroke="#444" stroke-width="4" fill="black" fill-opacity="0.4"></path></g><path d="M199.549 384.750 C 203.827 409.835,212.749 432.399,226.336 452.500 C 234.723 464.907,255.696 485.776,267.958 493.913 C 317.964 527.101,377.805 531.090,430.500 504.747 C 476.953 481.525,508.332 438.220,517.451 384.750 L 518.091 381.000 597.554 381.000 L 677.017 381.000 676.447 386.750 C 669.805 453.670,647.512 510.027,607.811 560.257 C 597.404 573.424,570.424 600.404,557.257 610.811 C 512.618 646.093,460.814 668.558,404.500 677.056 C 386.598 679.757,348.704 680.790,330.448 679.073 C 266.987 673.107,209.079 649.938,159.743 610.776 C 146.787 600.492,124.276 578.457,113.661 565.668 C 71.387 514.737,46.833 454.768,40.607 387.250 L 40.031 381.000 119.470 381.000 L 198.909 381.000 199.549 384.750" transform="translate(0, 0)" fill="#8dd3c7"></path></g><g class="glyph-0" width="160" height="160.6694560669456" transform="translate(599.9999999999999,456.9152719665272),scale(0.22315202231520223,0.22315202231520223)"><path d="M397.743 42.443 C 453.793 49.681,505.043 70.369,549.336 103.636 C 618.850 155.846,663.860 233.380,674.488 319.227 C 675.320 325.944,676.000 332.916,676.000 334.720 L 676.000 338.000 597.019 338.000 L 518.038 338.000 517.566 335.750 C 517.306 334.512,515.951 328.775,514.556 323.000 C 502.193 271.842,464.332 229.293,414.473 210.526 C 384.663 199.305,349.629 197.686,316.944 206.017 C 275.216 216.654,236.639 247.399,216.596 285.992 C 208.223 302.115,203.813 314.902,199.434 335.750 L 198.962 338.000 119.981 338.000 L 41.000 338.000 41.000 334.720 C 41.000 328.788,43.977 307.245,46.558 294.499 C 69.800 179.732,156.105 85.911,268.743 52.966 C 289.596 46.867,311.409 42.920,337.000 40.616 C 346.602 39.751,386.101 40.940,397.743 42.443 " transform="translate(0, 0)" fill="#8dd3c7"></path><g class="star_plot" transform="translate(358.4277114868164,361.1592025756836)"><line class="star-axis" x1="0" y1="0" x2="6.266566499393839e-15" y2="-102.3407974243164" stroke="#aaaa" stroke-width="8" stroke-dasharray="20"></line><line class="star-axis" x1="0" y1="0" x2="88.62973041301505" y2="-51.1703987121582" stroke="#aaaa" stroke-width="8" stroke-dasharray="20"></line><line class="star-axis" x1="0" y1="0" x2="88.62973041301505" y2="51.17039871215819" stroke="#aaaa" stroke-width="8" stroke-dasharray="20"></line><line class="star-axis" x1="0" y1="0" x2="2.8990788431188835e-14" y2="102.3407974243164" stroke="#aaaa" stroke-width="8" stroke-dasharray="20"></line><line class="star-axis" x1="0" y1="0" x2="-88.62973041301504" y2="51.17039871215824" stroke="#aaaa" stroke-width="8" stroke-dasharray="20"></line><line class="star-axis" x1="0" y1="0" x2="-88.6297304130151" y2="-51.17039871215814" stroke="#aaaa" stroke-width="8" stroke-dasharray="20"></line><path class="star-path" d="M0,-74.4296708540483L68.48660986460254,-39.54076264121316L60.42936164523754,34.888908212835126L1.2533132998787677e-14,102.3407974243164L-72.51523397428502,41.8666898554022L-40.286241096825044,-23.25927214189006Z" stroke="#444" stroke-width="4" fill="black" fill-opacity="0.4"></path></g><path d="M199.549 384.750 C 203.827 409.835,212.749 432.399,226.336 452.500 C 234.723 464.907,255.696 485.776,267.958 493.913 C 317.964 527.101,377.805 531.090,430.500 504.747 C 476.953 481.525,508.332 438.220,517.451 384.750 L 518.091 381.000 597.554 381.000 L 677.017 381.000 676.447 386.750 C 669.805 453.670,647.512 510.027,607.811 560.257 C 597.404 573.424,570.424 600.404,557.257 610.811 C 512.618 646.093,460.814 668.558,404.500 677.056 C 386.598 679.757,348.704 680.790,330.448 679.073 C 266.987 673.107,209.079 649.938,159.743 610.776 C 146.787 600.492,124.276 578.457,113.661 565.668 C 71.387 514.737,46.833 454.768,40.607 387.250 L 40.031 381.000 119.470 381.000 L 198.909 381.000 199.549 384.750" transform="translate(0, 0)" fill="#8dd3c7"></path></g><g class="glyph-0" width="160" height="160.6694560669456" transform="translate(373.3333333333333,357.1652719665272),scale(0.22315202231520223,0.22315202231520223)"><path d="M397.743 42.443 C 453.793 49.681,505.043 70.369,549.336 103.636 C 618.850 155.846,663.860 233.380,674.488 319.227 C 675.320 325.944,676.000 332.916,676.000 334.720 L 676.000 338.000 597.019 338.000 L 518.038 338.000 517.566 335.750 C 517.306 334.512,515.951 328.775,514.556 323.000 C 502.193 271.842,464.332 229.293,414.473 210.526 C 384.663 199.305,349.629 197.686,316.944 206.017 C 275.216 216.654,236.639 247.399,216.596 285.992 C 208.223 302.115,203.813 314.902,199.434 335.750 L 198.962 338.000 119.981 338.000 L 41.000 338.000 41.000 334.720 C 41.000 328.788,43.977 307.245,46.558 294.499 C 69.800 179.732,156.105 85.911,268.743 52.966 C 289.596 46.867,311.409 42.920,337.000 40.616 C 346.602 39.751,386.101 40.940,397.743 42.443 " transform="translate(0, 0)" fill="#fccde5"></path><g class="star_plot" transform="translate(358.4277114868164,361.1592025756836)"><line class="star-axis" x1="0" y1="0" x2="6.266566499393839e-15" y2="-102.3407974243164" stroke="#aaaa" stroke-width="8" stroke-dasharray="20"></line><line class="star-axis" x1="0" y1="0" x2="88.62973041301505" y2="-51.1703987121582" stroke="#aaaa" stroke-width="8" stroke-dasharray="20"></line><line class="star-axis" x1="0" y1="0" x2="88.62973041301505" y2="51.17039871215819" stroke="#aaaa" stroke-width="8" stroke-dasharray="20"></line><line class="star-axis" x1="0" y1="0" x2="2.8990788431188835e-14" y2="102.3407974243164" stroke="#aaaa" stroke-width="8" stroke-dasharray="20"></line><line class="star-axis" x1="0" y1="0" x2="-88.62973041301504" y2="51.17039871215824" stroke="#aaaa" stroke-width="8" stroke-dasharray="20"></line><line class="star-axis" x1="0" y1="0" x2="-88.6297304130151" y2="-51.17039871215814" stroke="#aaaa" stroke-width="8" stroke-dasharray="20"></line><path class="star-path" d="M0,-93.81239763895671L73.85810867751253,-42.64199892679851L88.62973041301505,51.17039871215818L8.355421999191786e-15,68.22719828287761L-81.2439195452638,46.9061988194784L-66.47229780976132,-38.3777990341186Z" stroke="#444" stroke-width="4" fill="black" fill-opacity="0.4"></path></g><path d="M199.549 384.750 C 203.827 409.835,212.749 432.399,226.336 452.500 C 234.723 464.907,255.696 485.776,267.958 493.913 C 317.964 527.101,377.805 531.090,430.500 504.747 C 476.953 481.525,508.332 438.220,517.451 384.750 L 518.091 381.000 597.554 381.000 L 677.017 381.000 676.447 386.750 C 669.805 453.670,647.512 510.027,607.811 560.257 C 597.404 573.424,570.424 600.404,557.257 610.811 C 512.618 646.093,460.814 668.558,404.500 677.056 C 386.598 679.757,348.704 680.790,330.448 679.073 C 266.987 673.107,209.079 649.938,159.743 610.776 C 146.787 600.492,124.276 578.457,113.661 565.668 C 71.387 514.737,46.833 454.768,40.607 387.250 L 40.031 381.000 119.470 381.000 L 198.909 381.000 199.549 384.750" transform="translate(0, 0)" fill="#8dd3c7"></path></g><g class="glyph-0" width="160" height="160.6694560669456" transform="translate(486.66666666666674,339.6652719665272),scale(0.22315202231520223,0.22315202231520223)"><path d="M397.743 42.443 C 453.793 49.681,505.043 70.369,549.336 103.636 C 618.850 155.846,663.860 233.380,674.488 319.227 C 675.320 325.944,676.000 332.916,676.000 334.720 L 676.000 338.000 597.019 338.000 L 518.038 338.000 517.566 335.750 C 517.306 334.512,515.951 328.775,514.556 323.000 C 502.193 271.842,464.332 229.293,414.473 210.526 C 384.663 199.305,349.629 197.686,316.944 206.017 C 275.216 216.654,236.639 247.399,216.596 285.992 C 208.223 302.115,203.813 314.902,199.434 335.750 L 198.962 338.000 119.981 338.000 L 41.000 338.000 41.000 334.720 C 41.000 328.788,43.977 307.245,46.558 294.499 C 69.800 179.732,156.105 85.911,268.743 52.966 C 289.596 46.867,311.409 42.920,337.000 40.616 C 346.602 39.751,386.101 40.940,397.743 42.443 " transform="translate(0, 0)" fill="#fccde5"></path><g class="star_plot" transform="translate(358.4277114868164,361.1592025756836)"><line class="star-axis" x1="0" y1="0" x2="6.266566499393839e-15" y2="-102.3407974243164" stroke="#aaaa" stroke-width="8" stroke-dasharray="20"></line><line class="star-axis" x1="0" y1="0" x2="88.62973041301505" y2="-51.1703987121582" stroke="#aaaa" stroke-width="8" stroke-dasharray="20"></line><line class="star-axis" x1="0" y1="0" x2="88.62973041301505" y2="51.17039871215819" stroke="#aaaa" stroke-width="8" stroke-dasharray="20"></line><line class="star-axis" x1="0" y1="0" x2="2.8990788431188835e-14" y2="102.3407974243164" stroke="#aaaa" stroke-width="8" stroke-dasharray="20"></line><line class="star-axis" x1="0" y1="0" x2="-88.62973041301504" y2="51.17039871215824" stroke="#aaaa" stroke-width="8" stroke-dasharray="20"></line><line class="star-axis" x1="0" y1="0" x2="-88.6297304130151" y2="-51.17039871215814" stroke="#aaaa" stroke-width="8" stroke-dasharray="20"></line><path class="star-path" d="M0,-51.1703987121582L49.23873911834169,-28.42799928453234L59.08648694201005,34.11359914143879L1.2533132998787677e-14,102.3407974243164L-78.78198258934671,45.48479885525178L-68.93423476567841,-39.79919899834522Z" stroke="#444" stroke-width="4" fill="black" fill-opacity="0.4"></path></g><path d="M199.549 384.750 C 203.827 409.835,212.749 432.399,226.336 452.500 C 234.723 464.907,255.696 485.776,267.958 493.913 C 317.964 527.101,377.805 531.090,430.500 504.747 C 476.953 481.525,508.332 438.220,517.451 384.750 L 518.091 381.000 597.554 381.000 L 677.017 381.000 676.447 386.750 C 669.805 453.670,647.512 510.027,607.811 560.257 C 597.404 573.424,570.424 600.404,557.257 610.811 C 512.618 646.093,460.814 668.558,404.500 677.056 C 386.598 679.757,348.704 680.790,330.448 679.073 C 266.987 673.107,209.079 649.938,159.743 610.776 C 146.787 600.492,124.276 578.457,113.661 565.668 C 71.387 514.737,46.833 454.768,40.607 387.250 L 40.031 381.000 119.470 381.000 L 198.909 381.000 199.549 384.750" transform="translate(0, 0)" fill="#fccde5"></path></g><g class="glyph-0" width="160" height="160.6694560669456" transform="translate(599.9999999999999,287.1652719665272),scale(0.22315202231520223,0.22315202231520223)"><path d="M397.743 42.443 C 453.793 49.681,505.043 70.369,549.336 103.636 C 618.850 155.846,663.860 233.380,674.488 319.227 C 675.320 325.944,676.000 332.916,676.000 334.720 L 676.000 338.000 597.019 338.000 L 518.038 338.000 517.566 335.750 C 517.306 334.512,515.951 328.775,514.556 323.000 C 502.193 271.842,464.332 229.293,414.473 210.526 C 384.663 199.305,349.629 197.686,316.944 206.017 C 275.216 216.654,236.639 247.399,216.596 285.992 C 208.223 302.115,203.813 314.902,199.434 335.750 L 198.962 338.000 119.981 338.000 L 41.000 338.000 41.000 334.720 C 41.000 328.788,43.977 307.245,46.558 294.499 C 69.800 179.732,156.105 85.911,268.743 52.966 C 289.596 46.867,311.409 42.920,337.000 40.616 C 346.602 39.751,386.101 40.940,397.743 42.443 " transform="translate(0, 0)" fill="#bebada"></path><g class="star_plot" transform="translate(358.4277114868164,361.1592025756836)"><line class="star-axis" x1="0" y1="0" x2="6.266566499393839e-15" y2="-102.3407974243164" stroke="#aaaa" stroke-width="8" stroke-dasharray="20"></line><line class="star-axis" x1="0" y1="0" x2="88.62973041301505" y2="-51.1703987121582" stroke="#aaaa" stroke-width="8" stroke-dasharray="20"></line><line class="star-axis" x1="0" y1="0" x2="88.62973041301505" y2="51.17039871215819" stroke="#aaaa" stroke-width="8" stroke-dasharray="20"></line><line class="star-axis" x1="0" y1="0" x2="2.8990788431188835e-14" y2="102.3407974243164" stroke="#aaaa" stroke-width="8" stroke-dasharray="20"></line><line class="star-axis" x1="0" y1="0" x2="-88.62973041301504" y2="51.17039871215824" stroke="#aaaa" stroke-width="8" stroke-dasharray="20"></line><line class="star-axis" x1="0" y1="0" x2="-88.6297304130151" y2="-51.17039871215814" stroke="#aaaa" stroke-width="8" stroke-dasharray="20"></line><path class="star-path" d="M0,-92.10671768188476L57.60932476845978,-33.260759162902836L57.609324768459786,33.260759162902815L7.645211129260482e-15,62.427886428833006L-54.064135551939174,31.21394321441653L-88.6297304130151,-51.17039871215813Z" stroke="#444" stroke-width="4" fill="black" fill-opacity="0.4"></path></g><path d="M199.549 384.750 C 203.827 409.835,212.749 432.399,226.336 452.500 C 234.723 464.907,255.696 485.776,267.958 493.913 C 317.964 527.101,377.805 531.090,430.500 504.747 C 476.953 481.525,508.332 438.220,517.451 384.750 L 518.091 381.000 597.554 381.000 L 677.017 381.000 676.447 386.750 C 669.805 453.670,647.512 510.027,607.811 560.257 C 597.404 573.424,570.424 600.404,557.257 610.811 C 512.618 646.093,460.814 668.558,404.500 677.056 C 386.598 679.757,348.704 680.790,330.448 679.073 C 266.987 673.107,209.079 649.938,159.743 610.776 C 146.787 600.492,124.276 578.457,113.661 565.668 C 71.387 514.737,46.833 454.768,40.607 387.250 L 40.031 381.000 119.470 381.000 L 198.909 381.000 199.549 384.750" transform="translate(0, 0)" fill="#fccde5"></path></g><g class="glyph-0" width="160" height="160.6694560669456" transform="translate(826.6666666666665,276.6652719665272),scale(0.22315202231520223,0.22315202231520223)"><path d="M397.743 42.443 C 453.793 49.681,505.043 70.369,549.336 103.636 C 618.850 155.846,663.860 233.380,674.488 319.227 C 675.320 325.944,676.000 332.916,676.000 334.720 L 676.000 338.000 597.019 338.000 L 518.038 338.000 517.566 335.750 C 517.306 334.512,515.951 328.775,514.556 323.000 C 502.193 271.842,464.332 229.293,414.473 210.526 C 384.663 199.305,349.629 197.686,316.944 206.017 C 275.216 216.654,236.639 247.399,216.596 285.992 C 208.223 302.115,203.813 314.902,199.434 335.750 L 198.962 338.000 119.981 338.000 L 41.000 338.000 41.000 334.720 C 41.000 328.788,43.977 307.245,46.558 294.499 C 69.800 179.732,156.105 85.911,268.743 52.966 C 289.596 46.867,311.409 42.920,337.000 40.616 C 346.602 39.751,386.101 40.940,397.743 42.443 " transform="translate(0, 0)" fill="#bebada"></path><g class="star_plot" transform="translate(358.4277114868164,361.1592025756836)"><line class="star-axis" x1="0" y1="0" x2="6.266566499393839e-15" y2="-102.3407974243164" stroke="#aaaa" stroke-width="8" stroke-dasharray="20"></line><line class="star-axis" x1="0" y1="0" x2="88.62973041301505" y2="-51.1703987121582" stroke="#aaaa" stroke-width="8" stroke-dasharray="20"></line><line class="star-axis" x1="0" y1="0" x2="88.62973041301505" y2="51.17039871215819" stroke="#aaaa" stroke-width="8" stroke-dasharray="20"></line><line class="star-axis" x1="0" y1="0" x2="2.8990788431188835e-14" y2="102.3407974243164" stroke="#aaaa" stroke-width="8" stroke-dasharray="20"></line><line class="star-axis" x1="0" y1="0" x2="-88.62973041301504" y2="51.17039871215824" stroke="#aaaa" stroke-width="8" stroke-dasharray="20"></line><line class="star-axis" x1="0" y1="0" x2="-88.6297304130151" y2="-51.17039871215814" stroke="#aaaa" stroke-width="8" stroke-dasharray="20"></line><path class="star-path" d="M0,-102.3407974243164L46.92162198336091,-27.09021108290729L36.49459487594738,21.070164175594545L5.160701823030221e-15,42.14032835118911L-36.49459487594737,21.070164175594574L-78.20270330560155,-45.150351804845414Z" stroke="#444" stroke-width="4" fill="black" fill-opacity="0.4"></path></g><path d="M199.549 384.750 C 203.827 409.835,212.749 432.399,226.336 452.500 C 234.723 464.907,255.696 485.776,267.958 493.913 C 317.964 527.101,377.805 531.090,430.500 504.747 C 476.953 481.525,508.332 438.220,517.451 384.750 L 518.091 381.000 597.554 381.000 L 677.017 381.000 676.447 386.750 C 669.805 453.670,647.512 510.027,607.811 560.257 C 597.404 573.424,570.424 600.404,557.257 610.811 C 512.618 646.093,460.814 668.558,404.500 677.056 C 386.598 679.757,348.704 680.790,330.448 679.073 C 266.987 673.107,209.079 649.938,159.743 610.776 C 146.787 600.492,124.276 578.457,113.661 565.668 C 71.387 514.737,46.833 454.768,40.607 387.250 L 40.031 381.000 119.470 381.000 L 198.909 381.000 199.549 384.750" transform="translate(0, 0)" fill="#fccde5"></path></g><g class="glyph-0" width="160" height="160.6694560669456" transform="translate(939.9999999999999,265.2902719665272),scale(0.22315202231520223,0.22315202231520223)"><path d="M397.743 42.443 C 453.793 49.681,505.043 70.369,549.336 103.636 C 618.850 155.846,663.860 233.380,674.488 319.227 C 675.320 325.944,676.000 332.916,676.000 334.720 L 676.000 338.000 597.019 338.000 L 518.038 338.000 517.566 335.750 C 517.306 334.512,515.951 328.775,514.556 323.000 C 502.193 271.842,464.332 229.293,414.473 210.526 C 384.663 199.305,349.629 197.686,316.944 206.017 C 275.216 216.654,236.639 247.399,216.596 285.992 C 208.223 302.115,203.813 314.902,199.434 335.750 L 198.962 338.000 119.981 338.000 L 41.000 338.000 41.000 334.720 C 41.000 328.788,43.977 307.245,46.558 294.499 C 69.800 179.732,156.105 85.911,268.743 52.966 C 289.596 46.867,311.409 42.920,337.000 40.616 C 346.602 39.751,386.101 40.940,397.743 42.443 " transform="translate(0, 0)" fill="#fb8072"></path><g class="star_plot" transform="translate(358.4277114868164,361.1592025756836)"><line class="star-axis" x1="0" y1="0" x2="6.266566499393839e-15" y2="-102.3407974243164" stroke="#aaaa" stroke-width="8" stroke-dasharray="20"></line><line class="star-axis" x1="0" y1="0" x2="88.62973041301505" y2="-51.1703987121582" stroke="#aaaa" stroke-width="8" stroke-dasharray="20"></line><line class="star-axis" x1="0" y1="0" x2="88.62973041301505" y2="51.17039871215819" stroke="#aaaa" stroke-width="8" stroke-dasharray="20"></line><line class="star-axis" x1="0" y1="0" x2="2.8990788431188835e-14" y2="102.3407974243164" stroke="#aaaa" stroke-width="8" stroke-dasharray="20"></line><line class="star-axis" x1="0" y1="0" x2="-88.62973041301504" y2="51.17039871215824" stroke="#aaaa" stroke-width="8" stroke-dasharray="20"></line><line class="star-axis" x1="0" y1="0" x2="-88.6297304130151" y2="-51.17039871215814" stroke="#aaaa" stroke-width="8" stroke-dasharray="20"></line><path class="star-path" d="M0,-39.130304897532746L41.70810842965414,-24.080187629250926L31.28108132224061,18.060140721938183L1.2533132998787677e-14,102.3407974243164L-49.52837876021429,28.595222809735493L-67.77567619818802,-39.130304897532696Z" stroke="#444" stroke-width="4" fill="black" fill-opacity="0.4"></path></g><path d="M199.549 384.750 C 203.827 409.835,212.749 432.399,226.336 452.500 C 234.723 464.907,255.696 485.776,267.958 493.913 C 317.964 527.101,377.805 531.090,430.500 504.747 C 476.953 481.525,508.332 438.220,517.451 384.750 L 518.091 381.000 597.554 381.000 L 677.017 381.000 676.447 386.750 C 669.805 453.670,647.512 510.027,607.811 560.257 C 597.404 573.424,570.424 600.404,557.257 610.811 C 512.618 646.093,460.814 668.558,404.500 677.056 C 386.598 679.757,348.704 680.790,330.448 679.073 C 266.987 673.107,209.079 649.938,159.743 610.776 C 146.787 600.492,124.276 578.457,113.661 565.668 C 71.387 514.737,46.833 454.768,40.607 387.250 L 40.031 381.000 119.470 381.000 L 198.909 381.000 199.549 384.750" transform="translate(0, 0)" fill="#8dd3c7"></path></g><g class="glyph-0" width="160" height="160.6694560669456" transform="translate(260,221.5402719665272),scale(0.22315202231520223,0.22315202231520223)"><path d="M397.743 42.443 C 453.793 49.681,505.043 70.369,549.336 103.636 C 618.850 155.846,663.860 233.380,674.488 319.227 C 675.320 325.944,676.000 332.916,676.000 334.720 L 676.000 338.000 597.019 338.000 L 518.038 338.000 517.566 335.750 C 517.306 334.512,515.951 328.775,514.556 323.000 C 502.193 271.842,464.332 229.293,414.473 210.526 C 384.663 199.305,349.629 197.686,316.944 206.017 C 275.216 216.654,236.639 247.399,216.596 285.992 C 208.223 302.115,203.813 314.902,199.434 335.750 L 198.962 338.000 119.981 338.000 L 41.000 338.000 41.000 334.720 C 41.000 328.788,43.977 307.245,46.558 294.499 C 69.800 179.732,156.105 85.911,268.743 52.966 C 289.596 46.867,311.409 42.920,337.000 40.616 C 346.602 39.751,386.101 40.940,397.743 42.443 " transform="translate(0, 0)" fill="#80b1d3"></path><g class="star_plot" transform="translate(358.4277114868164,361.1592025756836)"><line class="star-axis" x1="0" y1="0" x2="6.266566499393839e-15" y2="-102.3407974243164" stroke="#aaaa" stroke-width="8" stroke-dasharray="20"></line><line class="star-axis" x1="0" y1="0" x2="88.62973041301505" y2="-51.1703987121582" stroke="#aaaa" stroke-width="8" stroke-dasharray="20"></line><line class="star-axis" x1="0" y1="0" x2="88.62973041301505" y2="51.17039871215819" stroke="#aaaa" stroke-width="8" stroke-dasharray="20"></line><line class="star-axis" x1="0" y1="0" x2="2.8990788431188835e-14" y2="102.3407974243164" stroke="#aaaa" stroke-width="8" stroke-dasharray="20"></line><line class="star-axis" x1="0" y1="0" x2="-88.62973041301504" y2="51.17039871215824" stroke="#aaaa" stroke-width="8" stroke-dasharray="20"></line><line class="star-axis" x1="0" y1="0" x2="-88.6297304130151" y2="-51.17039871215814" stroke="#aaaa" stroke-width="8" stroke-dasharray="20"></line><path class="star-path" d="M0,-40.936318969726564L31.020405644555265,-17.909639549255374L35.451892165206026,20.46815948486327L6.266566499393839e-15,51.1703987121582L-88.62973041301504,51.170398712158246L-62.040811289110565,-35.81927909851069Z" stroke="#444" stroke-width="4" fill="black" fill-opacity="0.4"></path></g><path d="M199.549 384.750 C 203.827 409.835,212.749 432.399,226.336 452.500 C 234.723 464.907,255.696 485.776,267.958 493.913 C 317.964 527.101,377.805 531.090,430.500 504.747 C 476.953 481.525,508.332 438.220,517.451 384.750 L 518.091 381.000 597.554 381.000 L 677.017 381.000 676.447 386.750 C 669.805 453.670,647.512 510.027,607.811 560.257 C 597.404 573.424,570.424 600.404,557.257 610.811 C 512.618 646.093,460.814 668.558,404.500 677.056 C 386.598 679.757,348.704 680.790,330.448 679.073 C 266.987 673.107,209.079 649.938,159.743 610.776 C 146.787 600.492,124.276 578.457,113.661 565.668 C 71.387 514.737,46.833 454.768,40.607 387.250 L 40.031 381.000 119.470 381.000 L 198.909 381.000 199.549 384.750" transform="translate(0, 0)" fill="#8dd3c7"></path></g><g class="glyph-0" width="160" height="160.6694560669456" transform="translate(713.3333333333333,147.16527196652717),scale(0.22315202231520223,0.22315202231520223)"><path d="M397.743 42.443 C 453.793 49.681,505.043 70.369,549.336 103.636 C 618.850 155.846,663.860 233.380,674.488 319.227 C 675.320 325.944,676.000 332.916,676.000 334.720 L 676.000 338.000 597.019 338.000 L 518.038 338.000 517.566 335.750 C 517.306 334.512,515.951 328.775,514.556 323.000 C 502.193 271.842,464.332 229.293,414.473 210.526 C 384.663 199.305,349.629 197.686,316.944 206.017 C 275.216 216.654,236.639 247.399,216.596 285.992 C 208.223 302.115,203.813 314.902,199.434 335.750 L 198.962 338.000 119.981 338.000 L 41.000 338.000 41.000 334.720 C 41.000 328.788,43.977 307.245,46.558 294.499 C 69.800 179.732,156.105 85.911,268.743 52.966 C 289.596 46.867,311.409 42.920,337.000 40.616 C 346.602 39.751,386.101 40.940,397.743 42.443 " transform="translate(0, 0)" fill="#80b1d3"></path><g class="star_plot" transform="translate(358.4277114868164,361.1592025756836)"><line class="star-axis" x1="0" y1="0" x2="6.266566499393839e-15" y2="-102.3407974243164" stroke="#aaaa" stroke-width="8" stroke-dasharray="20"></line><line class="star-axis" x1="0" y1="0" x2="88.62973041301505" y2="-51.1703987121582" stroke="#aaaa" stroke-width="8" stroke-dasharray="20"></line><line class="star-axis" x1="0" y1="0" x2="88.62973041301505" y2="51.17039871215819" stroke="#aaaa" stroke-width="8" stroke-dasharray="20"></line><line class="star-axis" x1="0" y1="0" x2="2.8990788431188835e-14" y2="102.3407974243164" stroke="#aaaa" stroke-width="8" stroke-dasharray="20"></line><line class="star-axis" x1="0" y1="0" x2="-88.62973041301504" y2="51.17039871215824" stroke="#aaaa" stroke-width="8" stroke-dasharray="20"></line><line class="star-axis" x1="0" y1="0" x2="-88.6297304130151" y2="-51.17039871215814" stroke="#aaaa" stroke-width="8" stroke-dasharray="20"></line><path class="star-path" d="M0,-102.3407974243164L88.62973041301505,-51.17039871215822L83.96500775969848,48.47721983257091L9.234940104369869e-15,75.40900862844367L-83.96500775969847,48.477219832570974L-65.30611714643219,-37.704504314221786Z" stroke="#444" stroke-width="4" fill="black" fill-opacity="0.4"></path></g><path d="M199.549 384.750 C 203.827 409.835,212.749 432.399,226.336 452.500 C 234.723 464.907,255.696 485.776,267.958 493.913 C 317.964 527.101,377.805 531.090,430.500 504.747 C 476.953 481.525,508.332 438.220,517.451 384.750 L 518.091 381.000 597.554 381.000 L 677.017 381.000 676.447 386.750 C 669.805 453.670,647.512 510.027,607.811 560.257 C 597.404 573.424,570.424 600.404,557.257 610.811 C 512.618 646.093,460.814 668.558,404.500 677.056 C 386.598 679.757,348.704 680.790,330.448 679.073 C 266.987 673.107,209.079 649.938,159.743 610.776 C 146.787 600.492,124.276 578.457,113.661 565.668 C 71.387 514.737,46.833 454.768,40.607 387.250 L 40.031 381.000 119.470 381.000 L 198.909 381.000 199.549 384.750" transform="translate(0, 0)" fill="#bebada"></path></g><g class="glyph-0" width="160" height="160.6694560669456" transform="translate(1053.3333333333333,138.4152719665272),scale(0.22315202231520223,0.22315202231520223)"><path d="M397.743 42.443 C 453.793 49.681,505.043 70.369,549.336 103.636 C 618.850 155.846,663.860 233.380,674.488 319.227 C 675.320 325.944,676.000 332.916,676.000 334.720 L 676.000 338.000 597.019 338.000 L 518.038 338.000 517.566 335.750 C 517.306 334.512,515.951 328.775,514.556 323.000 C 502.193 271.842,464.332 229.293,414.473 210.526 C 384.663 199.305,349.629 197.686,316.944 206.017 C 275.216 216.654,236.639 247.399,216.596 285.992 C 208.223 302.115,203.813 314.902,199.434 335.750 L 198.962 338.000 119.981 338.000 L 41.000 338.000 41.000 334.720 C 41.000 328.788,43.977 307.245,46.558 294.499 C 69.800 179.732,156.105 85.911,268.743 52.966 C 289.596 46.867,311.409 42.920,337.000 40.616 C 346.602 39.751,386.101 40.940,397.743 42.443 " transform="translate(0, 0)" fill="#fdb462"></path><g class="star_plot" transform="translate(358.4277114868164,361.1592025756836)"><line class="star-axis" x1="0" y1="0" x2="6.266566499393839e-15" y2="-102.3407974243164" stroke="#aaaa" stroke-width="8" stroke-dasharray="20"></line><line class="star-axis" x1="0" y1="0" x2="88.62973041301505" y2="-51.1703987121582" stroke="#aaaa" stroke-width="8" stroke-dasharray="20"></line><line class="star-axis" x1="0" y1="0" x2="88.62973041301505" y2="51.17039871215819" stroke="#aaaa" stroke-width="8" stroke-dasharray="20"></line><line class="star-axis" x1="0" y1="0" x2="2.8990788431188835e-14" y2="102.3407974243164" stroke="#aaaa" stroke-width="8" stroke-dasharray="20"></line><line class="star-axis" x1="0" y1="0" x2="-88.62973041301504" y2="51.17039871215824" stroke="#aaaa" stroke-width="8" stroke-dasharray="20"></line><line class="star-axis" x1="0" y1="0" x2="-88.6297304130151" y2="-51.17039871215814" stroke="#aaaa" stroke-width="8" stroke-dasharray="20"></line><path class="star-path" d="M0,-90.96959771050348L68.93423476567837,-39.799198998345275L73.85810867751255,42.64199892679848L9.0517071657911e-15,73.91279813978407L-73.85810867751253,42.641998926798536L-88.6297304130151,-51.17039871215813Z" stroke="#444" stroke-width="4" fill="black" fill-opacity="0.4"></path></g><path d="M199.549 384.750 C 203.827 409.835,212.749 432.399,226.336 452.500 C 234.723 464.907,255.696 485.776,267.958 493.913 C 317.964 527.101,377.805 531.090,430.500 504.747 C 476.953 481.525,508.332 438.220,517.451 384.750 L 518.091 381.000 597.554 381.000 L 677.017 381.000 676.447 386.750 C 669.805 453.670,647.512 510.027,607.811 560.257 C 597.404 573.424,570.424 600.404,557.257 610.811 C 512.618 646.093,460.814 668.558,404.500 677.056 C 386.598 679.757,348.704 680.790,330.448 679.073 C 266.987 673.107,209.079 649.938,159.743 610.776 C 146.787 600.492,124.276 578.457,113.661 565.668 C 71.387 514.737,46.833 454.768,40.607 387.250 L 40.031 381.000 119.470 381.000 L 198.909 381.000 199.549 384.750" transform="translate(0, 0)" fill="#fccde5"></path></g><g class="glyph-0" width="160" height="160.6694560669456" transform="translate(826.6666666666665,77.16527196652717),scale(0.22315202231520223,0.22315202231520223)"><path d="M397.743 42.443 C 453.793 49.681,505.043 70.369,549.336 103.636 C 618.850 155.846,663.860 233.380,674.488 319.227 C 675.320 325.944,676.000 332.916,676.000 334.720 L 676.000 338.000 597.019 338.000 L 518.038 338.000 517.566 335.750 C 517.306 334.512,515.951 328.775,514.556 323.000 C 502.193 271.842,464.332 229.293,414.473 210.526 C 384.663 199.305,349.629 197.686,316.944 206.017 C 275.216 216.654,236.639 247.399,216.596 285.992 C 208.223 302.115,203.813 314.902,199.434 335.750 L 198.962 338.000 119.981 338.000 L 41.000 338.000 41.000 334.720 C 41.000 328.788,43.977 307.245,46.558 294.499 C 69.800 179.732,156.105 85.911,268.743 52.966 C 289.596 46.867,311.409 42.920,337.000 40.616 C 346.602 39.751,386.101 40.940,397.743 42.443 " transform="translate(0, 0)" fill="#fdb462"></path><g class="star_plot" transform="translate(358.4277114868164,361.1592025756836)"><line class="star-axis" x1="0" y1="0" x2="6.266566499393839e-15" y2="-102.3407974243164" stroke="#aaaa" stroke-width="8" stroke-dasharray="20"></line><line class="star-axis" x1="0" y1="0" x2="88.62973041301505" y2="-51.1703987121582" stroke="#aaaa" stroke-width="8" stroke-dasharray="20"></line><line class="star-axis" x1="0" y1="0" x2="88.62973041301505" y2="51.17039871215819" stroke="#aaaa" stroke-width="8" stroke-dasharray="20"></line><line class="star-axis" x1="0" y1="0" x2="2.8990788431188835e-14" y2="102.3407974243164" stroke="#aaaa" stroke-width="8" stroke-dasharray="20"></line><line class="star-axis" x1="0" y1="0" x2="-88.62973041301504" y2="51.17039871215824" stroke="#aaaa" stroke-width="8" stroke-dasharray="20"></line><line class="star-axis" x1="0" y1="0" x2="-88.6297304130151" y2="-51.17039871215814" stroke="#aaaa" stroke-width="8" stroke-dasharray="20"></line><path class="star-path" d="M0,-102.3407974243164L66.90675727257019,-38.62863432192336L70.38243297504137,40.635316624360904L1.044427749898973e-14,85.283997853597L-65.16891942133458,37.625293170704595L-73.85810867751258,-42.64199892679844Z" stroke="#444" stroke-width="4" fill="black" fill-opacity="0.4"></path></g><path d="M199.549 384.750 C 203.827 409.835,212.749 432.399,226.336 452.500 C 234.723 464.907,255.696 485.776,267.958 493.913 C 317.964 527.101,377.805 531.090,430.500 504.747 C 476.953 481.525,508.332 438.220,517.451 384.750 L 518.091 381.000 597.554 381.000 L 677.017 381.000 676.447 386.750 C 669.805 453.670,647.512 510.027,607.811 560.257 C 597.404 573.424,570.424 600.404,557.257 610.811 C 512.618 646.093,460.814 668.558,404.500 677.056 C 386.598 679.757,348.704 680.790,330.448 679.073 C 266.987 673.107,209.079 649.938,159.743 610.776 C 146.787 600.492,124.276 578.457,113.661 565.668 C 71.387 514.737,46.833 454.768,40.607 387.250 L 40.031 381.000 119.470 381.000 L 198.909 381.000 199.549 384.750" transform="translate(0, 0)" fill="#fb8072"></path></g><text y="760" x="680" fill="#333333" font-size="26px" text-anchor="middle">Weight of Objects</text><text transform="rotate(-90)" x="-350" y="-50" fill="#333333" font-size="26px" text-anchor="middle">Height of Objects</text></g></svg>