<svg id="mainGraph" xmlns="http://www.w3.org/2000/svg" width="1400" height="700" viewBox="0 0 1500 750" transform="translate(75, 0)"><g transform="translate(50, 25)"><g width="150" height="150" transform="translate(0,0),scale(0.29296875,0.29296875)"><path d="M295.568,308.052h-82.047c-12.443,0-22.142-10.782-20.831-23.155l11.776-92.826H304.62l11.776,92.826 C317.711,297.27,308.01,308.052,295.568,308.052z" fill="#edc877" transform="translate(0, 48.655)"></path><path d="M289.154,308.052l26.126,164.083c1.262,17.407-12.52,32.224-29.973,32.224h-59.743 c-17.453,0-31.235-14.817-29.973-32.224l26.127-164.083H289.154z" fill="red" transform="translate(-45.12596666666675, -28.358749999999993),scale(1.176666666666667, 1.25)"></path><g transform="translate(-64, -1.9100000000000001),scale(1.25, 1.25)"><path d="M486.721,177.436C486.721,83.66,383.423,7.64,256,7.64S25.279,83.66,25.279,177.436 c0,0,60.923,24.821,231.069,24.821C402.668,202.257,486.721,177.436,486.721,177.436z" fill="orange"></path><path d="M78.473,190.094c0-27.917,7.119-51.615,21.17-72.703c14.739-22.121,36.339-38.855,64.201-49.739 c3.93-1.534,8.361,0.407,9.896,4.337c1.535,3.93-0.406,8.36-4.336,9.896c-48.787,19.058-75.754,59.094-75.754,110.556 L78.473,190.094z" fill="#FFD6CF"></path><path d="M197.61,75.093c17.57,13.477,42.74,10.16,56.218-7.412c13.477-17.57,10.16-42.74-7.412-56.217V7.797 c-19.458,0.586-38.292,2.943-56.217,6.863v4.217C176.721,36.447,180.039,61.616,197.61,75.093z" fill="#FFD6CF"></path><path d="M357.57,99.093c1.194,27.344,24.329,48.543,51.672,47.349c27.344-1.194,48.543-24.329,47.349-51.672 l0.474-0.651c-13.645-17.795-31.522-33.595-52.631-46.664C377.326,48.9,356.383,71.912,357.57,99.093z" fill="#FFD6CF"></path><path d="M289.509,130.598c-19.397-19.31-50.775-19.24-70.085,0.158s-19.239,50.775,0.158,70.085v1.009 c11.647,0.263,23.89,0.407,36.767,0.407c11.494,0,22.602-0.154,33.317-0.436v-1.138 C308.976,181.286,308.906,149.908,289.509,130.598z" fill="#FFD6CF"></path></g></g><g width="150" height="150" transform="translate(225,0),scale(0.29296875,0.29296875)"><path d="M295.568,308.052h-82.047c-12.443,0-22.142-10.782-20.831-23.155l11.776-92.826H304.62l11.776,92.826 C317.711,297.27,308.01,308.052,295.568,308.052z" fill="#edc877" transform="translate(0, 47.807351916376284)"></path><path d="M289.154,308.052l26.126,164.083c1.262,17.407-12.52,32.224-29.973,32.224h-59.743 c-17.453,0-31.235-14.817-29.973-32.224l26.127-164.083H289.154z" fill="brown" transform="translate(0, 20.54818954524216),scale(1, 1.0884879725085914)"></path><g transform="translate(-62.885017421602754, -1.8767247386759571),scale(1.2456445993031358, 1.2456445993031358)"><path d="M486.721,177.436C486.721,83.66,383.423,7.64,256,7.64S25.279,83.66,25.279,177.436 c0,0,60.923,24.821,231.069,24.821C402.668,202.257,486.721,177.436,486.721,177.436z" fill="gray"></path><path d="M78.473,190.094c0-27.917,7.119-51.615,21.17-72.703c14.739-22.121,36.339-38.855,64.201-49.739 c3.93-1.534,8.361,0.407,9.896,4.337c1.535,3.93-0.406,8.36-4.336,9.896c-48.787,19.058-75.754,59.094-75.754,110.556 L78.473,190.094z" fill="#FFD6CF"></path><path d="M197.61,75.093c17.57,13.477,42.74,10.16,56.218-7.412c13.477-17.57,10.16-42.74-7.412-56.217V7.797 c-19.458,0.586-38.292,2.943-56.217,6.863v4.217C176.721,36.447,180.039,61.616,197.61,75.093z" fill="#FFD6CF"></path><path d="M357.57,99.093c1.194,27.344,24.329,48.543,51.672,47.349c27.344-1.194,48.543-24.329,47.349-51.672 l0.474-0.651c-13.645-17.795-31.522-33.595-52.631-46.664C377.326,48.9,356.383,71.912,357.57,99.093z" fill="#FFD6CF"></path><path d="M289.509,130.598c-19.397-19.31-50.775-19.24-70.085,0.158s-19.239,50.775,0.158,70.085v1.009 c11.647,0.263,23.89,0.407,36.767,0.407c11.494,0,22.602-0.154,33.317-0.436v-1.138 C308.976,181.286,308.906,149.908,289.509,130.598z" fill="#FFD6CF"></path></g></g><g width="150" height="150" transform="translate(450,0),scale(0.29296875,0.29296875)"><path d="M295.568,308.052h-82.047c-12.443,0-22.142-10.782-20.831-23.155l11.776-92.826H304.62l11.776,92.826 C317.711,297.27,308.01,308.052,295.568,308.052z" fill="#edc877" transform="translate(0, 42.55193379790937)"></path><path d="M289.154,308.052l26.126,164.083c1.262,17.407-12.52,32.224-29.973,32.224h-59.743 c-17.453,0-31.235-14.817-29.973-32.224l26.127-164.083H289.154z" fill="brown" transform="translate(-22.988699999999966, 12.64625080821848),scale(1.0899999999999999, 1.0970790378006878)"></path><g transform="translate(-55.97212543554002, -1.6704181184668982),scale(1.2186411149825782, 1.2186411149825782)"><path d="M486.721,177.436C486.721,83.66,383.423,7.64,256,7.64S25.279,83.66,25.279,177.436 c0,0,60.923,24.821,231.069,24.821C402.668,202.257,486.721,177.436,486.721,177.436z" fill="brown"></path><path d="M78.473,190.094c0-27.917,7.119-51.615,21.17-72.703c14.739-22.121,36.339-38.855,64.201-49.739 c3.93-1.534,8.361,0.407,9.896,4.337c1.535,3.93-0.406,8.36-4.336,9.896c-48.787,19.058-75.754,59.094-75.754,110.556 L78.473,190.094z" fill="#FFD6CF"></path><path d="M197.61,75.093c17.57,13.477,42.74,10.16,56.218-7.412c13.477-17.57,10.16-42.74-7.412-56.217V7.797 c-19.458,0.586-38.292,2.943-56.217,6.863v4.217C176.721,36.447,180.039,61.616,197.61,75.093z" fill="#FFD6CF"></path><path d="M357.57,99.093c1.194,27.344,24.329,48.543,51.672,47.349c27.344-1.194,48.543-24.329,47.349-51.672 l0.474-0.651c-13.645-17.795-31.522-33.595-52.631-46.664C377.326,48.9,356.383,71.912,357.57,99.093z" fill="#FFD6CF"></path><path d="M289.509,130.598c-19.397-19.31-50.775-19.24-70.085,0.158s-19.239,50.775,0.158,70.085v1.009 c11.647,0.263,23.89,0.407,36.767,0.407c11.494,0,22.602-0.154,33.317-0.436v-1.138 C308.976,181.286,308.906,149.908,289.509,130.598z" fill="#FFD6CF"></path></g></g><g width="150" height="150" transform="translate(675,0),scale(0.29296875,0.29296875)"><path d="M289.154,308.052l26.126,164.083c1.262,17.407-12.52,32.224-29.973,32.224h-59.743 c-17.453,0-31.235-14.817-29.973-32.224l26.127-164.083H289.154z" fill="orange" transform="translate(-63.8575, -113.82767758360566),scale(1.25, 1.0816151202749138)"></path><g transform="translate(-35.90243902439022, -1.0714634146341453),scale(1.1402439024390243, 1.1402439024390243)"><path d="M486.721,177.436C486.721,83.66,383.423,7.64,256,7.64S25.279,83.66,25.279,177.436 c0,0,60.923,24.821,231.069,24.821C402.668,202.257,486.721,177.436,486.721,177.436z" fill="red"></path><path d="M78.473,190.094c0-27.917,7.119-51.615,21.17-72.703c14.739-22.121,36.339-38.855,64.201-49.739 c3.93-1.534,8.361,0.407,9.896,4.337c1.535,3.93-0.406,8.36-4.336,9.896c-48.787,19.058-75.754,59.094-75.754,110.556 L78.473,190.094z" fill="#FFD6CF"></path><path d="M197.61,75.093c17.57,13.477,42.74,10.16,56.218-7.412c13.477-17.57,10.16-42.74-7.412-56.217V7.797 c-19.458,0.586-38.292,2.943-56.217,6.863v4.217C176.721,36.447,180.039,61.616,197.61,75.093z" fill="#FFD6CF"></path><path d="M357.57,99.093c1.194,27.344,24.329,48.543,51.672,47.349c27.344-1.194,48.543-24.329,47.349-51.672 l0.474-0.651c-13.645-17.795-31.522-33.595-52.631-46.664C377.326,48.9,356.383,71.912,357.57,99.093z" fill="#FFD6CF"></path><path d="M289.509,130.598c-19.397-19.31-50.775-19.24-70.085,0.158s-19.239,50.775,0.158,70.085v1.009 c11.647,0.263,23.89,0.407,36.767,0.407c11.494,0,22.602-0.154,33.317-0.436v-1.138 C308.976,181.286,308.906,149.908,289.509,130.598z" fill="#FFD6CF"></path></g></g><g width="150" height="150" transform="translate(900,0),scale(0.29296875,0.29296875)"><path d="M295.568,308.052h-82.047c-12.443,0-22.142-10.782-20.831-23.155l11.776-92.826H304.62l11.776,92.826 C317.711,297.27,308.01,308.052,295.568,308.052z" fill="#edc877" transform="translate(0, 20.17402439024388)"></path><path d="M289.154,308.052l26.126,164.083c1.262,17.407-12.52,32.224-29.973,32.224h-59.743 c-17.453,0-31.235-14.817-29.973-32.224l26.127-164.083H289.154z" fill="brown" transform="translate(20.008683333333284, 11.969810472717999),scale(0.9216666666666669, 1.0266323024054986)"></path><g transform="translate(-26.536585365853625, -0.7919512195121943),scale(1.1036585365853657, 1.1036585365853657)"><path d="M486.721,177.436C486.721,83.66,383.423,7.64,256,7.64S25.279,83.66,25.279,177.436 c0,0,60.923,24.821,231.069,24.821C402.668,202.257,486.721,177.436,486.721,177.436z" fill="purple"></path><path d="M78.473,190.094c0-27.917,7.119-51.615,21.17-72.703c14.739-22.121,36.339-38.855,64.201-49.739 c3.93-1.534,8.361,0.407,9.896,4.337c1.535,3.93-0.406,8.36-4.336,9.896c-48.787,19.058-75.754,59.094-75.754,110.556 L78.473,190.094z" fill="#FFD6CF"></path><path d="M197.61,75.093c17.57,13.477,42.74,10.16,56.218-7.412c13.477-17.57,10.16-42.74-7.412-56.217V7.797 c-19.458,0.586-38.292,2.943-56.217,6.863v4.217C176.721,36.447,180.039,61.616,197.61,75.093z" fill="#FFD6CF"></path><path d="M357.57,99.093c1.194,27.344,24.329,48.543,51.672,47.349c27.344-1.194,48.543-24.329,47.349-51.672 l0.474-0.651c-13.645-17.795-31.522-33.595-52.631-46.664C377.326,48.9,356.383,71.912,357.57,99.093z" fill="#FFD6CF"></path><path d="M289.509,130.598c-19.397-19.31-50.775-19.24-70.085,0.158s-19.239,50.775,0.158,70.085v1.009 c11.647,0.263,23.89,0.407,36.767,0.407c11.494,0,22.602-0.154,33.317-0.436v-1.138 C308.976,181.286,308.906,149.908,289.509,130.598z" fill="#FFD6CF"></path></g></g><g width="150" height="150" transform="translate(1125,0),scale(0.29296875,0.29296875)"><path d="M295.568,308.052h-82.047c-12.443,0-22.142-10.782-20.831-23.155l11.776-92.826H304.62l11.776,92.826 C317.711,297.27,308.01,308.052,295.568,308.052z" fill="#edc877" transform="translate(0, 5.764006968641133)"></path><path d="M289.154,308.052l26.126,164.083c1.262,17.407-12.52,32.224-29.973,32.224h-59.743 c-17.453,0-31.235-14.817-29.973-32.224l26.127-164.083H289.154z" fill="orange" transform="translate(2.554299999999946, 12.90961263874427),scale(0.9900000000000002, 0.9768041237113401)"></path><g transform="translate(-7.581881533101068, -0.22627177700348478),scale(1.029616724738676, 1.029616724738676)"><path d="M486.721,177.436C486.721,83.66,383.423,7.64,256,7.64S25.279,83.66,25.279,177.436 c0,0,60.923,24.821,231.069,24.821C402.668,202.257,486.721,177.436,486.721,177.436z" fill="red"></path><path d="M78.473,190.094c0-27.917,7.119-51.615,21.17-72.703c14.739-22.121,36.339-38.855,64.201-49.739 c3.93-1.534,8.361,0.407,9.896,4.337c1.535,3.93-0.406,8.36-4.336,9.896c-48.787,19.058-75.754,59.094-75.754,110.556 L78.473,190.094z" fill="#FFD6CF"></path><path d="M197.61,75.093c17.57,13.477,42.74,10.16,56.218-7.412c13.477-17.57,10.16-42.74-7.412-56.217V7.797 c-19.458,0.586-38.292,2.943-56.217,6.863v4.217C176.721,36.447,180.039,61.616,197.61,75.093z" fill="#FFD6CF"></path><path d="M357.57,99.093c1.194,27.344,24.329,48.543,51.672,47.349c27.344-1.194,48.543-24.329,47.349-51.672 l0.474-0.651c-13.645-17.795-31.522-33.595-52.631-46.664C377.326,48.9,356.383,71.912,357.57,99.093z" fill="#FFD6CF"></path><path d="M289.509,130.598c-19.397-19.31-50.775-19.24-70.085,0.158s-19.239,50.775,0.158,70.085v1.009 c11.647,0.263,23.89,0.407,36.767,0.407c11.494,0,22.602-0.154,33.317-0.436v-1.138 C308.976,181.286,308.906,149.908,289.509,130.598z" fill="#FFD6CF"></path></g></g><g width="150" height="150" transform="translate(0,225),scale(0.29296875,0.29296875)"><path d="M295.568,308.052h-82.047c-12.443,0-22.142-10.782-20.831-23.155l11.776-92.826H304.62l11.776,92.826 C317.711,297.27,308.01,308.052,295.568,308.052z" fill="#edc877" transform="translate(0, 0.8476480836236756)"></path><path d="M289.154,308.052l26.126,164.083c1.262,17.407-12.52,32.224-29.973,32.224h-59.743 c-17.453,0-31.235-14.817-29.973-32.224l26.127-164.083H289.154z" fill="orange" transform="translate(-8.514333333333303, -14.766823565860806),scale(1.0333333333333332, 1.0506872852233675)"></path><g transform="translate(-1.1149825783971892, -0.03327526132404113),scale(1.004355400696864, 1.004355400696864)"><path d="M486.721,177.436C486.721,83.66,383.423,7.64,256,7.64S25.279,83.66,25.279,177.436 c0,0,60.923,24.821,231.069,24.821C402.668,202.257,486.721,177.436,486.721,177.436z" fill="red"></path><path d="M78.473,190.094c0-27.917,7.119-51.615,21.17-72.703c14.739-22.121,36.339-38.855,64.201-49.739 c3.93-1.534,8.361,0.407,9.896,4.337c1.535,3.93-0.406,8.36-4.336,9.896c-48.787,19.058-75.754,59.094-75.754,110.556 L78.473,190.094z" fill="#FFD6CF"></path><path d="M197.61,75.093c17.57,13.477,42.74,10.16,56.218-7.412c13.477-17.57,10.16-42.74-7.412-56.217V7.797 c-19.458,0.586-38.292,2.943-56.217,6.863v4.217C176.721,36.447,180.039,61.616,197.61,75.093z" fill="#FFD6CF"></path><path d="M357.57,99.093c1.194,27.344,24.329,48.543,51.672,47.349c27.344-1.194,48.543-24.329,47.349-51.672 l0.474-0.651c-13.645-17.795-31.522-33.595-52.631-46.664C377.326,48.9,356.383,71.912,357.57,99.093z" fill="#FFD6CF"></path><path d="M289.509,130.598c-19.397-19.31-50.775-19.24-70.085,0.158s-19.239,50.775,0.158,70.085v1.009 c11.647,0.263,23.89,0.407,36.767,0.407c11.494,0,22.602-0.154,33.317-0.436v-1.138 C308.976,181.286,308.906,149.908,289.509,130.598z" fill="#FFD6CF"></path></g></g><g width="150" height="150" transform="translate(225,225),scale(0.29296875,0.29296875)"><path d="M295.568,308.052h-82.047c-12.443,0-22.142-10.782-20.831-23.155l11.776-92.826H304.62l11.776,92.826 C317.711,297.27,308.01,308.052,295.568,308.052z" fill="#edc877" transform="translate(0, -2.5429442508710918)"></path><path d="M289.154,308.052l26.126,164.083c1.262,17.407-12.52,32.224-29.973,32.224h-59.743 c-17.453,0-31.235-14.817-29.973-32.224l26.127-164.083H289.154z" fill="orange" transform="translate(63.8575, 32.1264758522217),scale(0.75, 0.8874570446735395)"></path><g transform="translate(3.344947735191653, 0.09982578397212594),scale(0.9869337979094076, 0.9869337979094076)"><path d="M486.721,177.436C486.721,83.66,383.423,7.64,256,7.64S25.279,83.66,25.279,177.436 c0,0,60.923,24.821,231.069,24.821C402.668,202.257,486.721,177.436,486.721,177.436z" fill="red"></path><path d="M78.473,190.094c0-27.917,7.119-51.615,21.17-72.703c14.739-22.121,36.339-38.855,64.201-49.739 c3.93-1.534,8.361,0.407,9.896,4.337c1.535,3.93-0.406,8.36-4.336,9.896c-48.787,19.058-75.754,59.094-75.754,110.556 L78.473,190.094z" fill="#FFD6CF"></path><path d="M197.61,75.093c17.57,13.477,42.74,10.16,56.218-7.412c13.477-17.57,10.16-42.74-7.412-56.217V7.797 c-19.458,0.586-38.292,2.943-56.217,6.863v4.217C176.721,36.447,180.039,61.616,197.61,75.093z" fill="#FFD6CF"></path><path d="M357.57,99.093c1.194,27.344,24.329,48.543,51.672,47.349c27.344-1.194,48.543-24.329,47.349-51.672 l0.474-0.651c-13.645-17.795-31.522-33.595-52.631-46.664C377.326,48.9,356.383,71.912,357.57,99.093z" fill="#FFD6CF"></path><path d="M289.509,130.598c-19.397-19.31-50.775-19.24-70.085,0.158s-19.239,50.775,0.158,70.085v1.009 c11.647,0.263,23.89,0.407,36.767,0.407c11.494,0,22.602-0.154,33.317-0.436v-1.138 C308.976,181.286,308.906,149.908,289.509,130.598z" fill="#FFD6CF"></path></g></g><g width="150" height="150" transform="translate(450,225),scale(0.29296875,0.29296875)"><path d="M289.154,308.052l26.126,164.083c1.262,17.407-12.52,32.224-29.973,32.224h-59.743 c-17.453,0-31.235-14.817-29.973-32.224l26.127-164.083H289.154z" fill="orange" transform="translate(-19.15724999999999, -102.52798282086285),scale(1.075, 0.9458762886597938)"></path><g transform="translate(4.236933797909444, 0.12644599303135995),scale(0.9834494773519162, 0.9834494773519162)"><path d="M486.721,177.436C486.721,83.66,383.423,7.64,256,7.64S25.279,83.66,25.279,177.436 c0,0,60.923,24.821,231.069,24.821C402.668,202.257,486.721,177.436,486.721,177.436z" fill="brown"></path><path d="M78.473,190.094c0-27.917,7.119-51.615,21.17-72.703c14.739-22.121,36.339-38.855,64.201-49.739 c3.93-1.534,8.361,0.407,9.896,4.337c1.535,3.93-0.406,8.36-4.336,9.896c-48.787,19.058-75.754,59.094-75.754,110.556 L78.473,190.094z" fill="#FFD6CF"></path><path d="M197.61,75.093c17.57,13.477,42.74,10.16,56.218-7.412c13.477-17.57,10.16-42.74-7.412-56.217V7.797 c-19.458,0.586-38.292,2.943-56.217,6.863v4.217C176.721,36.447,180.039,61.616,197.61,75.093z" fill="#FFD6CF"></path><path d="M357.57,99.093c1.194,27.344,24.329,48.543,51.672,47.349c27.344-1.194,48.543-24.329,47.349-51.672 l0.474-0.651c-13.645-17.795-31.522-33.595-52.631-46.664C377.326,48.9,356.383,71.912,357.57,99.093z" fill="#FFD6CF"></path><path d="M289.509,130.598c-19.397-19.31-50.775-19.24-70.085,0.158s-19.239,50.775,0.158,70.085v1.009 c11.647,0.263,23.89,0.407,36.767,0.407c11.494,0,22.602-0.154,33.317-0.436v-1.138 C308.976,181.286,308.906,149.908,289.509,130.598z" fill="#FFD6CF"></path></g></g><g width="150" height="150" transform="translate(675,225),scale(0.29296875,0.29296875)"><path d="M295.568,308.052h-82.047c-12.443,0-22.142-10.782-20.831-23.155l11.776-92.826H304.62l11.776,92.826 C317.711,297.27,308.01,308.052,295.568,308.052z" fill="#edc877" transform="translate(0, -29.3286236933798)"></path><path d="M289.154,308.052l26.126,164.083c1.262,17.407-12.52,32.224-29.973,32.224h-59.743 c-17.453,0-31.235-14.817-29.973-32.224l26.127-164.083H289.154z" fill="orange" transform="translate(-9.36576666666677, -34.88631699234892),scale(1.036666666666667, 1.0180412371134022)"></path><g transform="translate(38.578397212543564, 1.151324041811847),scale(0.8493031358885017, 0.8493031358885017)"><path d="M486.721,177.436C486.721,83.66,383.423,7.64,256,7.64S25.279,83.66,25.279,177.436 c0,0,60.923,24.821,231.069,24.821C402.668,202.257,486.721,177.436,486.721,177.436z" fill="red"></path><path d="M78.473,190.094c0-27.917,7.119-51.615,21.17-72.703c14.739-22.121,36.339-38.855,64.201-49.739 c3.93-1.534,8.361,0.407,9.896,4.337c1.535,3.93-0.406,8.36-4.336,9.896c-48.787,19.058-75.754,59.094-75.754,110.556 L78.473,190.094z" fill="#FFD6CF"></path><path d="M197.61,75.093c17.57,13.477,42.74,10.16,56.218-7.412c13.477-17.57,10.16-42.74-7.412-56.217V7.797 c-19.458,0.586-38.292,2.943-56.217,6.863v4.217C176.721,36.447,180.039,61.616,197.61,75.093z" fill="#FFD6CF"></path><path d="M357.57,99.093c1.194,27.344,24.329,48.543,51.672,47.349c27.344-1.194,48.543-24.329,47.349-51.672 l0.474-0.651c-13.645-17.795-31.522-33.595-52.631-46.664C377.326,48.9,356.383,71.912,357.57,99.093z" fill="#FFD6CF"></path><path d="M289.509,130.598c-19.397-19.31-50.775-19.24-70.085,0.158s-19.239,50.775,0.158,70.085v1.009 c11.647,0.263,23.89,0.407,36.767,0.407c11.494,0,22.602-0.154,33.317-0.436v-1.138 C308.976,181.286,308.906,149.908,289.509,130.598z" fill="#FFD6CF"></path></g></g><g width="150" height="150" transform="translate(900,225),scale(0.29296875,0.29296875)"><path d="M295.568,308.052h-82.047c-12.443,0-22.142-10.782-20.831-23.155l11.776-92.826H304.62l11.776,92.826 C317.711,297.27,308.01,308.052,295.568,308.052z" fill="#edc877" transform="translate(0, -32.041097560975615)"></path><path d="M289.154,308.052l26.126,164.083c1.262,17.407-12.52,32.224-29.973,32.224h-59.743 c-17.453,0-31.235-14.817-29.973-32.224l26.127-164.083H289.154z" fill="brown" transform="translate(45.125966666666606, 44.97265243902438),scale(0.8233333333333336, 0.75)"></path><g transform="translate(42.14634146341464, 1.2578048780487805),scale(0.8353658536585366, 0.8353658536585366)"><path d="M486.721,177.436C486.721,83.66,383.423,7.64,256,7.64S25.279,83.66,25.279,177.436 c0,0,60.923,24.821,231.069,24.821C402.668,202.257,486.721,177.436,486.721,177.436z" fill="brown"></path><path d="M78.473,190.094c0-27.917,7.119-51.615,21.17-72.703c14.739-22.121,36.339-38.855,64.201-49.739 c3.93-1.534,8.361,0.407,9.896,4.337c1.535,3.93-0.406,8.36-4.336,9.896c-48.787,19.058-75.754,59.094-75.754,110.556 L78.473,190.094z" fill="#FFD6CF"></path><path d="M197.61,75.093c17.57,13.477,42.74,10.16,56.218-7.412c13.477-17.57,10.16-42.74-7.412-56.217V7.797 c-19.458,0.586-38.292,2.943-56.217,6.863v4.217C176.721,36.447,180.039,61.616,197.61,75.093z" fill="#FFD6CF"></path><path d="M357.57,99.093c1.194,27.344,24.329,48.543,51.672,47.349c27.344-1.194,48.543-24.329,47.349-51.672 l0.474-0.651c-13.645-17.795-31.522-33.595-52.631-46.664C377.326,48.9,356.383,71.912,357.57,99.093z" fill="#FFD6CF"></path><path d="M289.509,130.598c-19.397-19.31-50.775-19.24-70.085,0.158s-19.239,50.775,0.158,70.085v1.009 c11.647,0.263,23.89,0.407,36.767,0.407c11.494,0,22.602-0.154,33.317-0.436v-1.138 C308.976,181.286,308.906,149.908,289.509,130.598z" fill="#FFD6CF"></path></g></g><g width="150" height="150" transform="translate(1125,225),scale(0.29296875,0.29296875)"><path d="M289.154,308.052l26.126,164.083c1.262,17.407-12.52,32.224-29.973,32.224h-59.743 c-17.453,0-31.235-14.817-29.973-32.224l26.127-164.083H289.154z" fill="orange" transform="translate(54.06601666666664, -91.85568298969073),scale(0.7883333333333334, 0.763745704467354)"></path><g transform="translate(64, 1.9100000000000001),scale(0.75, 0.75)"><path d="M486.721,177.436C486.721,83.66,383.423,7.64,256,7.64S25.279,83.66,25.279,177.436 c0,0,60.923,24.821,231.069,24.821C402.668,202.257,486.721,177.436,486.721,177.436z" fill="brown"></path><path d="M78.473,190.094c0-27.917,7.119-51.615,21.17-72.703c14.739-22.121,36.339-38.855,64.201-49.739 c3.93-1.534,8.361,0.407,9.896,4.337c1.535,3.93-0.406,8.36-4.336,9.896c-48.787,19.058-75.754,59.094-75.754,110.556 L78.473,190.094z" fill="#FFD6CF"></path><path d="M197.61,75.093c17.57,13.477,42.74,10.16,56.218-7.412c13.477-17.57,10.16-42.74-7.412-56.217V7.797 c-19.458,0.586-38.292,2.943-56.217,6.863v4.217C176.721,36.447,180.039,61.616,197.61,75.093z" fill="#FFD6CF"></path><path d="M357.57,99.093c1.194,27.344,24.329,48.543,51.672,47.349c27.344-1.194,48.543-24.329,47.349-51.672 l0.474-0.651c-13.645-17.795-31.522-33.595-52.631-46.664C377.326,48.9,356.383,71.912,357.57,99.093z" fill="#FFD6CF"></path><path d="M289.509,130.598c-19.397-19.31-50.775-19.24-70.085,0.158s-19.239,50.775,0.158,70.085v1.009 c11.647,0.263,23.89,0.407,36.767,0.407c11.494,0,22.602-0.154,33.317-0.436v-1.138 C308.976,181.286,308.906,149.908,289.509,130.598z" fill="#FFD6CF"></path></g></g><g width="150" height="150" transform="translate(0,450),scale(0.29296875,0.29296875)"><path d="M295.568,308.052h-82.047c-12.443,0-22.142-10.782-20.831-23.155l11.776-92.826H304.62l11.776,92.826 C317.711,297.27,308.01,308.052,295.568,308.052z" fill="#edc877" transform="translate(0, 46.95970383275261)"></path><path d="M289.154,308.052l26.126,164.083c1.262,17.407-12.52,32.224-29.973,32.224h-59.743 c-17.453,0-31.235-14.817-29.973-32.224l26.127-164.083H289.154z" fill="orange" transform="translate(-50.23456666666664, -25.819613177556743),scale(1.1966666666666665, 1.2362542955326463)"></path><g transform="translate(-61.770034843205565, -1.8434494773519141),scale(1.2412891986062717, 1.2412891986062717)"><path d="M486.721,177.436C486.721,83.66,383.423,7.64,256,7.64S25.279,83.66,25.279,177.436 c0,0,60.923,24.821,231.069,24.821C402.668,202.257,486.721,177.436,486.721,177.436z" fill="orange"></path><path d="M78.473,190.094c0-27.917,7.119-51.615,21.17-72.703c14.739-22.121,36.339-38.855,64.201-49.739 c3.93-1.534,8.361,0.407,9.896,4.337c1.535,3.93-0.406,8.36-4.336,9.896c-48.787,19.058-75.754,59.094-75.754,110.556 L78.473,190.094z" fill="#FFD6CF"></path><path d="M197.61,75.093c17.57,13.477,42.74,10.16,56.218-7.412c13.477-17.57,10.16-42.74-7.412-56.217V7.797 c-19.458,0.586-38.292,2.943-56.217,6.863v4.217C176.721,36.447,180.039,61.616,197.61,75.093z" fill="#FFD6CF"></path><path d="M357.57,99.093c1.194,27.344,24.329,48.543,51.672,47.349c27.344-1.194,48.543-24.329,47.349-51.672 l0.474-0.651c-13.645-17.795-31.522-33.595-52.631-46.664C377.326,48.9,356.383,71.912,357.57,99.093z" fill="#FFD6CF"></path><path d="M289.509,130.598c-19.397-19.31-50.775-19.24-70.085,0.158s-19.239,50.775,0.158,70.085v1.009 c11.647,0.263,23.89,0.407,36.767,0.407c11.494,0,22.602-0.154,33.317-0.436v-1.138 C308.976,181.286,308.906,149.908,289.509,130.598z" fill="#FFD6CF"></path></g></g><g width="150" height="150" transform="translate(225,450),scale(0.29296875,0.29296875)"><path d="M295.568,308.052h-82.047c-12.443,0-22.142-10.782-20.831-23.155l11.776-92.826H304.62l11.776,92.826 C317.711,297.27,308.01,308.052,295.568,308.052z" fill="#edc877" transform="translate(0, 42.04334494773519)"></path><path d="M289.154,308.052l26.126,164.083c1.262,17.407-12.52,32.224-29.973,32.224h-59.743 c-17.453,0-31.235-14.817-29.973-32.224l26.127-164.083H289.154z" fill="gray" transform="translate(-59.60033333333341, 10.020445463199021),scale(1.2333333333333336, 1.1039518900343646)"></path><g transform="translate(-55.30313588850174, -1.6504529616724746),scale(1.21602787456446, 1.21602787456446)"><path d="M486.721,177.436C486.721,83.66,383.423,7.64,256,7.64S25.279,83.66,25.279,177.436 c0,0,60.923,24.821,231.069,24.821C402.668,202.257,486.721,177.436,486.721,177.436z" fill="red"></path><path d="M78.473,190.094c0-27.917,7.119-51.615,21.17-72.703c14.739-22.121,36.339-38.855,64.201-49.739 c3.93-1.534,8.361,0.407,9.896,4.337c1.535,3.93-0.406,8.36-4.336,9.896c-48.787,19.058-75.754,59.094-75.754,110.556 L78.473,190.094z" fill="#FFD6CF"></path><path d="M197.61,75.093c17.57,13.477,42.74,10.16,56.218-7.412c13.477-17.57,10.16-42.74-7.412-56.217V7.797 c-19.458,0.586-38.292,2.943-56.217,6.863v4.217C176.721,36.447,180.039,61.616,197.61,75.093z" fill="#FFD6CF"></path><path d="M357.57,99.093c1.194,27.344,24.329,48.543,51.672,47.349c27.344-1.194,48.543-24.329,47.349-51.672 l0.474-0.651c-13.645-17.795-31.522-33.595-52.631-46.664C377.326,48.9,356.383,71.912,357.57,99.093z" fill="#FFD6CF"></path><path d="M289.509,130.598c-19.397-19.31-50.775-19.24-70.085,0.158s-19.239,50.775,0.158,70.085v1.009 c11.647,0.263,23.89,0.407,36.767,0.407c11.494,0,22.602-0.154,33.317-0.436v-1.138 C308.976,181.286,308.906,149.908,289.509,130.598z" fill="#FFD6CF"></path></g></g></g></svg>