<svg width="400" height="200" viewBox="-180 -200 350 350" xmlns="http://www.w3.org/2000/svg">
    <g id="parent_group">
        <g class="center_semi_circle">
            <circle class="genre_circle" fill="#8dd3c7" r="0" cx="-0.375" cy="39.625" transform="rotate(90,0,-30)"
                opacity="0.5"/>
            <circle class="genre_circle" fill="#b3de69" r="50" cx="-0.375" cy="39.625" transform="rotate(135,0,-30)"
                opacity="0.5"
                style="height:auto;opacity:0.5;overflow-x:visible;overflow-y:visible;width:auto;perspective-origin:0px 0px;transform:matrix(-0.707107, 0.707107, -0.707107, -0.707107, -21.2132, -51.2132);transform-origin:0px 0px;filter:url(&quot;#glow&quot;);fill:rgb(179, 222, 105);cx:-0.375px;cy:39.625px;r:50px;" />
            <circle class="genre_circle" fill="#fb8072" r="50" cx="-0.375" cy="39.625" transform="rotate(180,0,-30)"
                opacity="0.5"
                style="height:auto;opacity:0.5;overflow-x:visible;overflow-y:visible;width:auto;perspective-origin:0px 0px;transform:matrix(-1, 1.22465e-16, -1.22465e-16, -1, -3.67394e-15, -60);transform-origin:0px 0px;filter:url(&quot;#glow&quot;);fill:rgb(251, 128, 114);cx:-0.375px;cy:39.625px;r:50px;" />
            <circle class="genre_circle" fill="#d9d9d9" r="50" cx="-0.375" cy="39.625" transform="rotate(225,0,-30)"
                opacity="0.5"
                style="height:auto;opacity:0.5;overflow-x:visible;overflow-y:visible;width:auto;perspective-origin:0px 0px;transform:matrix(-0.707107, -0.707107, 0.707107, -0.707107, 21.2132, -51.2132);transform-origin:0px 0px;filter:url(&quot;#glow&quot;);fill:rgb(217, 217, 217);cx:-0.375px;cy:39.625px;r:50px;" />
            <circle class="genre_circle" fill="#d9d9d9" r="0" cx="-0.375" cy="39.625" transform="rotate(270,0,-30)"
                opacity="0.5"/>
            <path d="M1.83697019872103e-15,-30A30,30,0,0,1,28.050487280562447,10.638146611276072L0,0Z" fill="#5DADE2"
                transform="rotate(-90,0,0)" class="progress_circle"/>
            <path d="M1.83697019872103e-15,-30A30,30,0,1,1,1.83697019872103e-15,30L0,0Z" fill="none" stroke="#808B96"
                transform="rotate(-90,0,0)" class="full_circle"/>
        </g>
        <defs
            style="height:auto;overflow-x:visible;overflow-y:visible;width:auto;perspective-origin:0px 0px;transform-origin:0px 0px;">
            <filter id="glow"
                style="height:auto;overflow-x:visible;overflow-y:visible;width:auto;perspective-origin:0px 0px;transform-origin:0px 0px;">
                <feGaussianBlur stdDeviation="8"
                    style="height:auto;overflow-x:visible;overflow-y:visible;width:auto;perspective-origin:0px 0px;transform-origin:0px 0px;" />
            </filter>
        </defs>
        <rect x="-0.375" y="39.625" width="6" opacity="1" height="145" fill="#273746" stroke="none"
            transform="rotate(90,0,0)"/>
        <rect x="-0.375" y="39.625" width="0.75" opacity="1" height="125" fill="none" stroke="#808B96"
            transform="rotate(99,0,0)"/>
        <rect x="-0.375" y="39.625" width="0.75" opacity="1" height="125" fill="none" stroke="#808B96"
            transform="rotate(108,0,0)"/>
        <rect x="-0.375" y="39.625" width="0.75" opacity="1" height="125" fill="none" stroke="#808B96"
            transform="rotate(117,0,0)"/>
        <rect x="-0.375" y="39.625" width="0.75" opacity="1" height="125" fill="none" stroke="#808B96"
            transform="rotate(126,0,0)"/>
        <rect x="-0.375" y="39.625" width="0.75" opacity="1" height="125" fill="none" stroke="#808B96"
            transform="rotate(135,0,0)"/>
        <rect x="-0.375" y="39.625" width="0.75" opacity="1" height="125" fill="none" stroke="#808B96"
            transform="rotate(144,0,0)"/>
        <rect x="-0.375" y="39.625" width="0.75" opacity="1" height="125" fill="none" stroke="#808B96"
            transform="rotate(153,0,0)"/>
        <rect x="-0.375" y="39.625" width="0.75" opacity="1" height="125" fill="none" stroke="#808B96"
            transform="rotate(162,0,0)"/>
        <rect x="-0.375" y="39.625" width="0.75" opacity="1" height="125" fill="none" stroke="#808B96"
            transform="rotate(171,0,0)"/>
        <rect x="-0.375" y="39.625" width="0.75" opacity="1" height="125" fill="none" stroke="#808B96"
            transform="rotate(180,0,0)"/>
        <rect x="-0.375" y="39.625" width="0.75" opacity="1" height="125" fill="none" stroke="#808B96"
            transform="rotate(189,0,0)"/>
        <rect x="-0.375" y="39.625" width="0.75" opacity="1" height="125" fill="none" stroke="#808B96"
            transform="rotate(198,0,0)"/>
        <rect x="-0.375" y="39.625" width="0.75" opacity="1" height="125" fill="none" stroke="#808B96"
            transform="rotate(207,0,0)"/>
        <rect x="-0.375" y="39.625" width="0.75" opacity="1" height="125" fill="none" stroke="#808B96"
            transform="rotate(216,0,0)"/>
        <rect x="-0.375" y="39.625" width="0.75" opacity="1" height="125" fill="none" stroke="#808B96"
            transform="rotate(225,0,0)"/>
        <rect x="-0.375" y="39.625" width="0.75" opacity="1" height="125" fill="none" stroke="#808B96"
            transform="rotate(234,0,0)"/>
        <rect x="-0.375" y="39.625" width="0.75" opacity="1" height="125" fill="none" stroke="#808B96"
            transform="rotate(243,0,0)"/>
        <rect x="-0.375" y="39.625" width="0.75" opacity="1" height="125" fill="none" stroke="#808B96"
            transform="rotate(252,0,0)"/>
        <rect x="-0.375" y="39.625" width="0.75" opacity="1" height="12.5" fill="none" stroke="#808B96"
            transform="rotate(261,0,0)"/>
        <rect x="-0.375" y="39.625" width="6.9" opacity="1" height="145" fill="#273746" stroke="none"
            transform="rotate(270,0,0)"/>
        <g class="bookmark_images">
            <image
                xlink:href="https://github.com/projectpolymer/bookreading/blob/2549156a060124e3f07f25c9eb2b4492a3a6ae08/novels.png?raw=true"
                width="30" height="30" transform="translate(120,0)" />
        </g>
        <g class="status circle">
            <circle r="7" fill="#2ECC71" transform="translate(160, 15)"/>
        </g>
        <g class="titles", font-family="Roboto">
            <text text-anchor="middle" fill="#273746" transform="translate(0, 50)">The woman in the window</text>
            <text text-anchor="middle" fill="#808B96" font-family="Roboto" transform="translate(0, 70)">Abhilash</text>
        </g>
    </g>
</svg>