<?xml version="1.0" encoding="utf-8"?>
<!-- Generator: Adobe Illustrator 25.2.3, SVG Export Plug-In . SVG Version: 6.00 Build 0)  -->
<svg version="1.1" id="mainGraph" transform="translate(75, 0)"
	 xmlns="http://www.w3.org/2000/svg" xmlns:xlink="http://www.w3.org/1999/xlink" x="0px" y="0px" viewBox="0 0 1400 700"
	 style="enable-background:new 0 0 1400 700;" xml:space="preserve">
<style type="text/css">
	.st0{fill:#DFFFDF;stroke:#000000;stroke-width:0.9333;stroke-miterlimit:3.7333;}
	.st1{fill:#754C24;}
	.st2{fill:#512C0E;}
	.st3{fill:#85CCA2;}
	.st4{fill:#FF0000;}
	.st5{fill:#FFFFFF;}
</style>
<path class="st0" d="M773.3,484l-0.7-4.9l-11.6-7.5l-11,0.1l-20.5,5.1l-1.5,6.3l-3.2,6.4l0.7,7.3l-2.6,16.6l-2.2-3.2H707l-3.6,10.6
	l-3.6-7.7l-5.4-1.6l-8.6,0.3l-6.4-4.6l-1.1,4.8l-4.1,1.4l-4.4,8.5l-8.1,0.2l-0.3-3.8l-3.9-8.7l-2.5-9.5l-4.3-9.1l-2.6-1.8l-1.8-6.1
	l2.4-9l-6.7-7.3l-3.2-13l-2-0.8l-3.1-6.7l0.4-6l4.2-9.4l-6.1-10.8l2.9-6l-3.3-3.8l1.3-5.2l3.9-5.5l-2.1-6.5l-0.5-12.5l3.2-5.1
	l-12.3-22l11.8,2.3l3.8-1.9l2.1-4l4.2,0.3l4.8-5.5l3.2-0.9l5-5l10.5-1.9l5.6,0.8l0.4,5.5l-1.7,3.6l2.2,7.4l-0.3,5.6l4.8,8.5l6.4,3.5
	l1.6,3.1l6.9-0.1l12.5,7.5l7.3,1.9l4.9,5.8l11.5,0.3l5.5,3.7l0.2,4.3l2.7,7.2l3.7,23.2l20.1,0.9l2,13.2l7.4,4.1l3.6,8.9l-1.7,12.5
	l-3.2,9.5l3.5,3.6L773.3,484z"/>
<path class="st0" d="M844.4,207.1l-0.6,6.5l-6.2,6.1l1.3-8.5L844.4,207.1z M858.1,201.1l5.3,1.5l5.3-1.4l9.6,1.6l-1.3,9l-3.8,4.2
	l0.2,3.5l-12,5.3l-2.8-1.6l-4.3,1.8l-4.9-5.7l0.3-10.8l2.3-6.6L858.1,201.1z M780.4,171.8l5.6,1.5l1.3-2.9l-2.4-4.2l13.4-3.7
	l4.9,3.7l5.8,3.1l3.3-2.7l6.4-0.7l4.4,2.5l3.4-2.6l9-19l3.8-4.7l2.1-5.7l5.2,7.9l-0.2,7.1l1.7,7.8l5.4,13.9l7.1,2.4l0.2,7l-5.1,4.9
	l-5.9,9.1l-5.1,3.1l-8.8,16l0.2,5.5l13.3-7.6l0.1,5.8l3.1,6.4l6.6-0.9l9.7,1.8l3.2-4.9l7.6-4l2.2-7.6l7-2.9l13.5,6.3l16,6.5l3.4,0.3
	l4.4,4.8l0.6,7.8l-2.5,7.2l3.1,0.5l0.7-5.6l4.4,1.2l8.5-4.1l7.4,3l3.2,2.7l13.5,2.4l10.3-1.9l6.3,0.8l7.7,4.8l8.6,7l2.4,0.6l4.3,6.1
	l11.5,10.6l7.2,2.7l7.2-0.8l5.9,1.4l3.1,4.8l6.1,23.7l0.1,10.5l-3.8,14.2l-5,8.8l-3.3,2.8l-6.4,10.8l-5.8,3.8l-6.1,11.3l-2.4,6.7
	l-7.6,12.5l-5.2-2.8l-1,6l-2.5,3.3l2.1,8.6l-1.3,9.5l3.3,16.5l-3.2,18.7l-0.3,10l-2.6,2l-2.3,7.3l1,12.7l-3.5,4.9l-3.2,10.4
	l-4.3,4.9l-3.4,9.6l1.7,6l-8,4.8l-3.6,4.6l-0.3,4.9l-11.6,0.3l-6,1l-4-2.1l-6.7,1.4l-6.9,7.3l-9.1,3.4l-12.3,7.8l-2.3,3.2l-7.2,5.1
	l-1,4.4l-5.1,6l-2.5,9.9l4.5,21.9l-1.7,10.6l-5.6,4.4l-4.6,7.4l-4,14.5l-2.8-2l-6.9-0.9l-2.3,5.7l0.1,6l-5.1,3.3l-2.7,7.5l2,4.8
	l-2.2,4.6l-1.6,8.5l-7.3,9.1l-2.1-1.4l-0.8-7.8l3.7-4.9l-6.9-5.9l-2-4.1l-4.5-2l-6.2-6.2l-8.1-3.3l-4.8-5.6l-5-0.8l-11-9.8l-4.1,2.6
	l-4.8-1.5l2.9-2.8l8.8-13.3l6-11.6l3.6-2.1l5.5-6.5l11.7-6.6l1-4l-0.6-9.3l-3.8-8.4l-8.3-0.8l2.1-17.6l-0.3-4l-4.7-3.3l-3.6,2.2
	l-5.4,0.1l-4.3-13.8l-0.5-5.3l-3.6-4.5l-6.6-3.3l-4.7,3.1l-13.9-3.1l0.5-10.5l-0.9-8.5l-4.3-8l3.3-2.6l-3.5-3.6l3.2-9.5l1.7-12.5
	l-3.6-8.9l-7.4-4.1l-2-13.2l-20.1-0.9l-3.7-23.2l-2.7-7.2l-0.2-4.3l-5.5-3.7l-11.5-0.3l-4.9-5.8l-7.3-1.9l-12.5-7.5l-6.9,0.1
	l-1.6-3.1l-6.4-3.5l-4.8-8.5l0.3-5.6l-2.2-7.4l1.7-3.6l-0.4-5.5l-5.6-0.8l-10.5,1.9l-5,5l-3.2,0.9l-4.8,5.5l-4.2-0.3l-2.1,4
	l-3.8,1.9l-11.8-2.3l-4.6-0.4l-3.9,2l-4.3-0.8l-1.7-20.9l-8.2,6.7h-9.8l-1.7-6.5l-11.2-1.9l2.6-6l-7.3-8.8l-2.4-8.1l-3.3-2.9
	l2.1-9.6l7.5-6.6l-1.5-5l2.7-5.2l0.7-8.2l13.7-9.2l9.8-1.4l1.6-2.9l4.9-0.6l5.7,1.4l2.7-18.7l3.6-24.4l-2.9-9.6l-5.4-5.4l0.2-10
	L626,190l-2.8-5.8h-5.8l0.1-8.6l6.1-0.7H638l4.6-1.4l5.5-3.9l2.6,5.4l0.2,6.4l2.7,0.4l6.4,6.5l7.3-3l3.6,4l3.8-6.2l5-1.7l7.6-4.9
	l0.7-4.2l7.9-3.6l0.3-3.8l-8-0.8l0.6-3.3l-2.6-5.9l0.3-6.6l-5.4-5.7l3.7-2.2l3.6,3.4l7.8-0.8l5.2,5.2l3-0.8l-0.1-5.1l14.7-3.2
	l3.4-3.9l3.5,0.1l5-5.4l-1.5-4.2l6.4-0.9l2.8,2.5l-2.2,8.1l4.3,0.9l3.1,7.3l-3.9,4.5l-2.2,12.9l3.1,6.1l-0.1,5.8l6.1,6.7l4.2,2.2
	l4.6-0.7l2.7-4.3l3.3,0.8l2.9-2.7l8.4-4.4l3.6,2L780.4,171.8z"/>
<path class="st0" d="M605,32l-8,2.7l-3.9,7l-2.7,0.4l-5.8,9.6l-2.2,16.3l2.6,3.4l1.1,5.7l3.3,4.4l-1.5,5.5l0.1,7.1l2.9,0.8l1.3,4.4
	l10.9,1.5l5.9-2l7.3,2.2l7.5,11.6l4.7-1.4l5.1,1.2l13-1.9l1.7,3.2l-2.9,7.8l-2.5,2.6l-0.6,11l2.6,10.6l3.9,4.8l-6.6,7.6l6.2,5.9
	l4.1,11.4l1.2,6.2l-2.7-0.4l-0.2-6.4l-2.6-5.4l-5.5,3.9L638,175h-14.4l-6.1,0.7l-0.1,8.6h5.8l2.8,5.8l-11.2,0.9l-0.2,10l5.4,5.4
	l2.9,9.6l-3.6,24.4l-2.7,18.7l-4.4-5.8l-5.1-0.7l8-15l-3.7-3.2l-7.8-4.1l-2.7,2l-6.7-2.8l-2.4,2.6l-5.2,1.6l-6.6-0.3l-3.2-2.9
	l0.1-5.9l-4.2-1.8l-1.3-5.9l-8-4.4l-1.5-5.3l-8.9-7.4l-1.7,0.8L545,198l-3.2-3.9l-10.3,1.7l-6.4-2.3l-3.7-6.2l-4.8-1.1L508,179
	l-0.2-5.4l5.2-10.8l4.2,1.1l4.2-1.7l1.3-6.3l5.6-7.7l-2.6-5.4l1.5-7.6l-0.1-10.6l-1.5-4.2l3.1-2.7l-1.8-6.4l1-4.3l-6.3-9.8l1.1-3.4
	l6-3.2l1.9-3.9l-3-7.7l1.4-1.8l6.2,7.3l2.3-7.7l5.4-4.7l7.8-9.9l2.5-12.4l8.6-7.4l4,2l4.1-4.8l10.8,0.3l6.8-5.7l6.2-2.7l1.8-3.1
	l6.2-5.1l4.9,2l1.3,3.3L605,32z"/>
<path class="st0" d="M551.1,200.7l0.2,5.9l-3.4,13.8l-6.4,8.8l-7.2,6.2l-14.1,5.8l-6.1,7.1l-1.5,6.5l-5.9,14.3h-3.6l-2.7-6.1
	l-7.1-3.1l-3.9,2.3l-1.1-6.7l3.8-1.7l-2.3-6.8l4.7-2.8l2.6-8.8l-7.2,2l-4.2-4.2l-2.5-11.3l1.2-3.8l-2.1-3.9l3.6-1.7l2.3-4.8
	l-0.9-3.1l5.2-6.1l0-10.8l14.4-6l0.8-2.7l8.6,7.2l4.8,1.1l3.7,6.2l6.4,2.3l10.3-1.7l3.2,3.9L551.1,200.7z"/>
<path class="st0" d="M355.5,197.1l1.9,5.1l4.7,7.7l-1.6,3l-5.7,0.7l-0.4-3.3l3.3-3.4l-2.4-3.3L355.5,197.1z"/>
<path class="st0" d="M839.2,142.3l-3.8,4.7l-9,19l-3.4,2.6l-4.4-2.5l-6.4,0.7l-3.3,2.7l-5.8-3.1l3.2-2.5l4.7-15.5l-4.4-6.5
	l-1.3-11.9l3.9-6.1l2.9-5.6l11.4,4l12.7,12.2L839.2,142.3z"/>
<path class="st0" d="M771.9,121.9l-1.2,6.5l-4.8,0.5l-4.4,11.8l2.8,6.9l3.1,4.4l3.4,0.1l0.9,7.1l5.9,11.5l2.7,1.3l-3.9,0.9l-3.6-2
	l-8.4,4.4l-2.9,2.7l-3.3-0.8l-2.7,4.3l-4.6,0.7l-4.2-2.2l-6.1-6.7l0.1-5.8l-3.1-6.1l2.2-12.9l3.9-4.5l-3.1-7.3l-4.3-0.9l2.2-8.1
	l-2.8-2.5l-6.4,0.9l-7.5-9.9l3.2-4l-0.8-5.7l9.7-4.9l-3.5-8.2l2.9-4.2l6-3.4l2.5-3.1l-2.3-3.8l10.1,7.1l8.1,10.5l0.6,6l4,0.8
	l10.6,10.4L771.9,121.9z"/>
<path class="st0" d="M616.7,259l-5.7-1.4l-4.9,0.6l-1.6,2.9l-9.8,1.4l-13.7,9.2l-0.7,8.2l-2.7,5.2l1.5,5l-7.5,6.6l-2.1,9.6l3.3,2.9
	l2.4,8.1l7.3,8.8l-2.6,6l11.2,1.9l1.7,6.5h9.8l8.2-6.7l1.7,20.9l4.3,0.8l3.9-2l4.6,0.4l12.3,22l-3.2,5.1l0.5,12.5l2.1,6.5l-3.9,5.5
	l-1.3,5.2l3.3,3.8l-2.9,6l6.1,10.8l-4.2,9.4l-0.4,6l-3.9,3.2l1.3,3.5l-1.8,3.8l-5,1.2l-12.6-10l-2.4-4.9l-3.6-1.3l-11.3-7.5
	l-12.8-6.2l-4.5-3.7l-14.2-8l-5.4-7.2l-4.9-3.3l-4.9-7.2l-0.2-11.1l-8.2-12.3l-4.8-5.8l-0.9-6l-5.7-4.9l-0.6-5.2l-5.2-8.2l-6.3-16.3
	l-6-10.7l-0.7-3.1l-6.2-7.1l-2.1-6.4l-4.6-6.7l-14.3-10.1l2.8-5.9l-4.4-6.2l1.6-2.6l-3.5-4.8l0.8-6.2l5.6-7.5l5.2-4.4l2.3,6.8
	l-3.8,1.7l1.1,6.7l3.9-2.3l7.1,3.1l2.7,6.1h3.6l5.9-14.3l1.5-6.5l6.1-7.1l14.1-5.8l7.2-6.2l6.4-8.8l3.4-13.8l-0.2-5.9l1.7-0.8
	l8.9,7.4l1.5,5.3l8,4.4l1.3,5.9l4.2,1.8l-0.1,5.9l3.2,2.9l6.6,0.3l5.2-1.6l2.4-2.6l6.7,2.8l2.7-2l7.8,4.1l3.7,3.2l-8,15l5.1,0.7
	L616.7,259z"/>
<path class="st0" d="M773.3,484l4.3,8l0.9,8.5l-0.5,10.5l13.9,3.1l4.7-3.1l6.6,3.3l3.6,4.5l0.5,5.3l4.3,13.8l5.4-0.1l3.6-2.2
	l4.7,3.3l0.3,4l-2.1,17.6l0.2,12.3l-2.6,5l-5,2.9l-3,6.4l-4.7-2.1l-4.7,2.2l-7.3,0.5l-9.4-3.1l-6.6,0.1l-1.9-1.7l4-5.6l0.8-9l5-9.5
	l-2.8-3.9l-5.9-3.4l-7.2-2.3l-15.8-10.9l-3.4,0.2l-8.6-3.2l-12.4-10.8l-4.9-7.9l-4.7-3.5l2.6-16.6l-0.7-7.3l3.2-6.4l1.5-6.3
	l20.5-5.1l11-0.1l11.6,7.5L773.3,484z"/>
<path class="st0" d="M809.3,123.8l-3.9,6.1l1.3,11.9l4.4,6.5l-4.7,15.5l-3.2,2.5l-4.9-3.7l-13.4,3.7l2.4,4.2l-1.3,2.9l-5.6-1.5
	l-2.7-1.3l-5.9-11.5l-0.9-7.1l-3.4-0.1l-3.1-4.4l-2.8-6.9l4.4-11.8l4.8-0.5l1.2-6.5l3.7-7.5l11.6,2.9l1.9-2.4l13.1-0.1l8.9,2
	L809.3,123.8z"/>
<path class="st0" d="M739.6,78.5l2.3,3.8l-2.5,3.1l-6,3.4l-2.9,4.2l3.5,8.2l-9.7,4.9l0.8,5.7l-3.2,4l7.5,9.9l1.5,4.2l-5,5.4
	l-3.5-0.1l-3.4,3.9l-14.7,3.2l0.1,5.1l-3,0.8l-5.2-5.2l-7.8,0.8l-3.6-3.4l-3.7,2.2l5.4,5.7l-0.3,6.6l2.6,5.9l-0.6,3.3l8,0.8
	l-0.3,3.8l-7.9,3.6l-0.7,4.2l-7.6,4.9l-5,1.7l-3.8,6.2l-3.6-4l-7.3,3l-6.4-6.5l-1.2-6.2l-4.1-11.4l-6.2-5.9l6.6-7.6l-3.9-4.8
	l-2.6-10.6l0.6-11l2.5-2.6l2.9-7.8l-1.7-3.2l-13,1.9l-5.1-1.2l-4.7,1.4l-7.5-11.6l-7.3-2.2l-5.9,2l-10.9-1.5l-1.3-4.4l-2.9-0.8
	l-0.1-7.1l1.5-5.5l-3.3-4.4l-1.1-5.7l-2.6-3.4l2.2-16.3l5.8-9.6l2.7-0.4l3.9-7l8-2.7l-7.9,3.7l0.1,3L601,48l-0.9,3.7l-6.5,8.8l4,6.5
	l0.7,4.3l5.1-1l2.8-3.2l0.4-5.6l-4.7-9.2l-0.3-4.8l8.4-6.3l8.5-2.6l-1-7l3.7-4.6l2,2.6l2,7.7l4.4-0.9l4.8,1.1l5.2,3.9l1.6,8.4
	l3.5,1.6l17.1-2.4l5,0.5l2.9,4.1l8.3,3l5.1-0.1l7.6-5.3l3.9,0.4l3.6-2.6l9.9-1.9l-1.8,3.2l4.9,8.6l2.7-1.4l3.8,2.8l5.2,0.1l7.7,6.7
	l-2.6,2.5l-0.4,8.4l7.5-0.9L739.6,78.5z"/>
<g transform="translate(615,352.216796875),scale(0.205078125,0.205078125)">
	<path class="st1" d="M416.2,162.3c0,0-8.9-15.5-8.9-29.5c0-10.1,4.4-21.3,4.4-21.3c1.2-3.2,0.3-7.7-2.1-10.1l-85.7-86.4
		c-2.4-2.4-6.3-2.4-8.7,0l-135,136L309,278.9l106-106.8C417.4,169.7,417.9,165.3,416.2,162.3z"/>
	<path class="st2" d="M409,100.9l-10.3-10.4l-40.9,41.2L327.2,101l40.9-41.2l-10.3-10.4l-40.9,41.2L278.6,52l-10.3,10.4l38.3,38.7
		l-32.3,32.5L236,94.9l-10.3,10.4l38.3,38.6l-45.2,45.5l10.4,10.3l45.1-45.5l30.6,30.8L260,230.3l10.4,10.3l44.8-45.1l38.3,38.6
		l10.3-10.4l-38.3-38.6l32.3-32.5l38.3,38.6l10.3-10.4l-38.3-38.6L409,100.9z M315.2,174.7l-30.6-30.8l32.3-32.5l30.6,30.8
		L315.2,174.7z"/>
	<path class="st3" d="M176.1,430.1c-4.8,4.8-12.6,4.8-17.4,0L31.2,301.6c-4.8-4.8-4.8-12.7,0-17.5l137-138.1
		c4.8-4.8,12.6-4.8,17.4,0l127.5,128.5c4.8,4.8,4.8,12.7,0,17.5L176.1,430.1z"/>
	<g transform="translate(155, 309)">
		<path class="st4" d="M17.3-70.8c27.3,0,49.5,22.1,49.5,49.5S44.6,28.1,17.3,28.1S-32.2,6-32.2-21.3h49.5V-70.8z"/>
		<path class="st5" d="M-32.2-21.3c0-27.3,22.1-49.5,49.5-49.5v49.5H-32.2z"/>
	</g>
	<path class="st1" d="M467.3,129.2c2.4,2.4,2.4,6.4,0,8.8l-17.1,17.2c-2.4,2.4-6.3,2.4-8.7,0L424.4,138c-2.4-2.4-2.4-6.4,0-8.8
		l17.1-17.2c2.4-2.4,6.3-2.4,8.7,0L467.3,129.2z"/>
	<path class="st1" d="M459.9,63.1c3.3,0.9,5.2,4.3,4.4,7.6l-6.2,23.5c-0.9,3.3-4.3,5.2-7.5,4.3l-23.4-6.4c-3.3-0.9-5.2-4.3-4.4-7.6
		l6.2-23.5c0.9-3.3,4.3-5.2,7.5-4.3L459.9,63.1z"/>
</g>
<g transform="translate(655,439.04296875),scale(0.17578125,0.17578125)">
	<path class="st1" d="M405.7,129.3c0,0-8.9-15.5-8.9-29.5c0-10.1,4.4-21.3,4.4-21.3c1.2-3.2,0.3-7.7-2.1-10.1L313.3-18
		c-2.4-2.4-6.3-2.4-8.7,0l-135,136l128.8,127.8l106-106.8C406.8,136.6,407.4,132.2,405.7,129.3z"/>
	<path class="st2" d="M398.5,67.9l-10.3-10.4l-40.9,41.2l-30.6-30.8l40.9-41.2l-10.3-10.4l-40.9,41.2L268,18.9l-10.3,10.4l38.3,38.7
		l-32.3,32.5l-38.3-38.6l-10.3,10.4l38.3,38.6l-45.2,45.5l10.4,10.3l45.1-45.5l30.6,30.8l-44.9,45.2l10.4,10.3l44.8-45.1l38.3,38.6
		l10.3-10.4L314.9,152l32.3-32.5l38.3,38.6l10.3-10.4l-38.3-38.6L398.5,67.9z M304.6,141.7l-30.6-30.8l32.3-32.5l30.6,30.8
		L304.6,141.7z"/>
	<path class="st3" d="M165.5,397c-4.8,4.8-12.6,4.8-17.4,0L20.7,268.5c-4.8-4.8-4.8-12.7,0-17.5l137-138.1c4.8-4.8,12.6-4.8,17.4,0
		l127.5,128.5c4.8,4.8,4.8,12.7,0,17.5L165.5,397z"/>
	<g transform="translate(155, 309)">
		<path class="st4" d="M6.7-103.8c27.3,0,49.5,22.1,49.5,49.5S34.1-4.9,6.7-4.9c-21.4,0-40.4-13.8-47-34.2l47-15.3V-103.8z"/>
		<path class="st5" d="M-40.3-39.1c-8.4-26,5.8-53.9,31.8-62.3c4.9-1.6,10.1-2.4,15.3-2.4v49.5L-40.3-39.1z"/>
	</g>
	<path class="st1" d="M456.7,96.2c2.4,2.4,2.4,6.4,0,8.8l-17.1,17.2c-2.4,2.4-6.3,2.4-8.7,0L413.8,105c-2.4-2.4-2.4-6.4,0-8.8
		l17.1-17.2c2.4-2.4,6.3-2.4,8.7,0L456.7,96.2z"/>
	<path class="st1" d="M449.3,30c3.3,0.9,5.2,4.3,4.4,7.6l-6.2,23.5c-0.9,3.3-4.3,5.2-7.5,4.3l-23.4-6.4c-3.3-0.9-5.2-4.3-4.4-7.6
		l6.2-23.5c0.9-3.3,4.3-5.2,7.5-4.3L449.3,30z"/>
</g>
<g transform="translate(705,208.8037109375),scale(0.2197265625,0.2197265625)">
	<path class="st1" d="M387.1,205.9c0,0-8.9-15.5-8.9-29.5c0-10.1,4.4-21.3,4.4-21.3c1.2-3.2,0.3-7.7-2.1-10.1l-85.7-86.4
		c-2.4-2.4-6.3-2.4-8.7,0l-135,136l128.8,127.8l106-106.8C388.2,213.2,388.8,208.9,387.1,205.9z"/>
	<path class="st2" d="M379.9,144.5l-10.3-10.4l-40.9,41.2l-30.6-30.8l40.9-41.2l-10.3-10.4l-40.9,41.2l-38.4-38.7l-10.3,10.4
		l38.3,38.7l-32.3,32.5l-38.3-38.6l-10.3,10.4l38.3,38.6L189.6,233l10.4,10.3l45.1-45.5l30.6,30.8l-44.9,45.2l10.4,10.3L286,239
		l38.3,38.6l10.3-10.4l-38.3-38.6l32.3-32.5l38.3,38.6l10.3-10.4l-38.3-38.6L379.9,144.5z M286,218.3l-30.6-30.8l32.3-32.5
		l30.6,30.8L286,218.3z"/>
	<path class="st3" d="M146.9,473.6c-4.8,4.8-12.6,4.8-17.4,0L2.1,345.1c-4.8-4.8-4.8-12.7,0-17.5l137-138c4.8-4.8,12.6-4.8,17.4,0
		L283.9,318c4.8,4.8,4.8,12.7,0,17.5L146.9,473.6z"/>
	<g transform="translate(155, 309)">
		<path class="st4" d="M-11.9-27.2c27.3,0,49.5,22.1,49.5,49.5S15.5,71.7-11.9,71.7c-21.4,0-40.4-13.8-47-34.2l47-15.3V-27.2z"/>
		<path class="st5" d="M-58.9,37.5c-8.4-26,5.8-53.9,31.8-62.3c4.9-1.6,10.1-2.4,15.3-2.4v49.5L-58.9,37.5z"/>
	</g>
	<path class="st1" d="M438.2,172.8c2.4,2.4,2.4,6.4,0,8.8L421,198.8c-2.4,2.4-6.3,2.4-8.7,0l-17.1-17.2c-2.4-2.4-2.4-6.4,0-8.8
		l17.1-17.2c2.4-2.4,6.3-2.4,8.7,0L438.2,172.8z"/>
	<path class="st1" d="M430.8,106.7c3.3,0.9,5.2,4.3,4.4,7.6l-6.2,23.5c-0.9,3.3-4.3,5.2-7.5,4.3l-23.4-6.4c-3.3-0.9-5.2-4.3-4.4-7.6
		l6.2-23.5c0.9-3.3,4.3-5.2,7.5-4.3L430.8,106.7z"/>
</g>
<g transform="translate(835,299.04296875),scale(0.17578125,0.17578125)">
	<path class="st1" d="M337.4,182.4c0,0-8.9-15.5-8.9-29.5c0-10.1,4.4-21.3,4.4-21.3c1.2-3.2,0.3-7.7-2.1-10.1L245,35.1
		c-2.4-2.4-6.3-2.4-8.7,0l-135,136L230.1,299l106-106.8C338.5,189.7,339.1,185.3,337.4,182.4z"/>
	<path class="st2" d="M330.2,121l-10.3-10.4L279,151.8L248.4,121l40.9-41.2L279,69.4l-40.9,41.2L199.7,72l-10.3,10.4l38.3,38.7
		l-32.3,32.5l-38.3-38.6l-10.3,10.4l38.3,38.6L140,209.5l10.4,10.3l45.1-45.5l30.6,30.8l-44.9,45.2l10.4,10.3l44.8-45.1l38.3,38.6
		l10.3-10.4l-38.3-38.6l32.3-32.5l38.3,38.6l10.3-10.4l-38.3-38.6L330.2,121z M236.3,194.8L205.8,164l32.3-32.5l30.6,30.8
		L236.3,194.8z"/>
	<path class="st3" d="M97.3,450.1c-4.8,4.8-12.6,4.8-17.4,0L-47.6,321.6c-4.8-4.8-4.8-12.7,0-17.5L89.4,166c4.8-4.8,12.6-4.8,17.4,0
		l127.5,128.5c4.8,4.8,4.8,12.7,0,17.5L97.3,450.1z"/>
	<g transform="translate(155, 309)">
		<path class="st4" d="M-61.5-50.7c27.3,0,49.5,22.1,49.5,49.5s-22.1,49.5-49.5,49.5c-21.4,0-40.4-13.8-47-34.2l47-15.3V-50.7z"/>
		<path class="st5" d="M-108.6,14c-8.4-26,5.8-53.9,31.8-62.3c4.9-1.6,10.1-2.4,15.3-2.4v49.5L-108.6,14z"/>
	</g>
	<path class="st1" d="M388.5,149.3c2.4,2.4,2.4,6.4,0,8.8l-17.1,17.2c-2.4,2.4-6.3,2.4-8.7,0l-17.1-17.2c-2.4-2.4-2.4-6.4,0-8.8
		l17.1-17.2c2.4-2.4,6.3-2.4,8.7,0L388.5,149.3z"/>
	<path class="st1" d="M381.1,83.1c3.3,0.9,5.2,4.3,4.4,7.6l-6.2,23.5c-0.9,3.3-4.3,5.2-7.5,4.3l-23.4-6.4c-3.3-0.9-5.2-4.3-4.4-7.6
		l6.2-23.5c0.9-3.3,4.3-5.2,7.5-4.3L381.1,83.1z"/>
	<path class="st1" d="M393,214.2c0.9,3.3-1.1,6.7-4.4,7.6l-23.4,6.4c-3.3,0.9-6.7-1.1-7.5-4.3l-6.2-23.5c-0.9-3.3,1.1-6.7,4.4-7.6
		l23.4-6.4c3.3-0.9,6.7,1.1,7.5,4.3L393,214.2z"/>
</g>
<g transform="translate(835,419.04296875),scale(0.17578125,0.17578125)">
	<path class="st1" d="M337.4,136.9c0,0-8.9-15.5-8.9-29.5c0-10.1,4.4-21.3,4.4-21.3c1.2-3.2,0.3-7.7-2.1-10.1L245-10.4
		c-2.4-2.4-6.3-2.4-8.7,0l-135,136l128.8,127.8l106-106.8C338.5,144.2,339.1,139.8,337.4,136.9z"/>
	<path class="st2" d="M330.2,75.5l-10.3-10.4L279,106.3l-30.6-30.8l40.9-41.2L279,23.9l-40.9,41.2l-38.4-38.7l-10.3,10.4l38.3,38.7
		l-32.3,32.5l-38.3-38.6l-10.3,10.4l38.3,38.6L140,164l10.4,10.3l45.1-45.5l30.6,30.8l-44.9,45.2l10.4,10.3l44.8-45.1l38.3,38.6
		l10.3-10.4l-38.3-38.6l32.3-32.5l38.3,38.6l10.3-10.4l-38.3-38.6L330.2,75.5z M236.3,149.2l-30.6-30.8l32.3-32.5l30.6,30.8
		L236.3,149.2z"/>
	<path class="st3" d="M97.3,404.6c-4.8,4.8-12.6,4.8-17.4,0L-47.6,276.1c-4.8-4.8-4.8-12.7,0-17.5l137-138.1
		c4.8-4.8,12.6-4.8,17.4,0L234.2,249c4.8,4.8,4.8,12.7,0,17.5L97.3,404.6z"/>
	<g transform="translate(155, 309)">
		<path class="st4" d="M-61.5-96.3c27.3,0,49.5,22.1,49.5,49.5S-34.2,2.7-61.5,2.7c-23.7,0-44.1-16.9-48.6-40.2l48.6-9.3V-96.3z"/>
		<path class="st5" d="M-110.1-37.5c-5.1-26.8,12.5-52.7,39.3-57.9c3.1-0.6,6.2-0.9,9.3-0.9v49.5L-110.1-37.5z"/>
	</g>
	<path class="st1" d="M388.5,103.8c2.4,2.4,2.4,6.4,0,8.8l-17.1,17.2c-2.4,2.4-6.3,2.4-8.7,0l-17.1-17.2c-2.4-2.4-2.4-6.4,0-8.8
		l17.1-17.2c2.4-2.4,6.3-2.4,8.7,0L388.5,103.8z"/>
	<path class="st1" d="M381.1,37.6c3.3,0.9,5.2,4.3,4.4,7.6l-6.2,23.5c-0.9,3.3-4.3,5.2-7.5,4.3l-23.4-6.4c-3.3-0.9-5.2-4.3-4.4-7.6
		l6.2-23.5c0.9-3.3,4.3-5.2,7.5-4.3L381.1,37.6z"/>
	<path class="st1" d="M393,168.7c0.9,3.3-1.1,6.7-4.4,7.6l-23.4,6.4c-3.3,0.9-6.7-1.1-7.5-4.3l-6.2-23.5c-0.9-3.3,1.1-6.7,4.4-7.6
		l23.4-6.4c3.3-0.9,6.7,1.1,7.5,4.3L393,168.7z"/>
</g>
<path class="st1" d="M574.9,90c0,0-1.3-2.3-1.3-4.3c0-1.5,0.6-3.1,0.6-3.1c0.2-0.5,0-1.1-0.3-1.5l-12.6-12.7c-0.4-0.4-0.9-0.4-1.3,0
	l-19.8,19.9l18.9,18.7l15.5-15.7C575.1,91.1,575.2,90.5,574.9,90z"/>
<path class="st2" d="M573.9,81l-1.5-1.5l-6,6l-4.5-4.5l6-6l-1.5-1.5l-6,6l-5.6-5.7l-1.5,1.5l5.6,5.7l-4.7,4.8l-5.6-5.7l-1.5,1.5
	l5.6,5.7L546,94l1.5,1.5l6.6-6.7l4.5,4.5L552,100l1.5,1.5l6.6-6.6l5.6,5.7l1.5-1.5l-5.6-5.7l4.7-4.8l5.6,5.7l1.5-1.5l-5.6-5.7
	L573.9,81z M560.1,91.8l-4.5-4.5l4.7-4.8l4.5,4.5L560.1,91.8z"/>
<path class="st3" d="M539.7,129.2c-0.7,0.7-1.8,0.7-2.5,0l-18.7-18.8c-0.7-0.7-0.7-1.9,0-2.6l20.1-20.2c0.7-0.7,1.8-0.7,2.5,0
	l18.7,18.8c0.7,0.7,0.7,1.9,0,2.6L539.7,129.2z"/>
<g transform="translate(155, 309)">
	<path class="st4" d="M384.2-207.9c4,0,7.2,3.2,7.2,7.2s-3.2,7.2-7.2,7.2c-4,0-7.2-3.2-7.2-7.2h7.2V-207.9z"/>
	<path class="st5" d="M376.9-200.6c0-4,3.2-7.2,7.2-7.2v7.2H376.9z"/>
</g>
<path class="st1" d="M582.4,85.2c0.4,0.4,0.4,0.9,0,1.3l-2.5,2.5c-0.4,0.4-0.9,0.4-1.3,0l-2.5-2.5c-0.4-0.4-0.4-0.9,0-1.3l2.5-2.5
	c0.3-0.4,0.9-0.4,1.3,0L582.4,85.2z"/>
<path class="st1" d="M581.3,75.5c0.5,0.1,0.8,0.6,0.6,1.1l-0.9,3.4c-0.1,0.5-0.6,0.8-1.1,0.6l-3.4-0.9c-0.5-0.1-0.8-0.6-0.6-1.1
	l0.9-3.4c0.1-0.5,0.6-0.8,1.1-0.6L581.3,75.5z"/>
<path class="st1" d="M583.1,94.7c0.1,0.5-0.2,1-0.6,1.1l-3.4,0.9c-0.5,0.1-1-0.2-1.1-0.6l-0.9-3.4c-0.1-0.5,0.2-1,0.6-1.1l3.4-0.9
	c0.5-0.1,1,0.2,1.1,0.6L583.1,94.7z"/>
<g transform="translate(495,119.2822265625),scale(0.1318359375,0.1318359375)">
	<path class="st1" d="M492.3,279.7c0,0-8.9-15.5-8.9-29.5c0-10.1,4.4-21.3,4.4-21.3c1.2-3.2,0.3-7.7-2.1-10.1l-85.7-86.4
		c-2.4-2.4-6.3-2.4-8.7,0l-135,136L385,396.3l106-106.8C493.4,287.1,494,282.7,492.3,279.7z"/>
	<path class="st2" d="M485.1,218.3l-10.3-10.4l-40.9,41.2l-30.6-30.8l40.9-41.2l-10.3-10.4L393,208l-38.4-38.7l-10.3,10.4l38.3,38.7
		l-32.3,32.5L312,212.3l-10.3,10.4l38.3,38.6l-45.2,45.5l10.4,10.3l45.1-45.5l30.6,30.8L336,347.7l10.4,10.3l44.8-45.1l38.3,38.6
		l10.3-10.4l-38.3-38.6l32.3-32.5l38.3,38.6l10.3-10.4l-38.3-38.6L485.1,218.3z M391.2,292.1l-30.6-30.8l32.3-32.5l30.6,30.8
		L391.2,292.1z"/>
	<path class="st3" d="M252.1,547.5c-4.8,4.8-12.6,4.8-17.4,0L107.3,419c-4.8-4.8-4.8-12.7,0-17.5l137-138.1c4.8-4.8,12.6-4.8,17.4,0
		l127.5,128.5c4.8,4.8,4.8,12.7,0,17.5L252.1,547.5z"/>
	<g transform="translate(155, 309)">
		<path class="st4" d="M93.3,46.6c27.3,0,49.5,22.1,49.5,49.5s-22.1,49.5-49.5,49.5c-21.4,0-40.4-13.8-47-34.2l47-15.3V46.6z"/>
		<path class="st5" d="M46.3,111.4C37.8,85.4,52.1,57.5,78,49c4.9-1.6,10.1-2.4,15.3-2.4v49.5L46.3,111.4z"/>
	</g>
	<path class="st1" d="M543.3,246.6c2.4,2.4,2.4,6.4,0,8.8l-17.1,17.2c-2.4,2.4-6.3,2.4-8.7,0l-17.1-17.2c-2.4-2.4-2.4-6.4,0-8.8
		l17.1-17.2c2.4-2.4,6.3-2.4,8.7,0L543.3,246.6z"/>
	<path class="st1" d="M535.9,180.5c3.3,0.9,5.2,4.3,4.4,7.6l-6.2,23.5c-0.9,3.3-4.3,5.2-7.5,4.3l-23.4-6.4c-3.3-0.9-5.2-4.3-4.4-7.6
		l6.2-23.5c0.9-3.3,4.3-5.2,7.5-4.3L535.9,180.5z"/>
</g>
<g transform="translate(575,109.2822265625),scale(0.1318359375,0.1318359375)">
	<path class="st1" d="M451.8,284.8c0,0-8.9-15.5-8.9-29.5c0-10.1,4.4-21.3,4.4-21.3c1.2-3.2,0.3-7.7-2.1-10.1l-85.7-86.4
		c-2.4-2.4-6.3-2.4-8.7,0l-135,136l128.8,127.8l106-106.8C453,292.1,453.5,287.7,451.8,284.8z"/>
	<path class="st2" d="M444.6,223.4L434.3,213l-40.9,41.2l-30.6-30.8l40.9-41.2l-10.3-10.4l-40.9,41.2l-38.4-38.7l-10.3,10.4
		l38.3,38.7L309.9,256l-38.3-38.6l-10.3,10.4l38.3,38.6l-45.2,45.5l10.4,10.3l45.1-45.5l30.6,30.8l-44.9,45.2l10.4,10.3l44.8-45.1
		l38.3,38.6l10.3-10.4l-38.3-38.6l32.3-32.5l38.3,38.6l10.3-10.4l-38.3-38.6L444.6,223.4z M350.8,297.2l-30.6-30.8l32.3-32.5
		l30.6,30.8L350.8,297.2z"/>
	<path class="st3" d="M211.7,552.5c-4.8,4.8-12.6,4.8-17.4,0L66.8,424c-4.8-4.8-4.8-12.7,0-17.5l137-138.1c4.8-4.8,12.6-4.8,17.4,0
		l127.5,128.5c4.8,4.8,4.8,12.7,0,17.5L211.7,552.5z"/>
	<g transform="translate(155, 309)">
		<path class="st4" d="M52.9,51.7c27.3,0,49.5,22.1,49.5,49.5s-22.1,49.5-49.5,49.5c-21.4,0-40.4-13.8-47-34.2l47-15.3V51.7z"/>
		<path class="st5" d="M5.8,116.4c-8.4-26,5.8-53.9,31.8-62.3c4.9-1.6,10.1-2.4,15.3-2.4v49.5L5.8,116.4z"/>
	</g>
	<path class="st1" d="M502.9,251.7c2.4,2.4,2.4,6.4,0,8.8l-17.1,17.2c-2.4,2.4-6.3,2.4-8.7,0L460,260.5c-2.4-2.4-2.4-6.4,0-8.8
		l17.1-17.2c2.4-2.4,6.3-2.4,8.7,0L502.9,251.7z"/>
	<path class="st1" d="M495.5,185.5c3.3,0.9,5.2,4.3,4.4,7.6l-6.2,23.5c-0.9,3.3-4.3,5.2-7.5,4.3l-23.4-6.4c-3.3-0.9-5.2-4.3-4.4-7.6
		l6.2-23.5c0.9-3.3,4.3-5.2,7.5-4.3L495.5,185.5z"/>
</g>
<g transform="translate(495,215.6298828125),scale(0.1904296875,0.1904296875)">
	<path class="st1" d="M460.4,210.1c0,0-8.9-15.5-8.9-29.5c0-10.1,4.4-21.3,4.4-21.3c1.2-3.2,0.3-7.7-2.1-10.1L368,62.8
		c-2.4-2.4-6.3-2.4-8.7,0l-135,136l128.8,127.8l106-106.8C461.5,217.4,462.1,213.1,460.4,210.1z"/>
	<path class="st2" d="M453.2,148.7l-10.3-10.4l-40.9,41.2l-30.6-30.8l40.9-41.2L402,97.1l-40.9,41.2l-38.4-38.7l-10.3,10.4
		l38.3,38.7l-32.3,32.5l-38.3-38.6L269.8,153l38.3,38.6l-45.2,45.5l10.4,10.3l45.1-45.5l30.6,30.8l-44.9,45.2l10.4,10.3l44.8-45.1
		l38.3,38.6l10.3-10.4l-38.3-38.6l32.3-32.5l38.3,38.6l10.3-10.4l-38.3-38.6L453.2,148.7z M359.3,222.5l-30.6-30.8l32.3-32.5
		l30.6,30.8L359.3,222.5z"/>
	<path class="st3" d="M220.2,477.8c-4.8,4.8-12.6,4.8-17.4,0L75.4,349.3c-4.8-4.8-4.8-12.7,0-17.5l137-138.1
		c4.8-4.8,12.6-4.8,17.4,0l127.5,128.5c4.8,4.8,4.8,12.7,0,17.5L220.2,477.8z"/>
	<g transform="translate(155, 309)">
		<path class="st4" d="M61.4-23c27.3,0,49.5,22.1,49.5,49.5S88.8,75.9,61.4,75.9S12,53.8,12,26.4c0-5.2,0.8-10.3,2.4-15.3l47,15.3
			V-23z"/>
		<path class="st5" d="M14.4,11.2C21-9.2,40-23,61.4-23v49.5L14.4,11.2z"/>
	</g>
	<path class="st1" d="M511.4,177c2.4,2.4,2.4,6.4,0,8.8L494.3,203c-2.4,2.4-6.3,2.4-8.7,0l-17.1-17.2c-2.4-2.4-2.4-6.4,0-8.8
		l17.1-17.2c2.4-2.4,6.3-2.4,8.7,0L511.4,177z"/>
	<path class="st1" d="M504,110.9c3.3,0.9,5.2,4.3,4.4,7.6l-6.2,23.5c-0.9,3.3-4.3,5.2-7.5,4.3l-23.4-6.4c-3.3-0.9-5.2-4.3-4.4-7.6
		l6.2-23.5c0.9-3.3,4.3-5.2,7.5-4.3L504,110.9z"/>
</g>
<g transform="translate(485,295.6298828125),scale(0.1904296875,0.1904296875)">
	<path class="st1" d="M463.9,182.1c0,0-8.9-15.5-8.9-29.5c0-10.1,4.4-21.3,4.4-21.3c1.2-3.2,0.3-7.7-2.1-10.1l-85.7-86.4
		c-2.4-2.4-6.3-2.4-8.7,0l-135,136l128.8,127.8l106-106.8C465,189.4,465.6,185,463.9,182.1z"/>
	<path class="st2" d="M456.7,120.7l-10.3-10.4l-40.9,41.2l-30.6-30.8l40.9-41.2l-10.3-10.4l-40.9,41.2l-38.4-38.7l-10.3,10.4
		l38.3,38.7L322,153.3l-38.3-38.6L273.3,125l38.3,38.6l-45.2,45.5l10.4,10.3l45.1-45.5l30.6,30.8l-44.9,45.2l10.4,10.3l44.8-45.1
		l38.3,38.6l10.3-10.4l-38.3-38.6l32.3-32.5l38.3,38.6l10.3-10.4l-38.3-38.6L456.7,120.7z M362.8,194.5l-30.6-30.8l32.3-32.5
		l30.6,30.8L362.8,194.5z"/>
	<path class="st3" d="M223.7,449.8c-4.8,4.8-12.6,4.8-17.4,0L78.9,321.3c-4.8-4.8-4.8-12.7,0-17.5l137-138.1
		c4.8-4.8,12.6-4.8,17.4,0l127.5,128.5c4.8,4.8,4.8,12.7,0,17.5L223.7,449.8z"/>
	<g transform="translate(155, 309)">
		<path class="st4" d="M64.9-51c27.3,0,49.5,22.1,49.5,49.5S92.3,47.9,64.9,47.9C41.2,47.9,20.8,31,16.3,7.7l48.6-9.3V-51z"/>
		<path class="st5" d="M16.3,7.7C11.2-19.1,28.8-45,55.7-50.2c3.1-0.6,6.2-0.9,9.3-0.9v49.5L16.3,7.7z"/>
	</g>
	<path class="st1" d="M514.9,149c2.4,2.4,2.4,6.4,0,8.8L497.8,175c-2.4,2.4-6.3,2.4-8.7,0L472,157.8c-2.4-2.4-2.4-6.4,0-8.8
		l17.1-17.2c2.4-2.4,6.3-2.4,8.7,0L514.9,149z"/>
	<path class="st1" d="M507.5,82.8c3.3,0.9,5.2,4.3,4.4,7.6l-6.2,23.5c-0.9,3.3-4.3,5.2-7.5,4.3l-23.4-6.4c-3.3-0.9-5.2-4.3-4.4-7.6
		l6.2-23.5c0.9-3.3,4.3-5.2,7.5-4.3L507.5,82.8z"/>
	<path class="st1" d="M519.5,213.9c0.9,3.3-1.1,6.7-4.4,7.6l-23.4,6.4c-3.3,0.9-6.7-1.1-7.5-4.3l-6.2-23.5c-0.9-3.3,1.1-6.7,4.4-7.6
		l23.4-6.4c3.3-0.9,6.7,1.1,7.5,4.3L519.5,213.9z"/>
	<path class="st1" d="M563,160.6c-0.9,3.3-4.3,5.2-7.6,4.4l-23.5-6.2c-3.3-0.9-5.2-4.3-4.3-7.5l6.4-23.4c0.9-3.3,4.3-5.2,7.6-4.4
		l23.5,6.2c3.3,0.9,5.2,4.3,4.3,7.5L563,160.6z"/>
</g>
<g transform="translate(545,345.6298828125),scale(0.1904296875,0.1904296875)">
	<path class="st1" d="M442.9,164.6c0,0-8.9-15.5-8.9-29.5c0-10.1,4.4-21.3,4.4-21.3c1.2-3.2,0.3-7.7-2.1-10.1l-85.7-86.4
		c-2.4-2.4-6.3-2.4-8.7,0l-135,136l128.8,127.8l106-106.8C444,171.9,444.6,167.5,442.9,164.6z"/>
	<path class="st2" d="M435.7,103.2l-10.3-10.4L384.4,134l-30.6-30.8L394.8,62l-10.3-10.4l-40.9,41.2l-38.4-38.7l-10.3,10.4
		l38.3,38.7l-32.3,32.5l-38.3-38.6l-10.3,10.4l38.3,38.6l-45.2,45.5l10.4,10.3l45.1-45.5l30.6,30.8l-44.9,45.2l10.4,10.3l44.8-45.1
		l38.3,38.6l10.3-10.4l-38.3-38.6l32.3-32.5l38.3,38.6L433,183l-38.3-38.6L435.7,103.2z M341.8,177l-30.6-30.8l32.3-32.5l30.6,30.8
		L341.8,177z"/>
	<path class="st3" d="M202.7,432.3c-4.8,4.8-12.6,4.8-17.4,0L57.8,303.8c-4.8-4.8-4.8-12.7,0-17.5l137-138.1
		c4.8-4.8,12.6-4.8,17.4,0l127.5,128.5c4.8,4.8,4.8,12.7,0,17.5L202.7,432.3z"/>
	<g transform="translate(155, 309)">
		<path class="st4" d="M43.9-68.5c27.3,0,49.5,22.1,49.5,49.5S71.2,30.4,43.9,30.4c-21.4,0-40.4-13.8-47-34.2l47-15.3V-68.5z"/>
		<path class="st5" d="M-3.1-3.8c-8.4-26,5.8-53.9,31.8-62.3c4.9-1.6,10.1-2.4,15.3-2.4v49.5L-3.1-3.8z"/>
	</g>
	<path class="st1" d="M493.9,131.5c2.4,2.4,2.4,6.4,0,8.8l-17.1,17.2c-2.4,2.4-6.3,2.4-8.7,0L451,140.3c-2.4-2.4-2.4-6.4,0-8.8
		l17.1-17.2c2.4-2.4,6.3-2.4,8.7,0L493.9,131.5z"/>
	<path class="st1" d="M486.5,65.3c3.3,0.9,5.2,4.3,4.4,7.6l-6.2,23.5c-0.9,3.3-4.3,5.2-7.5,4.3l-23.4-6.4c-3.3-0.9-5.2-4.3-4.4-7.6
		l6.2-23.5c0.9-3.3,4.3-5.2,7.5-4.3L486.5,65.3z"/>
	<path class="st1" d="M498.5,196.4c0.9,3.3-1.1,6.7-4.4,7.6l-23.4,6.4c-3.3,0.9-6.7-1.1-7.5-4.3l-6.2-23.5c-0.9-3.3,1.1-6.7,4.4-7.6
		l23.4-6.4c3.3-0.9,6.7,1.1,7.5,4.3L498.5,196.4z"/>
</g>
<g transform="translate(595,22.4560546875),scale(0.1611328125,0.1611328125)">
	<path class="st1" d="M432.1,298.6c0,0-8.9-15.5-8.9-29.5c0-10.1,4.4-21.3,4.4-21.3c1.2-3.2,0.3-7.7-2.1-10.1l-85.7-86.4
		c-2.4-2.4-6.3-2.4-8.7,0l-135,136l128.8,127.8l106-106.8C433.2,305.9,433.7,301.5,432.1,298.6z"/>
	<path class="st2" d="M424.8,237.2l-10.3-10.4L373.6,268L343,237.2L384,196l-10.3-10.4l-40.9,41.2l-38.4-38.7l-10.3,10.4l38.3,38.7
		l-32.3,32.5l-38.3-38.6l-10.3,10.4l38.3,38.6l-45.2,45.5L245,336l45.1-45.5l30.6,30.8l-44.9,45.2l10.4,10.3l44.8-45.1l38.3,38.6
		l10.3-10.4l-38.3-38.6l32.3-32.5l38.3,38.6l10.3-10.4l-38.3-38.6L424.8,237.2z M331,310.9l-30.6-30.8l32.3-32.5l30.6,30.8
		L331,310.9z"/>
	<path class="st3" d="M191.9,566.3c-4.8,4.8-12.6,4.8-17.4,0L47,437.8c-4.8-4.8-4.8-12.7,0-17.5l137-138.1c4.8-4.8,12.6-4.8,17.4,0
		l127.5,128.5c4.8,4.8,4.8,12.7,0,17.5L191.9,566.3z"/>
	<g transform="translate(155, 309)">
		<path class="st4" d="M33.1,65.5c27.3,0,49.5,22.1,49.5,49.5s-22.1,49.5-49.5,49.5s-49.5-22.1-49.5-49.5c0-5.2,0.8-10.3,2.4-15.3
			l47,15.3V65.5z"/>
		<path class="st5" d="M-13.9,99.6c6.6-20.4,25.6-34.2,47-34.2v49.5L-13.9,99.6z"/>
	</g>
	<path class="st1" d="M483.1,265.5c2.4,2.4,2.4,6.4,0,8.8L466,291.5c-2.4,2.4-6.3,2.4-8.7,0l-17.1-17.2c-2.4-2.4-2.4-6.4,0-8.8
		l17.1-17.2c2.4-2.4,6.3-2.4,8.7,0L483.1,265.5z"/>
	<path class="st1" d="M475.7,199.3c3.3,0.9,5.2,4.3,4.4,7.6l-6.2,23.5c-0.9,3.3-4.3,5.2-7.5,4.3l-23.4-6.4c-3.3-0.9-5.2-4.3-4.4-7.6
		l6.2-23.5c0.9-3.3,4.3-5.2,7.5-4.3L475.7,199.3z"/>
</g>
<g transform="translate(645,85.869140625),scale(0.146484375,0.146484375)">
	<path class="st1" d="M413.6,283.3c0,0-8.9-15.5-8.9-29.5c0-10.1,4.4-21.3,4.4-21.3c1.2-3.2,0.3-7.7-2.1-10.1L321.2,136
		c-2.4-2.4-6.3-2.4-8.7,0l-135,136l128.8,127.8l106-106.8C414.8,290.6,415.3,286.2,413.6,283.3z"/>
	<path class="st2" d="M406.4,221.9l-10.3-10.4l-40.9,41.2l-30.6-30.8l40.9-41.2l-10.3-10.4l-40.9,41.2L276,172.9l-10.3,10.4
		l38.3,38.7l-32.3,32.5l-38.3-38.6l-10.3,10.4l38.3,38.6l-45.2,45.5l10.4,10.3l45.1-45.5l30.6,30.8l-44.9,45.2l10.4,10.3l44.8-45.1
		l38.3,38.6l10.3-10.4L322.9,306l32.3-32.5l38.3,38.6l10.3-10.4l-38.3-38.6L406.4,221.9z M312.6,295.6L282,264.8l32.3-32.5
		l30.6,30.8L312.6,295.6z"/>
	<path class="st3" d="M173.5,551c-4.8,4.8-12.6,4.8-17.4,0L28.6,422.5c-4.8-4.8-4.8-12.7,0-17.5l137-138.1c4.8-4.8,12.6-4.8,17.4,0
		l127.5,128.5c4.8,4.8,4.8,12.7,0,17.5L173.5,551z"/>
	<g transform="translate(155, 309)">
		<path class="st4" d="M14.7,50.1c27.3,0,49.5,22.1,49.5,49.5S42,149.1,14.7,149.1c-21.4,0-40.4-13.8-47-34.2l47-15.3V50.1z"/>
		<path class="st5" d="M-32.3,114.9c-8.4-26,5.8-53.9,31.8-62.3c4.9-1.6,10.1-2.4,15.3-2.4v49.5L-32.3,114.9z"/>
	</g>
	<path class="st1" d="M464.7,250.2c2.4,2.4,2.4,6.4,0,8.8l-17.1,17.2c-2.4,2.4-6.3,2.4-8.7,0l-17.1-17.2c-2.4-2.4-2.4-6.4,0-8.8
		l17.1-17.2c2.4-2.4,6.3-2.4,8.7,0L464.7,250.2z"/>
	<path class="st1" d="M457.3,184c3.3,0.9,5.2,4.3,4.4,7.6l-6.2,23.5c-0.9,3.3-4.3,5.2-7.5,4.3l-23.4-6.4c-3.3-0.9-5.2-4.3-4.4-7.6
		l6.2-23.5c0.9-3.3,4.3-5.2,7.5-4.3L457.3,184z"/>
	<path class="st1" d="M469.2,315.1c0.9,3.3-1.1,6.7-4.4,7.6l-23.4,6.4c-3.3,0.9-6.7-1.1-7.5-4.3l-6.2-23.5c-0.9-3.3,1.1-6.7,4.4-7.6
		l23.4-6.4c3.3-0.9,6.7,1.1,7.5,4.3L469.2,315.1z"/>
</g>
</svg>
